<?xml version="1.0" encoding="UTF-8" standalone="no"?>
<svg xmlns:ffdec="https://www.free-decompiler.com/flash" xmlns:xlink="http://www.w3.org/1999/xlink" ffdec:objectType="shape" height="24.2px" width="21.0px" xmlns="http://www.w3.org/2000/svg">
  <g transform="matrix(1.0, 0.0, 0.0, 1.0, 0.0, 0.0)">
    <path d="M16.15 8.3 Q15.3 8.35 14.95 7.95 14.7 7.65 14.8 6.8 L14.8 5.95 14.7 5.35 14.7 4.9 Q14.7 4.5 15.55 3.9 L17.15 2.95 Q18.45 2.1 19.2 1.75 L19.85 1.5 20.6 1.65 Q21.1 1.95 21.0 2.65 L20.6 3.7 18.75 7.5 18.45 7.9 17.9 8.1 16.15 8.3 M16.15 15.7 L17.9 15.9 18.45 16.1 18.75 16.5 20.6 20.3 21.0 21.35 Q21.1 22.05 20.6 22.35 L19.85 22.5 19.2 22.25 17.15 21.05 15.55 20.1 Q14.7 19.5 14.7 19.1 L14.7 18.65 14.8 17.2 Q14.7 16.35 14.95 16.05 15.3 15.65 16.15 15.7 M16.3 6.55 L16.95 6.45 17.15 6.35 17.25 6.1 17.8 4.85 16.05 5.7 16.05 6.55 16.3 6.55 M10.3 24.2 Q9.65 24.15 9.2 23.5 L8.75 22.25 7.0 15.75 Q6.85 15.5 6.15 15.15 L1.9 12.85 1.1 12.2 1.1 12.15 1.05 12.15 1.05 12.05 1.1 12.05 1.1 12.0 1.9 11.35 6.15 9.05 7.0 8.45 8.75 1.95 9.2 0.7 Q9.65 0.05 10.3 0.0 L10.55 0.05 10.7 0.0 Q11.35 0.05 11.8 0.7 L12.25 1.95 14.0 8.45 14.85 9.05 19.1 11.35 19.9 12.0 19.95 12.05 19.95 12.15 19.9 12.2 19.1 12.85 14.85 15.15 14.0 15.75 12.25 22.25 11.8 23.5 Q11.35 24.15 10.7 24.2 L10.55 24.15 10.3 24.2 M6.75 13.15 L7.25 13.3 Q8.7 13.75 9.1 14.25 L9.6 15.45 10.5 18.9 11.4 15.45 Q11.6 14.6 11.9 14.25 12.3 13.75 13.75 13.3 L17.0 12.15 17.0 12.1 13.75 10.9 Q12.3 10.45 11.9 9.95 L11.65 9.5 11.4 8.75 10.5 5.3 9.6 8.75 9.1 9.95 Q8.7 10.45 7.25 10.9 5.55 11.4 4.0 12.1 L5.6 12.75 6.75 13.15 M4.85 8.3 L3.1 8.1 2.55 7.9 2.25 7.5 0.4 3.7 0.0 2.65 Q-0.1 1.95 0.4 1.65 L1.15 1.5 1.8 1.75 3.85 2.95 5.45 3.9 Q6.3 4.5 6.3 4.9 L6.3 5.35 6.2 6.8 Q6.3 7.65 6.05 7.95 5.7 8.35 4.85 8.3 M4.7 6.55 L4.95 6.55 4.95 5.7 3.2 4.85 3.75 6.1 3.85 6.35 4.05 6.45 4.7 6.55 M6.25 18.35 L6.3 18.65 6.3 19.1 Q6.3 19.5 5.45 20.1 L3.85 21.05 1.8 22.25 1.15 22.5 0.4 22.35 Q-0.1 22.05 0.0 21.35 L0.4 20.3 2.25 16.5 2.55 16.1 3.1 15.9 4.85 15.7 Q5.7 15.65 6.05 16.05 L6.25 17.0 6.2 17.2 6.25 18.35 M4.7 17.45 L4.05 17.55 3.85 17.65 3.75 17.9 3.2 19.15 4.95 18.3 4.95 17.45 4.7 17.45 M16.3 17.45 L16.05 17.45 16.05 18.3 17.8 19.15 17.25 17.9 17.15 17.65 16.95 17.55 16.3 17.45" fill="#000000" fill-rule="evenodd" stroke="none"/>
    <path d="M16.3 6.55 L16.05 6.55 16.05 5.7 17.8 4.85 17.25 6.1 17.15 6.35 16.95 6.45 16.3 6.55 M11.65 9.5 L11.15 10.75 10.55 11.7 Q9.95 12.3 8.4 12.7 L6.75 13.15 5.6 12.75 4.0 12.1 Q5.55 11.4 7.25 10.9 8.7 10.45 9.1 9.95 L9.6 8.75 10.5 5.3 11.4 8.75 11.65 9.5 M4.7 6.55 L4.05 6.45 3.85 6.35 3.75 6.1 3.2 4.85 4.95 5.7 4.95 6.55 4.7 6.55 M6.25 18.35 L6.2 17.2 6.25 17.0 6.35 17.7 6.25 18.35 M4.7 17.45 L4.95 17.45 4.95 18.3 3.2 19.15 3.75 17.9 3.85 17.65 4.05 17.55 4.7 17.45 M16.3 17.45 L16.95 17.55 17.15 17.65 17.25 17.9 17.8 19.15 16.05 18.3 16.05 17.45 16.3 17.45" fill="#ffffff" fill-rule="evenodd" stroke="none"/>
    <path d="M6.75 13.15 L8.4 12.7 Q9.95 12.3 10.55 11.7 L11.15 10.75 11.65 9.5 11.9 9.95 Q12.3 10.45 13.75 10.9 L17.0 12.1 17.0 12.15 13.75 13.3 Q12.3 13.75 11.9 14.25 11.6 14.6 11.4 15.45 L10.5 18.9 9.6 15.45 9.1 14.25 Q8.7 13.75 7.25 13.3 L6.75 13.15" fill="#c8c8c8" fill-rule="evenodd" stroke="none"/>
  </g>
</svg>
