<?xml version="1.0" encoding="UTF-8" standalone="no"?>
<svg xmlns:ffdec="https://www.free-decompiler.com/flash" xmlns:xlink="http://www.w3.org/1999/xlink" ffdec:objectType="shape" height="13.25px" width="17.5px" xmlns="http://www.w3.org/2000/svg">
  <g transform="matrix(1.0, 0.0, 0.0, 1.0, 0.0, 0.0)">
    <path d="M6.05 9.05 L8.75 11.75 11.85 8.7 Q14.0 6.35 14.75 3.3 L12.65 3.4 10.4 3.2 9.65 3.05 9.15 2.9 8.8 2.8 8.75 2.75 7.85 3.05 7.35 3.15 7.1 3.2 5.5 3.35 4.85 3.4 4.7 3.4 2.75 3.3 Q3.1 4.75 3.8 6.05 L3.95 6.3 5.1 8.05 5.2 8.15 5.65 8.7 6.05 9.05 M9.35 0.0 L10.75 0.45 Q12.85 1.3 14.3 0.9 L15.75 0.35 Q16.65 0.1 17.2 0.6 17.65 1.0 17.45 2.15 L16.95 4.45 Q15.55 9.55 10.75 12.45 L9.35 13.15 8.8 13.25 8.2 13.15 6.75 12.45 Q1.95 9.55 0.55 4.45 L0.05 2.15 Q-0.15 1.0 0.3 0.6 0.85 0.1 1.75 0.35 L3.2 0.9 Q4.65 1.3 6.75 0.45 L8.15 0.0 9.35 0.0" fill="#000000" fill-rule="evenodd" stroke="none"/>
    <path d="M8.8 2.8 L9.15 2.9 9.65 3.05 10.4 3.2 12.65 3.4 14.75 3.3 Q14.0 6.35 11.85 8.7 L8.75 11.75 6.05 9.05 6.35 8.25 6.75 7.15 7.0 6.65 7.6 5.35 8.3 3.55 8.8 2.8 M5.1 8.05 L3.95 6.3 3.8 6.05 4.45 4.2 4.6 3.9 4.7 3.4 4.85 3.4 5.5 3.35 7.1 3.2 7.35 3.15 7.15 3.55 6.95 3.85 6.5 4.35 5.6 6.35 5.5 6.85 5.1 8.0 5.1 8.05" fill="#999999" fill-rule="evenodd" stroke="none"/>
  </g>
</svg>
