<?xml version="1.0" encoding="UTF-8" standalone="no"?>
<svg xmlns:ffdec="https://www.free-decompiler.com/flash" xmlns:xlink="http://www.w3.org/1999/xlink" ffdec:objectType="shape" height="60.45px" width="66.45px" xmlns="http://www.w3.org/2000/svg">
  <g transform="matrix(1.0, 0.0, 0.0, 1.0, 1.0, 1.4)">
    <path d="M22.3 20.75 Q18.0 23.75 15.85 30.65 14.3 35.65 15.3 39.1 15.95 41.3 17.7 43.15 19.3 44.9 21.55 46.0 25.35 47.75 30.9 47.6 35.3 47.45 38.95 45.95 43.0 44.3 45.3 41.2 47.0 38.9 48.15 35.15 49.9 29.2 49.15 24.15 48.25 18.2 44.15 14.45 40.75 11.4 35.5 10.5 31.45 9.75 27.3 10.45 23.15 11.15 19.55 13.2 15.95 15.2 13.2 18.4 10.45 21.55 8.95 25.4 8.15 27.45 7.15 31.75 6.25 35.45 6.35 37.45 6.5 39.5 7.45 42.05 9.5 47.8 13.1 50.5 15.45 52.15 20.3 53.5 L27.25 54.95 Q31.05 55.45 34.25 54.95 36.6 54.65 40.85 53.25 45.2 51.9 47.3 50.5 49.3 49.15 51.95 46.05 54.9 42.6 56.15 40.4 57.5 37.95 58.35 34.6 59.6 29.75 59.15 24.85 58.75 19.8 56.6 15.5 54.4 11.05 50.55 7.9 46.6 4.6 41.85 3.55 L34.5 3.0 27.05 3.45 21.3 3.8 Q18.05 4.1 15.7 4.85 12.4 5.95 9.75 8.3 7.05 10.65 5.55 13.8 4.55 15.95 3.15 20.5 2.1 22.9 0.65 23.15 -0.9 20.6 0.4 16.05 1.9 11.05 5.25 7.15 8.75 3.05 13.4 1.3 15.85 0.4 19.05 0.0 L24.85 -0.45 34.1 -0.85 40.3 -0.7 Q46.5 0.0 51.85 4.0 57.1 7.85 59.95 13.65 62.7 19.2 62.95 25.8 63.2 32.2 61.1 38.3 59.65 42.45 57.6 45.3 L53.85 49.7 49.95 53.35 Q47.75 54.9 44.1 56.25 38.95 58.15 35.3 58.7 29.35 59.65 21.7 58.0 13.85 56.4 9.6 52.8 6.55 50.3 4.65 46.5 2.9 42.9 2.5 38.75 1.7 31.1 5.45 23.0 7.65 18.2 10.85 14.6 14.35 10.65 18.65 8.6 23.75 6.2 31.0 6.05 L36.8 6.4 Q40.6 7.1 43.95 9.3 47.25 11.5 49.5 14.7 51.7 17.85 52.65 21.75 53.6 25.55 53.2 29.45 L51.95 35.65 Q50.7 39.95 49.7 41.85 47.5 45.85 42.95 48.4 39.35 50.45 34.0 51.3 25.25 52.6 19.0 49.35 15.5 47.55 13.2 44.35 10.85 41.05 10.65 37.3 10.6 35.35 11.1 32.75 13.2 22.0 19.85 17.35 23.95 14.5 29.2 14.5 34.5 14.55 38.45 17.5 42.45 20.45 44.0 25.5 45.55 30.55 43.85 35.2 42.45 39.05 39.1 41.75 35.8 44.45 31.75 45.15 27.65 45.8 24.2 44.25 20.35 42.4 19.1 38.75 17.65 34.4 20.7 29.05 22.5 26.0 24.8 24.35 27.6 22.35 30.65 22.55 32.95 22.7 34.95 24.3 36.9 25.85 37.55 28.1 38.25 30.35 37.5 32.75 36.8 35.1 35.0 36.6 32.85 38.4 30.55 38.25 29.35 38.2 28.25 37.6 27.15 36.9 26.65 35.85 26.1 34.75 26.4 33.5 26.7 32.2 27.65 31.5 28.55 30.85 29.4 31.15 30.35 31.5 30.35 32.5 30.35 33.55 29.4 33.8 29.7 34.45 30.5 34.55 L31.95 34.3 Q33.3 33.65 33.9 32.1 34.5 30.6 33.95 29.2 33.45 27.8 31.95 27.05 30.5 26.3 29.05 26.65 27.1 27.15 25.15 30.0 22.35 33.9 23.0 36.75 23.6 39.45 26.45 40.65 28.7 41.6 31.75 41.0 34.8 40.3 37.15 38.2 39.55 36.05 40.4 33.1 41.2 30.4 40.5 27.45 39.85 24.55 37.9 22.4 35.95 20.25 33.15 19.3 30.35 18.3 27.5 18.7 24.7 19.05 22.3 20.75 M64.9 6.7 L64.6 7.6 Q64.15 8.25 63.75 8.2 L62.8 7.4 62.45 6.85 62.35 6.1 62.1 5.6 61.5 3.85 60.8 2.95 60.05 2.3 59.35 1.35 59.0 0.7 Q58.75 0.15 58.95 -0.4 59.15 -1.0 59.65 -1.25 L60.9 -1.3 61.85 -0.5 62.25 0.15 62.75 0.65 63.2 1.55 63.85 2.35 64.35 3.75 64.85 6.0 64.9 6.7 M63.95 50.4 Q62.5 53.55 58.6 56.35 57.0 57.6 55.7 58.1 54.0 58.85 52.35 58.55 L51.4 58.2 Q50.95 57.8 51.0 57.3 51.1 56.75 51.65 56.5 L52.65 56.2 Q55.05 55.55 58.2 52.5 L59.75 50.95 61.15 48.85 62.6 45.8 Q63.65 43.9 64.7 43.2 L65.0 44.05 65.4 44.9 65.25 46.55 64.8 48.1 63.95 50.4 M0.4 1.6 L1.4 0.75 Q2.2 0.05 2.75 0.0 3.45 0.0 3.75 0.55 4.15 1.1 3.8 1.7 L2.8 2.65 1.8 3.45 Q1.1 3.95 0.6 3.95 -0.15 3.95 -0.4 3.35 -0.6 2.9 -0.3 2.35 L0.4 1.6 M1.25 57.25 L1.0 57.4 0.15 57.25 -0.4 56.75 -0.65 56.35 -0.75 55.9 -1.0 55.25 Q-1.1 54.65 -0.6 54.4 -0.1 54.1 0.45 54.55 0.85 54.8 1.05 55.5 L1.25 57.0 1.25 57.25" fill="#999999" fill-rule="evenodd" stroke="none"/>
    <path d="M20.6 56.95 L20.7 58.3 16.45 58.3 Q15.6 48.65 16.35 38.3 16.7 32.95 17.65 29.75 18.65 26.2 20.65 23.7 19.75 22.8 19.85 20.4 20.15 16.9 21.2 15.45 22.1 14.2 23.3 14.2 23.95 14.15 24.45 14.65 24.95 15.15 24.85 15.75 L24.5 16.5 24.0 17.25 23.6 18.45 Q23.4 19.55 23.7 20.8 L23.75 20.95 Q25.2 20.0 26.9 19.5 L28.05 19.2 Q28.2 17.75 28.9 16.3 29.85 14.4 31.45 13.2 32.2 12.6 32.9 12.55 L33.65 12.7 34.15 13.3 Q34.4 14.05 33.3 15.1 31.7 16.7 31.7 18.3 L31.8 19.0 32.55 19.1 Q33.9 19.3 35.2 19.85 35.45 18.8 35.95 17.9 37.1 15.95 39.15 15.25 L41.6 15.35 Q42.6 15.9 42.3 16.6 L41.4 17.25 Q40.3 17.75 39.6 18.75 38.95 19.8 38.85 20.95 L38.85 22.05 Q40.5 23.5 41.6 25.45 42.8 27.6 43.3 30.55 43.65 32.6 43.8 36.0 44.25 47.95 43.1 58.3 L39.55 58.3 39.6 57.15 39.75 53.55 39.85 50.95 Q40.3 41.0 39.75 34.5 39.25 29.0 37.25 26.35 35.15 23.6 31.6 23.2 L30.95 23.15 30.0 23.3 29.65 23.2 Q27.3 23.45 25.35 25.05 22.8 27.15 21.65 31.45 20.7 34.75 20.4 41.0 20.05 47.85 20.4 53.8 L20.6 56.95 M29.7 31.7 L28.05 31.9 Q27.65 32.2 27.5 32.7 27.05 33.55 27.35 34.2 L28.35 34.95 Q29.9 35.75 30.85 35.5 L32.0 34.95 32.85 34.3 33.2 33.35 33.05 30.95 32.8 29.85 Q32.4 28.95 31.5 28.45 30.55 27.95 29.6 28.15 L27.65 28.5 Q27.05 28.4 26.75 27.8 26.45 27.2 26.65 26.65 26.85 26.1 27.65 25.65 28.4 25.25 28.95 25.15 L30.55 25.05 32.3 25.35 33.75 26.2 Q35.5 27.6 35.95 29.75 L36.15 31.25 Q36.45 34.15 35.35 35.8 L34.0 37.1 Q32.85 37.9 31.9 38.15 L30.1 38.4 28.5 38.25 27.1 37.65 25.5 36.75 Q24.65 36.15 24.4 35.4 L24.2 33.95 Q24.1 32.65 24.35 31.85 24.7 30.9 25.5 30.0 26.3 29.2 26.85 28.95 L28.7 28.7 30.8 29.1 Q31.75 29.55 32.15 30.6 32.5 31.7 32.05 32.65 L31.1 33.7 29.75 34.05 Q29.05 34.05 28.8 33.5 28.7 33.05 29.1 32.45 L29.7 31.7" fill="#000000" fill-rule="evenodd" stroke="none"/>
    <path d="M39.6 57.15 L33.2 57.1 32.0 57.1 23.1 57.05 22.05 57.0 21.0 56.95 20.6 56.95 20.4 53.8 Q20.05 47.85 20.4 41.0 20.7 34.75 21.65 31.45 22.8 27.15 25.35 25.05 27.3 23.45 29.65 23.2 L30.0 23.3 30.95 23.15 31.6 23.2 Q35.15 23.6 37.25 26.35 39.25 29.0 39.75 34.5 40.3 41.0 39.85 50.95 L39.75 53.55 39.6 57.15 M29.7 31.7 L29.1 32.45 Q28.7 33.05 28.8 33.5 29.05 34.05 29.75 34.05 L31.1 33.7 32.05 32.65 Q32.5 31.7 32.15 30.6 31.75 29.55 30.8 29.1 L28.7 28.7 26.85 28.95 Q26.3 29.2 25.5 30.0 24.7 30.9 24.35 31.85 24.1 32.65 24.2 33.95 L24.4 35.4 Q24.65 36.15 25.5 36.75 L27.1 37.65 28.5 38.25 30.1 38.4 31.9 38.15 Q32.85 37.9 34.0 37.1 L35.35 35.8 Q36.45 34.15 36.15 31.25 L35.95 29.75 Q35.5 27.6 33.75 26.2 L32.3 25.35 30.55 25.05 28.95 25.15 Q28.4 25.25 27.65 25.65 26.85 26.1 26.65 26.65 26.45 27.2 26.75 27.8 27.05 28.4 27.65 28.5 L29.6 28.15 Q30.55 27.95 31.5 28.45 32.4 28.95 32.8 29.85 L33.05 30.95 33.2 33.35 32.85 34.3 32.0 34.95 30.85 35.5 Q29.9 35.75 28.35 34.95 L27.35 34.2 Q27.05 33.55 27.5 32.7 27.65 32.2 28.05 31.9 L29.7 31.7" fill="#cccccc" fill-rule="evenodd" stroke="none"/>
  </g>
</svg>
