<?xml version="1.0" encoding="UTF-8" standalone="no"?>
<svg xmlns:ffdec="https://www.free-decompiler.com/flash" xmlns:xlink="http://www.w3.org/1999/xlink" ffdec:objectType="shape" height="60.4px" width="66.2px" xmlns="http://www.w3.org/2000/svg">
  <g transform="matrix(1.0, 0.0, 0.0, 1.0, 0.95, 1.25)">
    <path d="M19.9 -1.0 Q21.4 -0.8 21.45 0.0 21.5 0.8 19.6 1.05 L15.95 1.65 Q14.2 1.95 10.15 4.1 6.1 6.25 3.9 11.05 1.65 15.85 1.4 20.75 L1.2 26.2 1.3 26.95 1.05 27.15 0.45 27.05 Q-0.35 26.55 -0.95 25.7 L-0.95 12.35 -0.5 11.15 -0.95 10.65 -0.95 0.8 -0.65 0.55 Q-0.1 0.05 0.85 0.05 L1.75 0.15 2.5 0.05 4.9 -0.15 6.45 0.05 Q7.1 0.25 7.55 0.8 L7.55 0.85 Q9.0 -0.05 10.65 -0.55 L19.9 -1.0 M44.4 -1.0 L53.65 -0.55 Q55.3 -0.05 56.75 0.85 L56.75 0.8 Q57.2 0.25 57.85 0.05 L59.4 -0.15 61.8 0.05 62.55 0.15 63.45 0.05 Q64.4 0.05 64.95 0.55 L65.25 0.8 65.25 10.65 64.8 11.15 65.25 12.35 65.25 25.7 63.85 27.05 63.25 27.15 63.0 26.95 63.1 26.2 62.9 20.75 Q62.65 15.85 60.4 11.05 58.2 6.25 54.15 4.1 50.1 1.95 48.35 1.65 L44.7 1.05 Q42.8 0.8 42.85 0.0 42.9 -0.8 44.4 -1.0 M44.4 58.9 Q42.9 58.7 42.85 57.9 42.8 57.1 44.7 56.85 L48.35 56.25 Q50.1 55.95 54.15 53.8 58.2 51.65 60.4 46.85 62.65 42.05 62.9 37.15 L63.1 31.7 63.0 30.95 Q63.0 30.8 63.25 30.75 L63.85 30.85 Q64.65 31.35 65.25 32.2 L65.25 45.55 64.8 46.75 65.25 47.25 65.25 57.1 64.95 57.35 Q64.4 57.85 63.45 57.85 L62.55 57.75 61.8 57.85 59.4 58.05 57.85 57.85 Q57.2 57.65 56.75 57.1 L56.75 57.05 Q55.3 57.95 53.65 58.45 L44.4 58.9 M19.9 58.9 L10.65 58.45 Q9.0 57.95 7.55 57.05 L7.55 57.1 Q7.1 57.65 6.45 57.85 L4.9 58.05 2.5 57.85 1.75 57.75 0.85 57.85 Q-0.1 57.85 -0.65 57.35 L-0.95 57.1 -0.95 47.25 -0.5 46.75 -0.95 45.55 -0.95 32.2 Q-0.35 31.35 0.45 30.85 L1.05 30.75 1.3 30.95 1.2 31.7 1.4 37.15 Q1.65 42.05 3.9 46.85 6.1 51.65 10.15 53.8 14.2 55.95 15.95 56.25 L19.6 56.85 Q21.5 57.1 21.45 57.9 21.4 58.7 19.9 58.9" fill="#999999" fill-rule="evenodd" stroke="none"/>
  </g>
</svg>
