<?xml version="1.0" encoding="UTF-8" standalone="no"?>
<svg xmlns:ffdec="https://www.free-decompiler.com/flash" xmlns:xlink="http://www.w3.org/1999/xlink" ffdec:objectType="shape" height="45.3px" width="40.1px" xmlns="http://www.w3.org/2000/svg">
  <g transform="matrix(1.0, 0.0, 0.0, 1.0, -9.7, -5.45)">
    <path d="M10.4 21.25 Q11.1 18.4 12.1 16.6 15.25 10.7 23.25 7.45 27.8 5.6 32.05 5.45 36.85 5.3 40.7 7.5 43.9 9.35 46.2 12.95 49.05 17.4 49.65 23.15 50.2 28.5 48.8 34.05 L47.25 38.15 Q46.1 40.3 44.25 41.95 44.35 43.4 44.0 44.55 43.7 45.9 42.7 46.9 41.25 48.35 38.8 48.35 L36.75 47.85 36.7 47.8 36.35 48.5 Q35.65 49.6 34.2 50.3 L31.45 50.75 30.0 50.6 28.4 49.85 28.05 49.65 27.6 49.35 26.95 48.75 25.2 49.7 24.1 49.9 21.95 49.85 Q20.7 49.55 19.85 48.75 L19.2 47.95 Q18.0 46.2 18.2 44.65 L18.35 44.1 18.15 43.95 Q14.5 41.6 12.7 38.7 11.4 36.7 10.7 34.15 8.85 27.7 10.4 21.25 M17.7 38.25 L19.25 38.55 Q21.8 38.65 23.75 37.05 25.8 35.3 25.7 32.8 L25.65 32.15 24.4 31.95 19.1 31.25 15.8 30.75 15.2 32.0 Q14.55 33.95 15.2 35.65 15.9 37.6 17.7 38.25 M37.2 33.75 L38.7 34.95 40.4 35.3 Q42.25 35.4 43.7 34.65 45.35 33.85 46.2 32.35 47.15 30.7 46.75 28.6 46.5 27.55 45.9 26.7 45.25 25.25 44.4 24.55 L43.45 25.25 40.2 28.0 37.0 30.9 35.95 31.7 35.95 31.75 36.4 32.8 37.2 33.75" fill="#000000" fill-rule="evenodd" stroke="none"/>
    <path d="M37.2 33.75 L36.4 32.8 35.95 31.75 35.95 31.7 37.0 30.9 40.2 28.0 43.45 25.25 44.4 24.55 Q45.25 25.25 45.9 26.7 46.5 27.55 46.75 28.6 47.15 30.7 46.2 32.35 45.35 33.85 43.7 34.65 42.25 35.4 40.4 35.3 L38.7 34.95 37.2 33.75 M17.7 38.25 Q15.9 37.6 15.2 35.65 14.55 33.95 15.2 32.0 L15.8 30.75 19.1 31.25 24.4 31.95 25.65 32.15 25.7 32.8 Q25.8 35.3 23.75 37.05 21.8 38.65 19.25 38.55 L17.7 38.25" fill="#ffffff" fill-rule="evenodd" stroke="none"/>
  </g>
</svg>
