<?xml version="1.0" encoding="UTF-8" standalone="no"?>
<svg xmlns:ffdec="https://www.free-decompiler.com/flash" xmlns:xlink="http://www.w3.org/1999/xlink" ffdec:objectType="shape" height="51.35px" width="29.95px" xmlns="http://www.w3.org/2000/svg">
  <g transform="matrix(1.0, 0.0, 0.0, 1.0, -15.3, -2.4)">
    <path d="M42.1 19.45 Q43.65 23.95 43.55 28.1 L43.0 32.55 Q41.5 39.25 36.8 44.65 34.6 47.15 32.05 49.0 L29.25 44.0 28.8 42.9 28.1 41.65 Q27.85 41.5 27.65 41.8 L27.65 42.3 29.9 49.55 30.15 50.15 30.2 50.25 Q29.05 50.9 27.8 51.5 L26.8 52.1 Q23.7 53.95 19.0 53.75 L16.7 53.25 Q15.45 52.65 15.3 51.5 15.25 50.8 15.75 49.95 L16.75 48.55 Q18.05 46.9 18.85 44.45 19.45 42.85 20.05 39.9 L20.9 34.55 21.05 25.65 22.5 25.75 23.3 25.75 24.0 25.85 25.25 25.9 25.7 25.75 25.25 25.5 24.9 25.25 23.9 24.6 21.15 23.45 21.45 21.1 22.55 17.75 24.7 12.65 Q25.4 11.2 26.2 10.95 27.3 10.55 28.95 11.9 L31.35 13.65 31.35 13.35 31.4 10.75 31.55 4.6 31.8 3.5 32.55 2.65 Q33.1 2.35 33.7 2.4 34.25 2.45 34.75 2.85 35.2 3.25 35.35 3.8 L35.35 5.4 34.75 8.7 34.45 9.65 33.15 13.7 33.45 13.55 35.75 13.0 37.15 12.6 38.5 12.65 Q39.1 12.9 39.7 14.05 L41.55 18.0 37.85 20.2 37.65 20.35 Q37.55 20.65 37.9 20.65 L38.3 20.5 39.1 20.4 39.55 20.15 40.7 19.85 Q41.45 19.5 41.65 19.45 L42.1 19.45 M29.75 27.95 L30.95 21.3 31.25 18.25 Q31.25 17.15 30.6 17.0 30.1 16.85 29.75 17.4 L29.5 18.4 Q28.6 25.9 26.6 34.05 L25.9 36.45 25.1 38.25 24.45 40.45 24.45 40.7 24.6 40.75 Q27.05 37.4 29.1 30.35 L29.75 27.95" fill="#000000" fill-rule="evenodd" stroke="none"/>
    <path d="M41.55 18.0 L43.2 16.85 44.1 16.6 44.65 16.7 Q45.45 17.05 45.2 17.95 L44.45 18.7 43.4 19.05 42.25 19.45 42.1 19.45 41.65 19.45 Q41.45 19.5 40.7 19.85 L39.55 20.15 39.1 20.4 38.3 20.5 37.9 20.65 Q37.55 20.65 37.65 20.35 L37.85 20.2 41.55 18.0 M32.05 49.0 L32.25 49.4 32.45 50.4 Q32.55 51.1 32.1 51.35 L31.45 51.4 30.85 51.0 30.2 50.25 30.15 50.15 29.9 49.55 27.65 42.3 27.65 41.8 Q27.85 41.5 28.1 41.65 L28.8 42.9 29.25 44.0 32.05 49.0 M21.05 25.65 L20.45 25.55 19.9 25.4 Q19.2 25.25 18.75 24.7 18.3 24.0 18.7 23.45 19.1 22.8 19.85 22.9 L21.15 23.45 23.9 24.6 24.9 25.25 25.25 25.5 25.7 25.75 25.25 25.9 24.0 25.85 23.3 25.75 22.5 25.75 21.05 25.65 M29.75 27.95 L29.1 30.35 Q27.05 37.4 24.6 40.75 L24.45 40.7 24.45 40.45 25.1 38.25 25.9 36.45 26.6 34.05 Q28.6 25.9 29.5 18.4 L29.75 17.4 Q30.1 16.85 30.6 17.0 31.25 17.15 31.25 18.25 L30.95 21.3 29.75 27.95" fill="#ffffff" fill-rule="evenodd" stroke="none"/>
  </g>
</svg>
