<?xml version="1.0" encoding="UTF-8" standalone="no"?>
<svg xmlns:ffdec="https://www.free-decompiler.com/flash" xmlns:xlink="http://www.w3.org/1999/xlink" ffdec:objectType="shape" height="49.75px" width="48.5px" xmlns="http://www.w3.org/2000/svg">
  <g transform="matrix(1.0, 0.0, 0.0, 1.0, -7.95, -3.75)">
    <path d="M52.6 16.25 Q53.65 18.45 55.05 23.1 L56.1 27.25 Q57.0 32.1 55.7 37.95 54.35 43.8 51.35 46.8 49.4 48.65 45.95 50.2 L40.0 52.45 Q32.8 54.5 23.25 52.5 21.05 52.1 19.65 51.5 15.75 50.0 12.65 45.85 8.5 40.25 8.0 33.2 7.65 28.35 9.35 21.45 10.35 17.45 11.6 15.35 13.45 12.05 18.45 8.55 22.4 5.8 25.3 4.8 29.95 3.2 37.75 4.05 L41.15 4.8 Q42.8 5.4 45.1 7.25 50.15 11.3 52.6 16.25 M38.95 29.8 Q41.6 30.0 44.05 31.5 46.5 33.0 47.9 35.5 L49.25 38.9 Q49.8 40.9 49.85 42.5 L50.95 40.3 Q51.7 38.5 52.25 35.6 L52.7 32.35 Q52.8 30.15 52.15 27.35 L50.75 22.45 48.65 17.4 Q47.1 14.75 43.65 11.55 41.8 9.7 40.45 9.25 L39.75 9.05 39.1 8.75 Q37.3 8.15 34.8 8.05 31.0 7.9 28.65 9.25 27.1 10.1 25.25 12.2 23.95 13.65 23.45 14.7 22.7 16.05 22.55 18.2 22.05 23.35 24.45 27.05 25.8 29.0 27.85 30.15 29.95 31.3 32.2 31.2 L35.25 30.6 38.95 29.8 M39.25 19.9 L38.85 20.65 38.3 21.4 Q37.5 22.3 36.25 22.4 35.15 22.55 33.9 21.95 L33.25 21.55 Q32.55 20.9 32.2 19.8 L32.0 18.8 Q32.0 17.55 32.75 16.65 33.45 15.7 34.65 15.4 L35.75 15.3 36.85 15.45 37.75 15.8 38.6 16.35 Q39.1 16.85 39.25 17.65 L39.4 19.1 39.25 19.9 M38.65 41.75 Q38.7 40.05 37.0 38.85 L36.4 38.55 35.8 38.35 Q34.35 38.05 33.1 38.75 31.8 39.4 31.5 40.8 L31.4 41.25 Q31.3 42.3 31.45 42.8 31.7 43.65 32.4 44.3 L32.8 44.65 Q33.85 45.55 35.45 45.25 36.85 45.1 37.85 43.95 L38.3 43.25 38.65 41.75" fill="#000000" fill-rule="evenodd" stroke="none"/>
    <path d="M39.75 9.05 Q41.6 9.85 42.65 11.3 43.25 12.2 43.25 13.0 L42.9 13.85 Q42.5 14.2 42.05 14.2 41.5 14.2 40.8 13.5 38.1 11.4 33.4 12.05 L30.85 12.75 Q29.65 13.4 28.7 14.8 27.05 17.15 27.2 20.0 27.25 22.9 29.15 25.1 30.35 26.5 31.65 26.55 L33.55 26.25 Q36.25 25.5 39.1 25.55 41.55 25.65 42.75 26.6 43.25 27.05 43.4 27.65 43.65 28.3 43.35 28.8 43.05 29.3 42.3 29.45 L40.95 29.6 38.95 29.8 35.25 30.6 32.2 31.2 Q29.95 31.3 27.85 30.15 25.8 29.0 24.45 27.05 22.05 23.35 22.55 18.2 22.7 16.05 23.45 14.7 23.95 13.65 25.25 12.2 27.1 10.1 28.65 9.25 31.0 7.9 34.8 8.05 37.3 8.15 39.1 8.75 L39.75 9.05 M38.65 41.75 L38.3 43.25 37.85 43.95 Q36.85 45.1 35.45 45.25 33.85 45.55 32.8 44.65 L32.4 44.3 Q31.7 43.65 31.45 42.8 31.3 42.3 31.4 41.25 L31.5 40.8 Q31.8 39.4 33.1 38.75 34.35 38.05 35.8 38.35 L36.4 38.55 37.0 38.85 Q38.7 40.05 38.65 41.75" fill="#ffffff" fill-rule="evenodd" stroke="none"/>
  </g>
</svg>
