<?xml version="1.0" encoding="UTF-8" standalone="no"?>
<svg xmlns:ffdec="https://www.free-decompiler.com/flash" xmlns:xlink="http://www.w3.org/1999/xlink" ffdec:objectType="shape" height="47.15px" width="41.6px" xmlns="http://www.w3.org/2000/svg">
  <g transform="matrix(1.0, 0.0, 0.0, 1.0, -9.4, -5.1)">
    <path d="M18.1 9.45 Q17.45 9.05 17.15 8.3 16.8 7.5 17.1 6.8 17.4 6.1 18.2 5.7 18.95 5.3 19.8 5.35 21.15 5.45 22.9 6.65 24.4 7.6 25.2 8.6 26.55 10.15 27.0 12.3 27.5 14.3 27.1 16.3 26.65 18.15 25.65 19.75 27.5 21.45 30.0 24.8 L33.3 22.3 36.6 20.15 Q36.15 19.15 36.0 18.25 35.8 17.1 36.25 16.25 36.45 15.75 37.3 15.0 L37.75 14.6 37.3 13.75 37.0 13.15 35.85 13.4 34.15 13.2 Q33.45 12.85 33.0 12.15 32.55 11.4 32.65 10.6 32.65 10.1 32.95 9.5 L33.45 8.7 33.85 8.25 37.15 5.9 Q38.95 4.95 40.05 5.15 41.4 5.35 42.0 6.75 42.5 8.05 41.55 9.15 L42.0 9.65 42.4 10.2 42.7 10.0 Q43.35 9.55 44.15 9.65 44.95 9.75 45.5 10.2 46.1 10.6 46.7 11.65 L48.6 15.15 50.05 19.05 50.45 20.55 50.4 21.1 50.65 22.05 51.0 25.4 Q50.85 29.55 47.75 32.3 L47.0 32.75 Q46.4 32.9 46.2 32.45 46.05 32.2 46.2 31.55 47.3 28.45 47.05 25.15 L46.9 23.7 Q44.95 24.6 44.35 25.0 43.2 25.85 42.45 26.05 41.45 26.35 40.45 25.7 L39.95 25.2 35.0 31.45 40.7 39.0 Q42.2 38.25 44.0 38.55 45.9 38.8 47.15 40.05 48.1 40.95 48.95 42.65 50.85 46.85 49.15 49.65 48.0 51.45 45.3 52.05 43.5 52.5 41.65 52.05 39.75 51.55 38.35 50.35 36.9 49.15 36.4 47.3 35.8 45.4 36.35 43.75 L36.6 43.0 35.65 41.65 33.15 37.8 31.55 35.65 Q27.2 40.65 23.15 44.5 L21.0 46.25 Q19.65 47.0 18.05 46.85 16.4 46.8 15.05 45.95 13.7 45.05 13.0 43.6 12.25 42.1 12.5 40.6 12.75 38.6 14.9 36.35 L19.45 32.6 25.75 27.9 22.95 24.1 22.15 23.0 20.35 23.75 17.75 23.85 Q15.6 23.7 14.15 23.05 12.3 22.2 10.95 20.1 8.95 17.0 9.5 13.45 9.7 11.95 10.45 11.2 11.0 10.65 11.65 10.7 12.2 10.75 12.6 11.3 L13.0 12.4 13.1 13.05 13.95 15.3 14.65 16.65 15.95 17.6 17.3 18.2 Q19.2 18.7 20.7 17.4 22.15 16.05 21.9 14.15 L21.05 11.95 Q20.35 10.65 19.45 10.05 L19.25 9.95 18.1 9.45 M44.65 43.3 L43.15 42.9 42.05 43.05 Q41.4 43.3 40.9 44.0 L40.5 44.8 40.4 45.35 40.5 46.65 Q40.65 47.35 41.1 47.75 L41.1 47.85 Q41.8 48.55 42.7 48.7 L43.25 48.75 44.0 48.65 Q45.55 48.5 45.95 46.95 L46.0 45.95 Q46.0 44.75 45.4 44.05 L44.65 43.3" fill="#000000" fill-rule="evenodd" stroke="none"/>
    <path d="M44.65 43.3 L45.4 44.05 Q46.0 44.75 46.0 45.95 L45.95 46.95 Q45.55 48.5 44.0 48.65 L43.25 48.75 42.7 48.7 Q41.8 48.55 41.1 47.85 L41.1 47.75 Q40.65 47.35 40.5 46.65 L40.4 45.35 40.5 44.8 40.9 44.0 Q41.4 43.3 42.05 43.05 L43.15 42.9 44.65 43.3" fill="#ffffff" fill-rule="evenodd" stroke="none"/>
  </g>
</svg>
