<?xml version="1.0" encoding="UTF-8" standalone="no"?>
<svg xmlns:ffdec="https://www.free-decompiler.com/flash" xmlns:xlink="http://www.w3.org/1999/xlink" ffdec:objectType="shape" height="38.15px" width="48.25px" xmlns="http://www.w3.org/2000/svg">
  <g transform="matrix(1.0, 0.0, 0.0, 1.0, -7.4, -9.45)">
    <path d="M37.7 17.7 Q34.7 16.45 32.4 16.55 30.1 16.6 27.35 17.8 24.6 19.0 22.4 21.2 20.15 23.4 19.3 27.3 18.45 31.15 20.6 34.5 22.75 37.8 25.05 39.05 27.35 40.25 30.2 40.65 33.0 41.0 36.25 39.85 39.55 38.7 41.7 36.2 43.9 33.7 44.5 30.3 45.1 26.85 43.9 23.8 43.35 22.35 42.4 21.15 40.7 18.95 37.7 17.7 M49.6 37.35 Q46.8 41.7 44.1 43.35 41.4 44.95 38.4 46.15 35.35 47.3 31.9 47.55 28.45 47.8 24.95 46.55 21.65 45.35 18.85 43.05 13.8 38.85 10.8 31.55 L10.6 31.05 10.0 30.95 Q8.5 30.55 7.8 29.3 L7.45 28.6 7.4 27.8 Q7.5 26.2 8.55 25.2 9.0 24.8 10.2 24.1 L11.0 23.75 11.35 23.7 Q14.0 18.3 18.95 14.45 23.9 10.55 29.25 9.75 34.6 8.95 37.8 10.2 41.0 11.45 43.45 12.95 45.85 14.45 47.5 16.15 49.15 17.85 50.6 20.95 L51.65 23.15 52.8 23.2 Q53.8 23.45 54.4 24.0 L55.15 25.0 55.55 26.05 Q55.85 27.2 55.3 28.2 54.75 29.2 53.65 29.6 L52.95 29.85 Q52.35 32.95 49.6 37.35 M30.2 27.7 Q30.65 27.25 31.45 26.9 L34.05 26.8 35.05 27.7 Q35.45 28.35 35.3 28.95 35.0 29.9 34.25 29.9 L33.5 29.65 32.75 29.55 32.25 30.0 Q32.1 30.35 32.25 30.65 32.5 31.35 33.35 31.5 34.4 31.8 35.3 31.15 L36.2 30.1 36.45 28.6 Q36.45 26.65 35.55 25.95 L34.35 25.45 30.7 25.3 29.15 26.4 28.05 28.05 Q27.6 29.15 27.6 31.5 27.6 33.0 26.9 33.4 26.35 33.65 25.55 33.4 L24.55 32.7 Q24.25 32.35 24.15 31.6 23.85 28.65 25.05 26.15 26.4 23.5 29.0 22.25 30.15 21.75 31.4 21.65 L33.2 21.8 Q34.75 21.95 36.0 22.45 37.45 23.1 38.3 24.15 L39.0 25.6 39.45 27.3 39.45 29.1 39.2 30.75 Q38.8 32.35 37.45 33.45 36.15 34.55 34.45 34.8 32.65 35.05 31.25 34.35 29.6 33.6 29.15 31.95 28.95 31.15 29.1 30.2 29.3 28.65 30.2 27.7" fill="#000000" fill-rule="evenodd" stroke="none"/>
  </g>
</svg>
