<?xml version="1.0" encoding="UTF-8" standalone="no"?>
<svg xmlns:ffdec="https://www.free-decompiler.com/flash" xmlns:xlink="http://www.w3.org/1999/xlink" ffdec:objectType="shape" height="39.95px" width="50.45px" xmlns="http://www.w3.org/2000/svg">
  <g transform="matrix(1.0, 0.0, 0.0, 1.0, -8.15, -10.5)">
    <path d="M45.5 35.8 Q44.9 37.45 43.45 39.05 L39.85 42.45 Q33.45 47.4 25.85 49.8 L21.85 50.45 Q19.95 50.25 17.35 48.6 14.55 46.7 12.95 44.75 L10.95 41.75 Q9.35 39.25 8.9 36.6 L8.25 31.15 Q8.0 28.35 8.55 24.6 9.1 20.85 9.6 19.3 10.45 16.6 12.05 15.0 14.0 13.05 18.55 11.8 25.3 10.0 29.4 10.8 L31.8 11.25 34.7 11.45 Q37.65 12.0 39.5 15.5 L40.7 18.55 41.6 21.55 45.8 19.2 Q45.35 16.45 46.1 14.4 46.95 11.8 49.2 10.9 L51.6 10.5 Q53.35 10.5 54.4 11.0 56.35 11.95 56.8 14.1 L57.0 15.55 56.95 17.2 Q56.75 18.9 55.95 20.25 L56.05 20.3 Q57.7 21.3 58.25 23.2 L58.6 25.55 Q58.75 27.8 57.2 29.6 56.4 30.55 55.45 30.9 L52.5 30.75 51.65 30.2 50.1 29.05 50.05 29.05 48.6 29.95 46.1 31.35 46.1 31.65 Q46.1 34.25 45.5 35.8 M55.65 25.5 L55.65 25.3 Q55.55 24.3 55.1 23.65 54.8 23.2 54.0 22.85 L52.55 22.3 52.4 22.3 52.05 22.2 52.0 22.15 51.9 22.1 51.95 22.0 51.95 21.8 Q52.0 21.25 52.5 20.35 L52.65 20.1 52.7 20.0 53.9 17.4 53.9 16.2 Q53.9 15.55 53.5 15.0 L52.9 14.55 50.15 14.4 Q49.35 14.9 48.95 15.95 48.7 16.75 48.6 17.85 L48.7 20.05 48.8 20.5 48.9 21.25 48.95 21.45 49.05 21.7 48.1 22.25 42.95 24.5 44.5 26.25 44.7 26.45 45.3 27.55 Q46.75 26.55 48.45 25.6 L49.25 25.2 49.65 24.95 50.05 24.85 50.85 25.6 51.35 26.15 52.15 27.0 Q52.9 27.75 53.9 27.65 L53.95 27.65 54.35 27.5 Q55.45 27.1 55.6 26.0 L55.65 25.5 M12.4 35.55 Q13.2 38.4 15.65 41.6 18.05 44.75 19.7 45.5 L22.25 45.55 22.3 45.55 23.8 44.5 Q24.85 43.55 25.05 40.1 25.2 36.65 23.65 31.15 22.05 25.6 21.4 22.5 20.75 19.35 18.8 17.95 16.75 16.55 14.9 17.3 13.0 18.1 12.3 25.4 11.55 32.7 12.4 35.55" fill="#000000" fill-rule="evenodd" stroke="none"/>
    <path d="M44.5 26.25 L45.9 25.4 48.05 24.35 Q49.1 23.7 49.6 23.75 50.0 23.75 51.55 24.95 53.05 26.15 54.25 26.0 L55.65 25.5 55.6 26.0 Q55.45 27.1 54.35 27.5 L53.95 27.65 53.9 27.65 Q52.9 27.75 52.15 27.0 L51.35 26.15 50.85 25.6 50.05 24.85 49.65 24.95 49.25 25.2 48.45 25.6 Q46.75 26.55 45.3 27.55 L44.7 26.45 44.5 26.25 M12.4 35.55 Q11.55 32.7 12.3 25.4 13.0 18.1 14.9 17.3 16.75 16.55 18.8 17.95 20.75 19.35 21.4 22.5 22.05 25.6 23.65 31.15 25.2 36.65 25.05 40.1 24.85 43.55 23.8 44.5 L22.3 45.55 22.25 45.55 19.7 45.5 Q18.05 44.75 15.65 41.6 13.2 38.4 12.4 35.55 M17.2 34.3 Q16.8 34.35 16.6 33.85 L16.3 33.05 15.5 30.05 Q15.3 29.3 15.55 28.85 15.75 28.55 16.1 28.45 L16.8 28.55 17.4 29.55 17.95 32.35 17.95 33.1 17.65 33.85 17.2 34.3 M16.85 39.6 Q17.55 40.45 18.8 40.2 19.95 39.9 20.25 38.75 20.4 37.9 19.95 36.5 19.45 34.7 18.85 31.4 L17.85 26.25 17.45 25.1 Q16.8 24.1 15.55 24.3 14.4 24.45 14.05 25.65 13.9 26.2 14.0 26.95 L14.6 30.4 16.0 37.6 Q16.3 39.0 16.85 39.6" fill="#999999" fill-rule="evenodd" stroke="none"/>
  </g>
</svg>
