<?xml version="1.0" encoding="UTF-8" standalone="no"?>
<svg xmlns:ffdec="https://www.free-decompiler.com/flash" xmlns:xlink="http://www.w3.org/1999/xlink" ffdec:objectType="shape" height="40.85px" width="47.1px" xmlns="http://www.w3.org/2000/svg">
  <g transform="matrix(1.0, 0.0, 0.0, 1.0, -9.1, -9.95)">
    <path d="M37.95 11.0 Q40.15 10.05 42.55 9.95 45.05 9.85 47.2 10.7 48.8 11.3 50.45 12.65 54.5 16.0 55.75 21.1 57.0 26.15 54.85 31.05 52.1 37.3 44.75 40.5 L41.2 41.9 38.25 43.0 35.55 45.05 32.4 47.7 31.15 48.9 30.6 49.5 Q29.55 50.75 28.6 50.8 27.85 50.9 27.25 50.35 26.65 49.8 26.55 49.05 L26.6 48.0 26.75 47.0 Q26.75 45.95 26.05 44.8 25.1 43.35 23.2 42.15 22.2 41.45 19.7 40.25 L17.0 38.85 Q15.7 38.0 14.3 36.8 L11.7 34.3 Q9.7 31.8 9.25 28.3 8.8 25.0 9.75 21.65 11.6 15.25 16.4 12.25 18.95 10.7 22.0 10.55 25.1 10.4 27.6 11.85 30.15 13.35 31.7 16.35 34.25 12.7 37.95 11.0" fill="#000000" fill-rule="evenodd" stroke="none"/>
  </g>
</svg>
