<?xml version="1.0" encoding="UTF-8" standalone="no"?>
<svg xmlns:ffdec="https://www.free-decompiler.com/flash" xmlns:xlink="http://www.w3.org/1999/xlink" ffdec:objectType="shape" height="46.55px" width="50.2px" xmlns="http://www.w3.org/2000/svg">
  <g transform="matrix(1.0, 0.0, 0.0, 1.0, -6.7, -5.4)">
    <path d="M14.2 21.1 Q13.75 19.85 14.25 19.2 14.6 18.8 15.95 18.55 18.05 18.3 22.0 16.9 26.35 15.35 28.25 14.2 L29.75 13.15 Q30.7 12.55 31.4 12.25 L31.7 12.15 31.75 12.15 31.9 12.15 31.9 12.2 32.2 12.25 Q32.9 12.55 33.85 13.15 L35.35 14.2 Q37.25 15.35 41.6 16.9 45.55 18.3 47.65 18.55 49.0 18.8 49.35 19.2 49.85 19.85 49.4 21.1 L47.35 26.1 Q45.45 30.05 43.2 33.45 41.3 36.4 37.85 40.45 L35.5 42.95 33.25 44.55 31.9 45.15 31.8 45.15 31.7 45.15 Q31.1 45.05 30.35 44.55 L28.1 42.95 25.75 40.45 Q22.3 36.4 20.4 33.45 18.15 30.05 16.25 26.1 14.75 22.95 14.2 21.1 M28.55 50.75 Q21.45 46.5 16.0 38.65 11.55 32.15 8.25 23.0 6.75 19.0 6.7 16.35 6.55 14.65 7.35 13.85 8.1 13.15 10.0 13.15 21.8 12.6 31.15 5.85 L31.7 5.5 31.7 5.4 31.8 5.45 31.9 5.4 31.9 5.5 32.45 5.85 Q41.8 12.6 53.6 13.15 55.5 13.15 56.25 13.85 57.05 14.65 56.9 16.35 56.85 19.0 55.35 23.0 52.05 32.15 47.6 38.65 42.15 46.5 35.05 50.75 33.25 51.9 31.9 51.95 L31.8 51.95 31.7 51.95 Q30.35 51.9 28.55 50.75 M26.55 12.6 L23.85 14.15 Q19.15 16.5 11.3 17.6 11.85 20.2 13.15 23.35 L15.7 28.95 Q17.35 32.45 17.95 33.35 19.65 36.25 22.45 39.55 L25.25 42.75 Q27.8 45.25 30.8 46.95 L31.85 47.35 32.8 46.95 Q35.8 45.25 38.35 42.75 L41.15 39.55 Q43.95 36.25 45.65 33.35 L47.9 28.95 50.45 23.35 Q51.75 20.2 52.3 17.6 44.45 16.5 39.75 14.15 L37.05 12.6 Q33.6 10.5 31.8 8.65 30.0 10.5 26.55 12.6" fill="#000000" fill-rule="evenodd" stroke="none"/>
  </g>
</svg>
