<?xml version="1.0" encoding="UTF-8" standalone="no"?>
<svg xmlns:ffdec="https://www.free-decompiler.com/flash" xmlns:xlink="http://www.w3.org/1999/xlink" ffdec:objectType="shape" height="38.4px" width="43.6px" xmlns="http://www.w3.org/2000/svg">
  <g transform="matrix(1.0, 0.0, 0.0, 1.0, -9.9, -8.95)">
    <path d="M38.85 22.4 L37.45 22.25 Q35.55 21.95 34.45 21.1 33.0 20.05 32.7 18.4 32.55 18.0 32.55 17.15 32.45 14.15 32.9 12.75 33.4 11.25 34.6 10.1 35.9 8.95 37.45 8.95 39.15 8.9 40.55 9.95 41.95 11.05 42.55 12.65 42.95 13.9 42.95 16.0 L42.9 17.75 42.3 19.55 41.7 20.65 Q40.6 22.2 38.85 22.4 M53.35 24.05 L52.85 25.1 Q51.7 27.15 50.0 27.6 L48.7 27.8 47.2 27.7 Q45.75 27.3 44.95 25.95 44.25 24.75 44.1 23.1 L44.1 22.25 Q44.2 21.7 44.65 20.9 L45.4 19.55 Q46.8 17.65 49.15 17.65 51.45 17.65 52.8 19.55 L53.2 20.2 Q53.5 20.9 53.5 22.45 L53.35 24.05 M31.7 44.85 L29.6 46.25 Q27.4 47.4 25.0 47.35 22.45 47.35 20.55 45.95 18.5 44.55 17.65 41.95 17.0 39.85 17.2 36.9 17.65 32.2 20.3 28.75 23.1 24.95 27.4 23.85 L30.6 23.45 32.7 23.4 Q33.8 23.2 37.15 24.1 40.45 24.95 43.25 28.75 45.9 32.2 46.35 36.9 46.55 39.85 45.9 41.95 45.05 44.55 43.0 45.95 41.1 47.35 38.55 47.35 36.15 47.4 33.95 46.25 L31.85 44.85 31.8 44.8 31.7 44.85 M24.6 22.4 Q22.85 22.2 21.7 20.65 L21.15 19.55 20.55 17.75 20.5 16.0 Q20.5 13.9 20.85 12.65 21.45 11.05 22.9 9.95 24.25 8.9 25.95 8.95 27.55 8.95 28.85 10.1 30.0 11.25 30.55 12.75 31.0 14.15 30.85 17.15 L30.75 18.4 Q30.4 20.05 28.95 21.1 27.85 21.95 25.95 22.25 L24.6 22.4 M10.1 24.05 L9.9 22.45 Q9.9 20.9 10.2 20.2 L10.6 19.55 Q12.0 17.65 14.25 17.65 16.6 17.65 18.0 19.55 L18.8 20.9 Q19.25 21.7 19.3 22.25 L19.3 23.1 Q19.15 24.75 18.45 25.95 17.65 27.3 16.25 27.7 L14.75 27.8 13.4 27.6 Q11.75 27.15 10.55 25.1 L10.1 24.05" fill="#000000" fill-rule="evenodd" stroke="none"/>
  </g>
</svg>
