<?xml version="1.0" encoding="UTF-8" standalone="no"?>
<svg xmlns:ffdec="https://www.free-decompiler.com/flash" xmlns:xlink="http://www.w3.org/1999/xlink" ffdec:objectType="shape" height="34.5px" width="45.35px" xmlns="http://www.w3.org/2000/svg">
  <g transform="matrix(1.0, 0.0, 0.0, 1.0, -8.05, -10.9)">
    <path d="M34.5 32.1 L35.3 31.75 39.4 30.05 Q41.7 29.0 43.2 27.85 45.1 26.35 46.1 24.45 47.25 22.35 47.0 20.25 46.85 18.65 45.95 17.7 44.8 16.35 41.6 16.05 L37.25 15.8 35.35 15.85 31.75 16.15 29.05 16.65 27.05 17.25 Q24.15 18.25 21.55 20.0 L21.5 20.05 Q19.7 21.25 18.2 22.75 16.75 24.1 15.6 25.7 13.6 28.4 13.25 30.65 13.1 31.5 13.35 32.2 13.6 32.8 14.5 33.45 L15.35 33.95 17.0 34.6 19.05 35.0 19.65 35.05 22.35 35.05 25.1 34.75 27.45 34.35 30.05 33.7 32.4 32.9 34.5 32.1 M36.45 19.25 L36.65 20.15 Q36.6 20.95 36.1 21.5 L35.65 21.85 34.4 22.2 33.75 22.25 29.85 22.7 28.85 22.9 Q27.4 23.3 26.7 23.9 L25.7 25.05 Q25.4 25.6 25.45 25.9 L25.55 26.35 Q25.65 26.65 26.25 26.9 L28.3 27.0 28.85 26.95 Q30.45 26.7 32.05 25.9 L33.85 25.2 34.2 25.15 Q34.95 25.15 35.45 25.6 L35.9 26.15 Q36.45 27.25 35.8 28.1 L34.95 28.95 Q34.7 29.05 34.4 29.2 L33.0 29.85 31.1 30.5 31.2 31.45 Q31.15 32.15 30.55 32.6 30.0 33.1 29.3 33.1 28.65 33.1 28.1 32.6 L27.8 32.25 27.45 31.4 27.5 30.95 27.25 30.95 25.65 30.85 Q24.45 30.55 23.5 29.9 L22.85 29.3 Q22.25 28.8 21.95 28.0 21.5 26.8 22.05 25.5 L22.55 24.55 Q23.2 22.8 25.3 21.1 25.7 20.75 26.05 20.5 27.45 19.4 28.65 18.95 28.75 17.85 29.6 17.3 30.25 16.9 31.0 17.05 L31.35 17.1 31.4 17.1 32.35 17.85 32.5 18.1 34.0 17.95 35.15 18.1 35.7 18.35 36.45 19.25 M8.4 29.5 Q8.8 27.3 10.3 24.6 12.6 20.7 16.2 17.7 19.75 14.75 24.05 13.1 32.5 9.8 42.05 11.45 L45.6 12.4 Q46.95 13.0 48.2 13.9 49.65 15.0 50.35 16.3 51.5 17.35 52.15 19.55 53.3 23.35 53.4 28.75 53.5 30.7 53.05 31.95 52.65 33.05 51.45 34.3 48.2 37.95 42.1 40.3 L35.8 42.75 Q31.6 44.35 28.6 44.75 L23.6 45.35 17.0 45.1 Q14.55 44.8 13.3 44.1 10.8 42.7 9.25 38.1 8.1 34.7 8.05 32.0 8.05 30.75 8.35 30.1 L8.4 29.5 M34.55 39.6 Q39.75 37.9 42.6 36.3 45.75 34.5 48.35 31.85 L49.4 30.3 49.6 28.65 49.6 27.45 Q48.4 29.3 46.4 30.95 44.05 32.9 39.1 35.15 L34.45 37.1 32.3 37.85 27.7 39.15 27.55 39.15 22.1 39.8 17.15 39.4 15.45 39.0 13.95 38.5 13.95 38.55 Q14.5 39.7 15.15 40.15 L16.55 40.65 17.4 40.85 22.5 41.55 23.9 41.65 28.1 41.25 32.85 40.1 33.45 39.95 34.55 39.6" fill="#000000" fill-rule="evenodd" stroke="none"/>
    <path d="M37.25 15.8 L41.6 16.05 Q44.8 16.35 45.95 17.7 46.85 18.65 47.0 20.25 47.25 22.35 46.1 24.45 45.1 26.35 43.2 27.85 41.7 29.0 39.4 30.05 L35.3 31.75 34.5 32.1 34.6 31.15 34.95 28.95 35.8 28.1 Q36.45 27.25 35.9 26.15 L35.45 25.6 36.1 21.5 Q36.6 20.95 36.65 20.15 L36.45 19.25 36.5 18.9 36.9 16.9 37.25 15.8 M32.4 32.9 L30.05 33.7 27.45 34.35 27.8 32.25 28.1 32.6 Q28.65 33.1 29.3 33.1 30.0 33.1 30.55 32.6 31.15 32.15 31.2 31.45 L31.1 30.5 33.0 29.85 32.45 32.55 32.4 32.9 M22.35 35.05 L19.65 35.05 19.05 35.0 17.0 34.6 Q18.8 27.1 21.5 20.05 L21.55 20.0 Q24.15 18.25 27.05 17.25 L26.75 18.2 26.05 20.5 Q25.7 20.75 25.3 21.1 23.2 22.8 22.55 24.55 L22.05 25.5 Q21.5 26.8 21.95 28.0 22.25 28.8 22.85 29.3 L23.5 29.9 Q22.85 32.5 22.35 35.05 M15.35 33.95 L14.5 33.45 Q13.6 32.8 13.35 32.2 13.1 31.5 13.25 30.65 13.6 28.4 15.6 25.7 16.75 24.1 18.2 22.75 L16.45 28.55 15.6 33.05 15.35 33.95 M31.75 16.15 L35.35 15.85 35.15 18.1 34.0 17.95 32.5 18.1 32.35 17.85 31.4 17.1 31.35 17.1 31.75 16.15 M34.45 37.1 L39.1 35.15 Q44.05 32.9 46.4 30.95 48.4 29.3 49.6 27.45 L49.6 28.65 49.4 30.3 48.35 31.85 Q45.75 34.5 42.6 36.3 39.75 37.9 34.55 39.6 L34.5 39.2 34.45 37.1 M32.85 40.1 L28.1 41.25 28.05 40.95 27.7 39.15 32.3 37.85 32.5 38.7 32.85 40.1 M22.5 41.55 L17.4 40.85 17.15 39.55 17.15 39.4 22.1 39.8 22.5 41.55 M28.85 26.95 L29.85 22.7 33.75 22.25 34.4 22.2 33.85 25.2 32.05 25.9 Q30.45 26.7 28.85 26.95" fill="#999999" fill-rule="evenodd" stroke="none"/>
  </g>
</svg>
