<?xml version="1.0" encoding="UTF-8" standalone="no"?>
<svg xmlns:ffdec="https://www.free-decompiler.com/flash" xmlns:xlink="http://www.w3.org/1999/xlink" ffdec:objectType="shape" height="43.85px" width="52.0px" xmlns="http://www.w3.org/2000/svg">
  <g transform="matrix(1.0, 0.0, 0.0, 1.0, -5.9, -7.25)">
    <path d="M14.45 14.6 L13.35 14.55 Q13.1 14.1 13.7 13.5 L15.0 12.25 15.05 12.15 15.55 11.8 Q18.2 9.55 21.6 8.5 25.05 7.35 31.0 7.25 34.45 7.15 36.55 7.8 38.35 8.4 40.75 10.15 43.7 12.3 45.25 14.15 L47.35 17.15 49.4 16.2 Q50.6 15.65 51.7 15.25 L50.9 14.9 50.05 14.4 Q49.7 14.05 49.7 13.5 49.7 12.95 50.15 12.6 50.55 12.25 51.15 12.25 L52.3 12.25 53.4 12.45 54.7 12.5 56.8 12.75 57.35 13.25 Q58.1 13.9 57.8 14.9 L57.7 15.2 Q57.7 15.85 57.15 16.4 L56.8 16.65 54.45 20.1 53.55 21.15 52.7 21.05 Q52.25 20.8 52.15 20.1 L52.3 19.0 53.05 17.1 48.5 19.65 Q49.25 21.7 49.6 24.0 50.35 29.0 49.05 34.8 48.35 37.8 47.35 39.8 44.9 44.55 39.45 47.45 35.1 49.75 28.8 50.7 L21.85 51.05 20.7 50.75 Q20.0 50.35 20.15 49.75 20.2 49.15 21.05 48.8 L22.0 48.45 21.5 45.35 20.65 41.55 19.0 34.75 15.45 36.75 15.45 38.0 15.25 40.1 15.05 40.95 Q14.8 41.5 14.2 41.6 L13.75 41.6 13.7 42.1 13.2 43.05 Q12.75 43.45 12.2 43.5 L11.2 43.2 11.15 43.15 10.65 43.95 Q10.0 44.6 9.2 44.25 8.35 43.95 8.25 43.05 L8.35 42.1 8.8 40.85 9.0 39.8 9.0 39.75 Q8.05 39.55 7.7 38.55 7.45 37.8 7.75 37.15 L7.3 37.0 6.35 36.4 Q5.65 35.6 6.1 34.65 6.55 33.7 7.6 33.8 L7.7 33.8 Q7.3 33.0 7.85 32.25 8.45 31.45 9.45 31.6 L9.7 31.75 10.3 31.25 11.65 31.35 Q12.75 31.75 13.8 32.95 L14.05 33.25 Q15.75 32.35 18.15 31.15 L15.1 16.2 14.85 14.45 14.45 14.6 M31.65 11.3 L26.7 11.2 22.9 11.5 Q21.1 11.85 18.6 12.85 L16.75 13.65 20.8 29.85 35.35 22.7 41.9 19.55 43.1 19.05 42.85 18.6 Q41.4 16.15 38.55 13.9 36.8 12.4 35.2 11.9 L31.65 11.3 M27.9 47.3 Q29.55 47.0 32.0 46.1 36.2 44.45 38.35 43.05 41.65 40.8 43.15 37.95 44.1 36.15 44.7 33.4 46.05 26.75 44.4 21.9 L29.1 29.9 25.95 31.5 Q23.2 32.65 21.85 33.3 L21.7 33.4 25.2 47.4 25.3 47.7 27.9 47.3" fill="#000000" fill-rule="evenodd" stroke="none"/>
  </g>
</svg>
