<?xml version="1.0" encoding="UTF-8" standalone="no"?>
<svg xmlns:ffdec="https://www.free-decompiler.com/flash" xmlns:xlink="http://www.w3.org/1999/xlink" ffdec:objectType="shape" height="39.6px" width="41.3px" xmlns="http://www.w3.org/2000/svg">
  <g transform="matrix(1.0, 0.0, 0.0, 1.0, -10.65, -8.8)">
    <path d="M18.05 22.8 Q17.0 25.15 16.75 26.8 16.4 29.35 17.2 32.4 18.0 35.4 20.0 37.25 L22.95 39.75 Q23.9 40.45 25.9 41.15 29.0 42.25 31.05 42.5 35.1 42.95 39.15 40.7 42.75 38.7 45.5 35.15 L46.9 33.45 Q47.75 32.6 48.75 32.4 50.0 32.15 51.0 33.15 52.05 34.1 51.95 35.3 51.8 36.25 50.8 37.65 46.45 43.5 40.95 46.2 34.6 49.45 28.2 47.95 L24.2 46.65 Q21.8 45.85 20.5 45.05 18.1 43.55 15.55 40.0 12.9 36.25 11.7 33.15 10.2 28.95 10.8 25.35 11.15 23.5 12.25 21.2 14.95 14.8 18.75 12.3 20.95 10.9 25.75 9.7 L31.45 8.8 Q36.8 8.65 41.15 12.2 45.25 15.6 46.55 20.9 47.7 25.75 45.8 29.35 44.9 30.95 43.15 32.7 40.1 35.75 37.2 36.65 L33.4 37.15 29.05 36.7 Q27.1 36.15 24.8 34.35 22.45 32.5 22.0 29.3 21.5 26.05 22.2 24.05 22.85 22.1 24.35 20.7 25.85 19.4 27.85 18.8 L31.8 18.55 Q35.55 19.2 37.65 22.1 38.9 23.95 38.6 25.45 38.4 26.45 37.7 27.05 L36.2 28.05 Q35.4 28.35 34.5 27.85 33.6 27.35 32.7 25.9 31.75 24.4 30.55 24.45 29.35 24.5 28.6 25.15 27.95 25.8 27.7 26.7 27.4 27.55 27.8 28.9 28.2 30.25 30.85 30.95 33.45 31.6 35.45 30.9 36.65 30.5 38.0 29.45 39.8 28.05 40.5 26.55 41.55 24.4 40.85 22.0 40.25 19.9 38.5 17.95 36.45 15.7 34.3 14.85 32.1 14.0 27.85 14.85 23.6 15.7 21.7 17.45 19.75 19.2 18.05 22.8" fill="#000000" fill-rule="evenodd" stroke="none"/>
  </g>
</svg>
