<?xml version="1.0" encoding="UTF-8" standalone="no"?>
<svg xmlns:ffdec="https://www.free-decompiler.com/flash" xmlns:xlink="http://www.w3.org/1999/xlink" ffdec:objectType="shape" height="42.65px" width="42.6px" xmlns="http://www.w3.org/2000/svg">
  <g transform="matrix(1.0, 0.0, 0.0, 1.0, -10.4, -7.35)">
    <path d="M42.95 10.85 L43.45 11.1 44.5 11.75 46.05 12.8 47.6 11.8 48.6 11.3 Q50.55 11.0 51.35 12.2 52.1 13.3 51.5 14.75 L50.45 16.3 49.9 16.9 49.8 16.9 50.8 18.75 50.95 18.95 52.7 23.6 Q53.45 27.35 52.4 32.9 51.3 38.7 49.05 41.5 L48.15 42.55 45.15 45.1 42.45 47.05 41.65 47.55 Q40.0 48.35 37.7 49.0 33.6 50.25 30.5 49.9 L28.65 49.5 25.5 48.45 Q20.7 46.65 18.75 45.1 L17.9 44.2 17.3 43.5 16.55 43.85 15.7 44.05 15.65 44.05 Q14.0 44.2 12.85 42.9 11.7 41.7 12.0 40.1 L12.0 39.9 Q12.2 39.0 13.0 37.95 L12.6 37.15 12.35 36.9 Q9.6 31.6 10.7 24.3 11.25 20.5 12.75 17.55 15.15 12.95 19.9 10.4 21.45 9.5 23.65 8.7 31.65 6.0 38.6 8.7 L40.65 9.65 42.95 10.85 M22.85 39.4 L23.35 39.8 24.85 41.1 Q27.95 43.15 31.25 43.5 37.15 44.2 42.6 39.35 L44.75 37.0 Q45.8 35.3 46.45 31.6 L46.95 27.3 46.5 24.15 46.45 24.0 45.4 21.8 45.0 21.4 44.15 22.15 42.6 23.4 34.9 29.3 Q31.8 31.6 29.35 33.65 26.0 36.1 23.55 38.25 L22.5 39.15 22.6 39.2 22.85 39.4 M36.7 15.25 Q34.7 14.45 32.45 14.3 26.6 13.8 21.85 17.35 20.15 18.6 19.15 20.15 18.25 21.55 17.85 23.9 L17.7 24.4 Q17.3 27.05 17.35 28.75 17.5 30.65 18.15 32.35 18.2 32.75 18.4 33.15 L20.7 31.35 Q26.4 26.75 33.6 21.55 L40.0 17.05 38.75 16.3 37.85 15.85 36.7 15.25" fill="#000000" fill-rule="evenodd" stroke="none"/>
  </g>
</svg>
