<?xml version="1.0" encoding="UTF-8" standalone="no"?>
<svg xmlns:ffdec="https://www.free-decompiler.com/flash" xmlns:xlink="http://www.w3.org/1999/xlink" ffdec:objectType="shape" height="43.85px" width="76.7px" xmlns="http://www.w3.org/2000/svg">
  <g transform="matrix(1.0, 0.0, 0.0, 1.0, 0.25, 2.55)">
    <path d="M22.8 0.0 L52.95 0.0 54.6 3.6 Q55.55 6.25 55.35 8.5 L54.65 11.65 53.95 13.7 52.9 15.35 Q50.5 18.25 47.6 19.6 45.8 20.5 43.9 20.75 L43.3 20.25 42.15 18.85 45.05 17.25 Q47.5 15.55 48.1 13.7 L48.5 11.95 Q49.05 7.15 47.0 4.3 45.25 1.9 41.85 0.85 39.7 0.15 35.6 0.05 32.65 0.05 31.35 0.6 30.15 1.05 29.0 2.05 26.9 3.9 26.15 6.05 25.65 7.35 25.5 9.0 25.25 11.05 25.55 12.45 25.9 13.8 27.0 15.25 28.5 17.2 30.8 18.45 L31.9 18.95 31.75 19.15 30.85 19.9 30.0 20.7 Q25.9 19.05 24.45 18.2 20.8 16.05 19.5 12.95 18.05 9.6 19.45 4.9 20.1 3.1 20.6 2.4 L22.8 0.0 M55.0 0.0 L66.95 0.0 Q68.75 3.4 68.4 7.65 68.1 11.3 66.3 15.3 L64.85 18.05 Q62.25 21.9 57.4 23.7 L53.5 24.8 52.95 23.65 Q52.1 22.55 50.95 22.4 L49.0 22.7 47.05 23.6 45.5 22.1 45.0 21.75 44.85 21.65 Q46.45 21.4 48.05 20.75 51.4 19.4 53.8 16.5 55.1 14.95 55.8 13.35 L56.65 10.5 57.1 7.85 Q57.25 5.8 56.25 3.05 L55.0 0.0 M68.4 0.0 L75.1 0.0 75.1 27.1 74.8 27.45 73.05 29.05 70.95 30.15 67.1 31.85 Q61.3 33.95 55.35 32.65 L52.0 31.75 51.55 30.0 51.45 29.75 52.25 29.05 53.2 27.9 53.7 26.35 Q55.85 26.0 58.15 25.05 62.9 23.0 65.5 19.65 67.65 16.9 69.0 11.95 69.85 9.15 69.85 6.95 69.9 4.3 68.4 0.0 M75.1 29.25 L75.1 40.8 0.25 40.8 0.25 33.45 0.55 33.55 Q5.85 35.65 12.55 35.4 L13.85 35.35 13.95 35.45 14.3 36.2 15.6 37.25 16.0 37.55 Q17.2 38.35 19.5 38.9 L25.2 39.2 Q27.8 38.85 29.95 37.55 L31.0 38.0 33.55 38.3 Q34.95 38.05 35.75 37.1 L36.4 36.15 37.2 35.55 Q38.0 35.4 38.7 36.2 L39.8 37.55 41.4 38.2 43.55 37.9 Q44.1 37.45 44.3 37.4 L45.3 37.3 48.3 36.95 Q50.2 36.45 51.15 35.3 51.95 34.3 52.05 33.05 55.5 34.35 59.2 34.55 63.55 34.8 67.35 33.4 L70.85 31.85 73.75 30.3 75.1 29.25 M0.25 30.95 L0.25 0.0 5.9 0.0 5.8 0.15 Q4.7 2.1 4.35 5.1 3.75 9.75 4.7 13.4 5.85 17.8 8.95 20.45 L12.4 22.75 14.3 23.7 Q13.65 24.4 13.4 25.3 L13.3 26.15 Q13.2 27.1 13.4 27.8 L13.8 28.65 Q13.05 29.25 12.75 30.05 L12.55 31.4 Q12.45 32.8 12.65 33.45 L12.7 33.55 Q6.35 33.45 1.4 31.45 L0.25 30.95 M8.15 0.0 L20.05 0.0 Q19.05 0.95 18.45 2.25 L17.75 4.1 Q15.95 10.6 18.3 14.8 19.85 17.6 23.3 19.45 25.3 20.5 28.95 21.65 L27.75 22.7 27.25 22.95 26.9 22.9 26.4 22.75 26.1 22.55 Q25.4 22.2 24.4 22.2 L22.8 22.7 22.05 23.2 Q21.4 23.65 21.0 24.35 20.2 23.2 19.2 22.85 L18.1 22.65 15.95 22.75 14.4 21.9 Q10.7 19.75 9.3 18.2 7.35 16.1 6.5 12.75 5.9 10.0 6.05 6.6 6.15 2.7 7.7 0.7 L8.15 0.0 M22.6 34.55 L20.8 34.15 22.15 33.8 22.6 34.55 M22.9 29.8 L23.1 29.9 Q22.4 30.8 22.15 32.75 L19.3 33.15 19.2 32.8 Q19.15 32.45 19.45 31.95 L20.15 30.7 20.65 30.15 21.1 29.5 21.55 28.7 Q22.0 29.3 22.9 29.8 M35.6 19.85 L40.15 19.55 40.6 20.55 40.7 20.75 40.4 20.85 Q40.25 21.1 40.5 21.35 L41.0 21.5 41.1 21.55 41.25 21.75 Q39.95 22.0 39.55 23.15 39.3 24.0 39.7 24.85 L40.65 26.3 42.1 27.65 Q43.25 28.5 44.9 29.35 L46.4 30.0 48.7 30.6 48.8 30.95 48.9 32.25 48.55 33.2 Q48.2 33.65 47.25 33.85 L44.4 34.1 42.9 33.85 Q41.9 33.85 41.6 34.55 40.05 32.5 37.65 32.2 L35.55 32.35 Q34.6 32.75 33.5 34.15 L33.25 34.5 33.3 34.05 Q33.3 33.4 32.9 33.0 32.15 32.2 30.9 32.55 30.35 32.7 29.0 33.5 L27.5 34.25 27.4 33.95 27.0 33.4 25.6 32.55 25.35 32.35 25.25 32.05 25.3 31.25 25.5 30.5 25.6 30.4 26.2 30.4 28.4 30.2 29.95 29.5 30.7 29.05 Q32.95 27.55 33.5 25.55 L33.55 24.15 Q33.4 23.4 32.75 23.1 L34.6 20.9 35.35 19.85 35.4 19.85 35.6 19.85 M31.1 10.95 Q30.6 9.65 31.45 8.0 32.3 5.95 34.05 5.35 L36.35 5.15 39.8 5.55 40.95 5.9 Q42.2 6.45 42.75 7.1 43.4 7.85 43.6 9.1 L43.55 11.35 43.4 11.9 42.95 12.5 Q40.5 15.15 36.5 15.0 33.5 14.85 31.9 12.85 L31.6 12.35 31.4 11.8 31.1 10.95" fill="#999999" fill-rule="evenodd" stroke="none"/>
    <path d="M20.05 0.0 L22.65 -1.65 23.15 -1.7 Q23.7 -1.6 23.5 -1.0 23.45 -0.65 23.05 -0.25 L22.8 0.0 20.6 2.4 Q20.1 3.1 19.45 4.9 18.05 9.6 19.5 12.95 20.8 16.05 24.45 18.2 25.9 19.05 30.0 20.7 L30.85 19.9 31.75 19.15 31.9 18.95 30.8 18.45 Q28.5 17.2 27.0 15.25 25.9 13.8 25.55 12.45 25.25 11.05 25.5 9.0 25.65 7.35 26.15 6.05 26.9 3.9 29.0 2.05 30.15 1.05 31.35 0.6 32.65 0.05 35.6 0.05 39.7 0.15 41.85 0.85 45.25 1.9 47.0 4.3 49.05 7.15 48.5 11.95 L48.1 13.7 Q47.5 15.55 45.05 17.25 L42.15 18.85 43.3 20.25 43.9 20.75 Q45.8 20.5 47.6 19.6 50.5 18.25 52.9 15.35 L53.95 13.7 54.65 11.65 55.35 8.5 Q55.55 6.25 54.6 3.6 L52.95 0.0 52.4 -1.0 Q51.95 -1.75 52.2 -2.2 L52.75 -2.55 53.4 -2.45 54.25 -1.45 55.0 0.0 56.25 3.05 Q57.25 5.8 57.1 7.85 L56.65 10.5 55.8 13.35 Q55.1 14.95 53.8 16.5 51.4 19.4 48.05 20.75 46.45 21.4 44.85 21.65 L45.0 21.75 45.5 22.1 47.05 23.6 49.0 22.7 50.95 22.4 Q52.1 22.55 52.95 23.65 L53.5 24.8 57.4 23.7 Q62.25 21.9 64.85 18.05 L66.3 15.3 Q68.1 11.3 68.4 7.65 68.75 3.4 66.95 0.0 L66.9 -0.1 Q66.5 -0.8 66.5 -1.25 L66.75 -1.8 Q66.95 -2.1 67.25 -2.05 67.65 -2.0 67.95 -1.25 L68.4 0.0 Q69.9 4.3 69.85 6.95 69.85 9.15 69.0 11.95 67.65 16.9 65.5 19.65 62.9 23.0 58.15 25.05 55.85 26.0 53.7 26.35 L53.2 27.9 52.25 29.05 51.45 29.75 51.55 30.0 52.0 31.75 55.35 32.65 Q61.3 33.95 67.1 31.85 L70.95 30.15 73.05 29.05 74.8 27.45 75.1 27.1 75.35 26.8 76.15 26.7 Q76.8 27.15 76.1 28.05 L75.1 29.25 73.75 30.3 70.85 31.85 67.35 33.4 Q63.55 34.8 59.2 34.55 55.5 34.35 52.05 33.05 51.95 34.3 51.15 35.3 50.2 36.45 48.3 36.95 L45.3 37.3 44.3 37.4 Q44.1 37.45 43.55 37.9 L41.4 38.2 39.8 37.55 38.7 36.2 Q38.0 35.4 37.2 35.55 L36.4 36.15 35.75 37.1 Q34.95 38.05 33.55 38.3 L31.0 38.0 29.95 37.55 Q27.8 38.85 25.2 39.2 L19.5 38.9 Q17.2 38.35 16.0 37.55 L15.6 37.25 14.3 36.2 13.95 35.45 13.85 35.35 12.55 35.4 Q5.85 35.65 0.55 33.55 L0.25 33.45 -0.05 33.3 -0.05 30.85 0.25 30.95 1.4 31.45 Q6.35 33.45 12.7 33.55 L12.65 33.45 Q12.45 32.8 12.55 31.4 L12.75 30.05 Q13.05 29.25 13.8 28.65 L13.4 27.8 Q13.2 27.1 13.3 26.15 L13.4 25.3 Q13.65 24.4 14.3 23.7 L12.4 22.75 8.95 20.45 Q5.85 17.8 4.7 13.4 3.75 9.75 4.35 5.1 4.7 2.1 5.8 0.15 L5.9 0.0 Q6.35 -0.8 6.95 -1.0 L7.8 -0.95 8.2 -0.3 8.15 0.0 7.7 0.7 Q6.15 2.7 6.05 6.6 5.9 10.0 6.5 12.75 7.35 16.1 9.3 18.2 10.7 19.75 14.4 21.9 L15.95 22.75 18.1 22.65 19.2 22.85 Q20.2 23.2 21.0 24.35 21.4 23.65 22.05 23.2 L22.8 22.7 24.4 22.2 Q25.4 22.2 26.1 22.55 L26.4 22.75 26.9 22.9 27.25 22.95 27.75 22.7 28.95 21.65 Q25.3 20.5 23.3 19.45 19.85 17.6 18.3 14.8 15.95 10.6 17.75 4.1 L18.45 2.25 Q19.05 0.95 20.05 0.0 M31.1 10.95 L31.4 11.8 31.6 12.35 31.9 12.85 Q33.5 14.85 36.5 15.0 40.5 15.15 42.95 12.5 L43.4 11.9 43.55 11.35 43.6 9.1 Q43.4 7.85 42.75 7.1 42.2 6.45 40.95 5.9 L39.8 5.55 36.35 5.15 34.05 5.35 Q32.3 5.95 31.45 8.0 30.6 9.65 31.1 10.95 M35.6 19.85 L35.4 19.85 35.35 19.85 34.6 20.9 32.75 23.1 Q33.4 23.4 33.55 24.15 L33.5 25.55 Q32.95 27.55 30.7 29.05 L29.95 29.5 28.4 30.2 26.2 30.4 25.6 30.4 25.5 30.5 25.3 31.25 25.25 32.05 25.35 32.35 25.6 32.55 27.0 33.4 27.4 33.95 27.5 34.25 29.0 33.5 Q30.35 32.7 30.9 32.55 32.15 32.2 32.9 33.0 33.3 33.4 33.3 34.05 L33.25 34.5 33.5 34.15 Q34.6 32.75 35.55 32.35 L37.65 32.2 Q40.05 32.5 41.6 34.55 41.9 33.85 42.9 33.85 L44.4 34.1 47.25 33.85 Q48.2 33.65 48.55 33.2 L48.9 32.25 48.8 30.95 48.7 30.6 46.4 30.0 44.9 29.35 Q43.25 28.5 42.1 27.65 L40.65 26.3 39.7 24.85 Q39.3 24.0 39.55 23.15 39.95 22.0 41.25 21.75 L41.1 21.55 41.0 21.5 40.5 21.35 Q40.25 21.1 40.4 20.85 L40.7 20.75 40.6 20.55 40.15 19.55 35.6 19.85 M22.9 29.8 Q22.0 29.3 21.55 28.7 L21.1 29.5 20.65 30.15 20.15 30.7 19.45 31.95 Q19.15 32.45 19.2 32.8 L19.3 33.15 22.15 32.75 Q22.4 30.8 23.1 29.9 L22.9 29.8 M22.6 34.55 L22.15 33.8 20.8 34.15 22.6 34.55" fill="#ffffff" fill-rule="evenodd" stroke="none"/>
    <path d="M22.8 0.0 L52.95 0.0 M55.0 0.0 L66.95 0.0 M68.4 0.0 L75.1 0.0 75.1 27.1 M75.1 29.25 L75.1 40.8 0.25 40.8 0.25 33.45 M0.25 30.95 L0.25 0.0 5.9 0.0 M8.15 0.0 L20.05 0.0" fill="none" stroke="#5f645e" stroke-linecap="round" stroke-linejoin="round" stroke-opacity="0.49803922" stroke-width="1.0"/>
    <path d="M40.45 14.85 L39.9 13.9 40.0 13.95 Q41.7 14.75 43.45 14.35 L44.45 14.05 Q44.2 14.8 43.3 15.3 L41.8 15.55 Q40.95 15.4 40.45 14.85 M39.05 22.65 L39.75 23.15 Q40.5 24.0 40.65 25.2 40.85 26.45 40.3 27.45 L39.85 28.05 Q39.25 28.75 38.25 28.8 37.25 28.9 36.6 28.15 36.15 27.65 36.1 26.85 36.1 26.15 36.5 25.55 36.9 25.0 37.45 24.95 L38.0 25.1 38.25 25.55 38.0 26.25 37.85 26.55 38.0 26.85 38.4 26.9 38.85 26.25 Q39.0 25.5 38.6 24.8 L38.15 24.35 Q37.8 24.2 37.1 24.35 36.45 24.55 36.3 24.7 L35.75 25.5 35.35 27.3 35.35 27.95 Q35.45 28.4 35.9 28.85 L36.4 29.3 Q37.1 29.8 37.95 29.8 L39.15 29.7 Q39.55 29.6 39.95 29.15 L40.5 28.55 40.6 28.35 40.85 27.85 41.05 27.4 Q41.3 27.85 41.05 28.8 L40.8 29.7 Q40.4 30.55 39.4 31.0 L37.5 31.25 35.75 30.8 34.85 30.2 Q33.95 29.4 33.7 28.8 33.45 28.25 33.45 27.2 33.5 25.65 34.05 24.55 34.65 23.15 35.95 22.7 L36.9 22.45 39.05 22.65 M36.95 16.35 L35.65 16.6 34.9 16.8 34.5 16.65 34.4 16.3 34.75 15.9 36.2 15.1 36.65 14.8 36.65 14.6 36.95 13.8 37.1 13.55 37.2 13.55 37.3 13.45 37.35 13.5 37.4 13.45 37.55 13.55 37.6 13.55 37.75 13.8 38.0 14.4 38.05 14.6 38.05 14.8 38.5 15.1 39.95 15.9 40.3 16.3 40.2 16.65 39.8 16.8 39.05 16.6 37.75 16.35 37.35 16.3 36.95 16.35 M34.25 14.85 Q33.75 15.4 32.9 15.55 L31.4 15.3 Q30.45 14.8 30.25 13.9 L30.55 14.05 34.2 14.3 34.75 14.1 34.25 14.85" fill="#ffffff" fill-rule="evenodd" stroke="none"/>
    <path d="M32.2 18.15 Q30.7 17.5 29.55 16.25 28.55 15.25 28.15 14.3 27.7 13.4 27.7 11.85 27.7 10.7 28.0 9.65 L27.9 9.35 27.4 7.05 27.3 5.85 Q27.5 5.25 27.8 5.0 L28.55 4.7 29.8 4.65 31.05 4.7 Q31.7 4.15 32.4 3.8 34.05 2.75 35.95 2.5 L37.1 2.5 38.25 2.5 Q40.3 2.75 42.0 3.9 L43.15 4.7 44.45 4.65 45.65 4.7 46.45 5.0 Q46.75 5.25 46.9 5.85 L46.8 7.05 46.35 9.35 46.25 9.65 46.5 11.85 Q46.5 13.4 46.05 14.3 45.65 15.25 44.65 16.25 43.5 17.5 42.05 18.15 L40.7 18.55 43.5 21.4 Q46.0 24.0 47.85 24.85 48.3 24.3 49.0 24.0 L50.45 23.9 Q51.35 24.0 51.9 24.6 52.35 25.15 52.45 26.05 52.5 26.9 52.1 27.65 51.7 28.45 50.95 28.85 50.3 29.35 49.5 29.45 50.35 30.25 50.75 31.2 51.3 32.55 50.95 33.7 50.55 34.95 49.2 35.75 48.1 36.45 46.6 36.55 L43.5 36.35 43.25 36.75 42.3 37.5 41.1 37.6 39.8 36.5 38.75 35.1 37.75 34.55 37.1 34.55 36.5 34.55 35.5 35.1 34.4 36.5 33.15 37.6 31.95 37.5 31.0 36.75 30.75 36.4 29.25 37.15 Q26.65 38.4 23.65 38.5 20.65 38.6 18.0 37.55 15.8 36.65 14.95 35.35 14.35 34.4 14.25 32.95 14.05 30.7 15.0 29.45 L15.35 28.8 15.1 28.25 Q14.45 27.3 14.65 26.15 14.85 24.9 15.75 24.2 16.6 23.55 17.8 23.65 19.05 23.8 19.75 24.65 20.55 25.65 20.45 27.2 20.4 28.8 19.6 29.95 L18.55 31.15 Q18.0 31.85 18.0 32.5 18.0 33.85 20.05 34.6 22.05 35.35 24.35 35.3 23.55 34.6 23.25 33.7 22.95 32.55 23.45 31.2 23.9 30.25 24.75 29.45 23.95 29.35 23.25 28.85 22.55 28.45 22.15 27.65 21.75 26.9 21.8 26.05 21.85 25.15 22.35 24.6 22.85 24.0 23.8 23.9 L25.2 24.0 26.35 24.85 Q28.25 24.0 30.7 21.4 L33.55 18.55 32.2 18.15 M40.45 14.85 Q40.95 15.4 41.8 15.55 L43.3 15.3 Q44.2 14.8 44.45 14.05 L43.45 14.35 Q41.7 14.75 40.0 13.95 L39.9 13.9 40.45 14.85 M43.55 27.05 L45.25 27.3 44.45 26.3 42.45 23.6 43.55 27.05 M34.25 14.85 L34.75 14.1 34.2 14.3 30.55 14.05 30.25 13.9 Q30.45 14.8 31.4 15.3 L32.9 15.55 Q33.75 15.4 34.25 14.85 M36.95 16.35 L37.35 16.3 37.75 16.35 39.05 16.6 39.8 16.8 40.2 16.65 40.3 16.3 39.95 15.9 38.5 15.1 38.05 14.8 38.05 14.6 38.0 14.4 37.75 13.8 37.6 13.55 37.55 13.55 37.4 13.45 37.35 13.5 37.3 13.45 37.2 13.55 37.1 13.55 36.95 13.8 36.65 14.6 36.65 14.8 36.2 15.1 34.75 15.9 34.4 16.3 34.5 16.65 34.9 16.8 35.65 16.6 36.95 16.35 M39.05 22.65 L36.9 22.45 35.95 22.7 Q34.65 23.15 34.05 24.55 33.5 25.65 33.45 27.2 33.45 28.25 33.7 28.8 33.95 29.4 34.85 30.2 L35.75 30.8 37.5 31.25 39.4 31.0 Q40.4 30.55 40.8 29.7 L41.05 28.8 Q41.3 27.85 41.05 27.4 L40.85 27.85 40.6 28.35 40.5 28.55 39.95 29.15 Q39.55 29.6 39.15 29.7 L37.95 29.8 Q37.1 29.8 36.4 29.3 L35.9 28.85 Q35.45 28.4 35.35 27.95 L35.35 27.3 35.75 25.5 36.3 24.7 Q36.45 24.55 37.1 24.35 37.8 24.2 38.15 24.35 L38.6 24.8 Q39.0 25.5 38.85 26.25 L38.4 26.9 38.0 26.85 37.85 26.55 38.0 26.25 38.25 25.55 38.0 25.1 37.45 24.95 Q36.9 25.0 36.5 25.55 36.1 26.15 36.1 26.85 36.15 27.65 36.6 28.15 37.25 28.9 38.25 28.8 39.25 28.75 39.85 28.05 L40.3 27.45 Q40.85 26.45 40.65 25.2 40.5 24.0 39.75 23.15 L39.05 22.65 M30.65 27.05 Q31.05 25.55 31.8 23.6 L29.8 26.3 29.0 27.3 30.65 27.05" fill="#000000" fill-rule="evenodd" stroke="none"/>
  </g>
</svg>
