<?xml version="1.0" encoding="UTF-8" standalone="no"?>
<svg xmlns:ffdec="https://www.free-decompiler.com/flash" xmlns:xlink="http://www.w3.org/1999/xlink" ffdec:objectType="shape" height="39.6px" width="75.45px" xmlns="http://www.w3.org/2000/svg">
  <g transform="matrix(1.0, 0.0, 0.0, 1.0, 0.75, -1.7)">
    <path d="M72.85 8.9 L74.2 11.7 Q74.8 13.6 74.65 15.7 74.55 17.65 73.95 19.25 72.8 22.0 69.6 24.05 64.7 27.4 57.4 27.8 50.65 28.3 45.1 26.15 42.85 25.3 41.35 24.15 L41.15 24.2 39.45 24.75 37.6 25.55 Q36.35 25.95 35.75 25.1 35.35 24.55 35.6 23.75 L36.25 22.55 38.35 19.5 Q38.15 18.4 38.1 16.9 38.1 14.0 38.8 12.1 39.45 10.45 40.9 8.75 45.5 3.2 51.95 2.0 L57.8 1.7 64.2 2.1 Q67.7 2.75 69.95 4.8 71.3 6.1 72.85 8.9 M65.25 6.3 Q61.85 5.25 58.45 5.3 L55.2 5.45 52.85 5.45 Q48.3 5.7 43.95 10.7 42.8 12.0 42.35 13.0 41.6 14.7 41.7 16.6 L41.8 17.95 41.9 18.5 42.0 18.8 Q42.3 19.85 43.15 20.7 44.4 22.05 47.1 22.95 51.45 24.5 56.2 24.35 60.9 24.15 65.2 22.4 69.5 20.6 70.65 17.75 71.45 15.55 70.6 12.95 70.1 11.25 68.35 8.7 67.7 7.7 67.1 7.2 66.55 6.8 65.25 6.3" fill="#999999" fill-rule="evenodd" stroke="none"/>
    <path d="M64.45 11.9 Q64.7 12.55 64.4 13.15 L63.25 14.2 61.15 15.5 61.4 17.05 61.8 18.7 62.1 19.55 62.2 20.4 Q62.2 21.3 61.45 21.7 L60.1 21.75 58.9 21.0 56.35 18.75 54.85 20.1 Q53.75 21.0 53.1 21.3 51.8 21.75 51.0 21.05 50.3 20.35 50.65 19.45 L51.25 18.6 51.4 18.4 52.0 16.7 52.45 15.8 52.55 15.55 51.1 14.25 50.4 13.6 Q50.05 13.15 50.1 12.55 50.15 11.95 50.6 11.6 50.9 11.35 52.05 11.25 L54.85 11.1 54.9 10.85 Q55.55 9.25 56.3 8.2 56.65 7.55 57.1 7.25 57.65 6.9 58.25 7.1 58.75 7.35 59.05 8.5 L59.2 9.35 59.45 9.9 59.8 10.75 62.15 10.65 63.35 10.85 Q63.65 10.95 63.85 11.15 L64.45 11.9 M2.4 19.45 Q3.9 14.45 7.4 11.15 L7.2 10.0 7.15 9.3 7.0 8.6 6.8 7.25 6.8 6.55 6.75 6.15 Q6.85 5.55 7.1 5.15 7.35 4.65 7.9 4.5 L8.7 4.45 11.2 4.9 12.85 5.6 14.5 6.4 15.05 6.85 15.2 6.75 21.45 6.25 Q26.1 6.8 29.0 9.45 30.4 10.8 31.35 12.6 L33.85 12.85 37.2 13.7 Q38.6 14.1 38.95 14.75 39.2 15.3 39.0 16.0 L38.55 16.85 37.75 17.5 36.05 18.7 34.55 20.1 33.45 20.65 33.2 20.7 Q33.25 23.7 32.45 26.5 31.75 29.05 30.35 31.1 L37.2 29.1 40.35 28.3 40.35 28.1 Q40.2 27.1 40.45 26.3 40.75 25.35 41.5 24.95 42.75 24.25 43.85 25.15 44.85 25.9 44.95 27.25 L44.85 27.85 46.45 28.3 Q47.75 28.85 48.6 30.25 49.4 31.65 49.25 32.95 49.0 34.9 46.8 35.95 45.45 36.6 42.95 36.85 L18.65 40.05 18.2 40.75 17.55 41.3 -0.75 39.15 -0.75 29.0 Q0.3 28.3 1.45 27.7 1.8 27.5 2.2 27.4 1.25 23.7 2.4 19.45 M11.45 22.85 L11.25 24.25 Q11.15 25.75 12.25 26.7 L13.3 27.3 Q14.95 27.85 16.45 27.0 L17.25 26.7 18.35 27.95 Q19.25 28.5 21.15 28.3 L22.0 28.1 22.55 27.6 23.4 26.6 Q23.75 26.05 23.65 25.35 L23.4 24.95 22.65 24.9 21.9 25.5 21.1 26.05 Q20.55 26.3 19.9 26.05 L18.95 25.25 18.3 24.1 17.2 24.05 16.6 24.65 15.8 25.15 Q14.45 25.75 13.65 25.15 13.1 24.7 12.9 23.6 L12.85 23.0 12.95 22.35 Q12.85 21.9 12.35 21.9 12.0 21.85 11.7 22.2 L11.45 22.85 M8.7 16.75 Q8.2 17.55 8.35 18.55 8.55 19.6 9.35 20.1 10.15 20.65 11.15 20.5 12.2 20.35 12.75 19.6 13.35 18.8 13.25 17.8 13.1 16.75 12.35 16.15 11.45 15.5 10.4 15.65 9.35 15.8 8.7 16.75 M27.8 19.45 Q27.05 19.4 26.4 19.85 25.7 20.25 25.4 20.95 25.1 21.6 25.25 22.4 25.4 23.15 25.95 23.7 26.45 24.2 27.25 24.35 L28.7 24.2 29.8 23.2 30.15 21.8 Q30.1 20.85 29.4 20.2 28.7 19.5 27.8 19.45" fill="#000000" fill-rule="evenodd" stroke="none"/>
    <path d="M27.8 19.45 Q28.7 19.5 29.4 20.2 30.1 20.85 30.15 21.8 L29.8 23.2 28.7 24.2 27.25 24.35 Q26.45 24.2 25.95 23.7 25.4 23.15 25.25 22.4 25.1 21.6 25.4 20.95 25.7 20.25 26.4 19.85 27.05 19.4 27.8 19.45 M8.7 16.75 Q9.35 15.8 10.4 15.65 11.45 15.5 12.35 16.15 13.1 16.75 13.25 17.8 13.35 18.8 12.75 19.6 12.2 20.35 11.15 20.5 10.15 20.65 9.35 20.1 8.55 19.6 8.35 18.55 8.2 17.55 8.7 16.75 M11.45 22.85 L11.7 22.2 Q12.0 21.85 12.35 21.9 12.85 21.9 12.95 22.35 L12.85 23.0 12.9 23.6 Q13.1 24.7 13.65 25.15 14.45 25.75 15.8 25.15 L16.6 24.65 17.2 24.05 18.3 24.1 18.95 25.25 19.9 26.05 Q20.55 26.3 21.1 26.05 L21.9 25.5 22.65 24.9 23.4 24.95 23.65 25.35 Q23.75 26.05 23.4 26.6 L22.55 27.6 22.0 28.1 21.15 28.3 Q19.25 28.5 18.35 27.95 L17.25 26.7 16.45 27.0 Q14.95 27.85 13.3 27.3 L12.25 26.7 Q11.15 25.75 11.25 24.25 L11.45 22.85" fill="#ffffff" fill-rule="evenodd" stroke="none"/>
  </g>
</svg>
