<?xml version="1.0" encoding="UTF-8" standalone="no"?>
<svg xmlns:ffdec="https://www.free-decompiler.com/flash" xmlns:xlink="http://www.w3.org/1999/xlink" ffdec:objectType="shape" height="38.1px" width="76.75px" xmlns="http://www.w3.org/2000/svg">
  <g transform="matrix(1.0, 0.0, 0.0, 1.0, 1.5, -2.45)">
    <path d="M55.45 4.3 L57.7 4.1 58.25 4.35 58.55 4.6 Q59.5 5.55 59.6 6.25 59.8 7.05 59.2 8.1 L58.85 8.65 58.3 9.05 56.95 9.85 56.5 10.0 Q55.8 10.3 55.45 11.1 L55.25 11.4 55.2 11.5 55.15 11.55 Q54.65 11.7 54.35 11.35 L54.2 11.1 54.0 11.0 53.5 10.35 52.7 10.0 51.65 9.5 51.0 9.35 50.4 8.9 50.05 8.4 50.0 7.9 50.1 6.6 50.45 5.9 51.65 4.85 53.25 4.6 53.55 4.7 54.35 5.05 55.45 4.3 M-0.15 30.2 L-0.1 30.2 0.55 30.2 2.35 30.25 2.6 30.25 4.5 30.25 5.2 30.25 6.75 30.25 10.7 30.25 12.7 30.3 13.25 30.3 17.0 30.3 18.35 30.35 23.35 30.35 24.8 30.3 42.15 30.3 44.7 30.3 45.7 30.25 46.5 30.25 48.25 30.2 50.1 30.2 55.2 30.2 57.6 30.2 58.25 30.25 58.95 30.25 59.75 30.3 61.45 30.3 62.4 30.3 63.0 30.35 63.6 30.35 64.6 30.4 65.6 30.4 66.6 30.45 67.3 30.45 68.15 30.45 68.95 30.5 69.7 30.5 72.2 30.55 72.4 30.55 72.6 30.6 72.85 30.6 73.15 30.6 73.35 30.65 73.75 30.65 73.8 30.65 73.9 30.65 74.05 30.6 74.2 30.65 74.35 30.7 74.45 30.75 74.6 30.8 74.65 30.85 74.75 30.95 74.75 31.0 74.85 31.1 74.85 31.15 74.9 31.2 74.95 31.25 75.0 31.35 75.05 31.4 75.1 31.45 75.1 31.55 75.15 31.6 75.15 31.65 75.2 31.7 75.2 31.8 75.25 31.85 75.25 31.95 75.25 32.05 75.25 32.2 75.25 32.3 75.25 32.45 75.25 32.55 75.25 32.65 75.25 32.75 75.25 32.9 75.25 33.0 75.25 33.15 75.25 33.25 75.25 33.4 75.25 33.5 75.25 33.65 75.25 33.75 75.25 33.85 75.25 33.95 75.25 34.1 75.25 34.2 75.25 34.35 75.25 34.45 75.25 34.6 75.25 34.7 75.25 34.8 75.25 34.9 75.25 35.05 75.25 35.15 75.25 35.3 75.25 35.4 75.25 35.55 75.25 35.65 75.25 35.8 75.25 35.9 75.25 36.0 75.25 36.1 75.25 36.25 75.25 36.35 75.25 36.5 75.25 36.6 75.25 36.75 75.25 36.85 75.25 36.95 75.25 37.05 75.25 37.2 75.2 37.3 75.2 37.45 75.2 37.55 75.2 37.7 75.2 37.8 75.2 37.95 75.2 38.05 75.2 38.15 75.2 38.25 75.2 38.35 75.15 38.4 75.15 38.5 75.15 38.65 75.15 38.75 75.15 38.9 75.15 39.0 75.15 39.1 75.15 39.2 75.15 39.25 75.1 39.3 75.1 39.35 75.1 39.45 75.1 39.6 75.1 39.7 75.1 39.75 75.05 39.8 75.05 39.85 75.05 39.95 75.05 40.0 -1.2 40.0 -0.95 32.7 -1.0 32.6 -1.05 32.55 -1.15 32.5 -1.2 32.45 -1.25 32.35 -1.3 32.3 -1.35 32.25 -1.35 32.2 -1.4 32.1 -1.4 32.05 -1.45 32.0 -1.45 31.95 -1.45 31.85 -1.5 31.8 -1.5 31.75 -1.5 31.65 -1.5 31.5 -1.5 31.4 -1.5 31.35 -1.45 31.3 -1.45 31.25 -1.45 31.15 -1.4 31.1 -1.4 31.0 -1.35 30.9 -1.3 30.85 -1.25 30.8 -1.2 30.7 -1.15 30.65 -1.1 30.6 -1.0 30.55 -0.95 30.45 -0.85 30.4 -0.75 30.35 -0.6 30.3 -0.45 30.25 -0.35 30.2 -0.15 30.2" fill="#999999" fill-rule="evenodd" stroke="none"/>
    <path d="M17.55 20.35 L18.0 20.4 18.8 20.4 20.8 20.5 21.65 20.55 22.45 20.6 Q22.8 20.6 23.0 20.75 L23.25 21.25 22.75 21.8 22.0 21.95 Q22.0 22.35 21.6 22.65 L20.9 23.05 18.05 23.65 15.2 23.85 14.35 23.75 Q13.45 23.4 13.55 22.45 L13.9 21.7 Q14.2 21.4 14.6 21.35 L15.15 21.05 16.95 20.4 17.55 20.35" fill="#000000" fill-rule="evenodd" stroke="none"/>
    <path d="M55.75 23.1 Q55.3 23.8 54.3 24.35 L53.5 24.65 Q52.1 25.1 50.55 24.3 L49.1 23.15 48.55 22.05 48.4 22.05 46.5 21.6 44.5 20.3 Q43.6 19.4 43.35 18.25 L43.25 17.15 43.35 16.0 Q43.65 13.65 45.6 12.2 47.5 10.8 49.85 10.95 51.65 11.05 52.7 12.0 53.5 12.65 53.9 13.75 L54.1 14.35 Q55.3 13.45 56.5 13.1 L59.85 12.9 Q61.5 13.35 62.65 14.9 L63.2 15.85 Q63.95 17.6 62.4 19.8 61.15 21.35 59.45 22.1 57.7 22.85 56.05 22.55 L55.75 23.1 M49.5 18.55 Q50.25 17.65 51.55 17.5 L51.6 15.65 51.2 14.65 50.9 14.25 50.45 14.0 49.4 13.9 Q47.6 14.0 46.8 15.4 46.55 15.95 46.45 16.6 L46.45 17.35 Q46.55 17.9 47.35 18.4 L48.3 18.75 49.2 19.0 49.5 18.55 M54.8 18.15 L55.35 18.7 55.95 19.45 56.15 20.25 58.4 19.6 Q60.1 18.9 60.65 17.55 60.9 17.15 60.8 16.75 L60.6 16.3 Q60.2 15.7 59.6 15.5 L57.3 15.55 55.3 16.75 54.6 17.45 54.5 18.0 54.8 18.15 M30.2 29.85 L30.05 29.95 30.35 30.3 30.95 30.75 Q32.85 32.25 36.95 31.95 41.8 31.6 44.85 30.0 L46.85 28.8 Q48.1 28.0 48.85 27.65 51.6 26.4 53.75 27.25 55.0 27.75 55.7 28.9 56.4 30.1 56.1 31.3 55.85 32.3 54.75 33.3 52.15 35.75 46.65 36.3 39.95 37.0 33.6 35.5 L34.65 37.7 Q35.25 39.05 35.25 40.0 L14.15 40.0 14.1 40.55 11.75 40.55 Q10.85 39.3 9.45 38.4 8.65 38.0 8.2 37.95 7.65 37.95 6.3 38.75 4.35 40.05 2.7 40.55 L-0.2 40.55 -0.2 32.75 Q1.0 32.7 2.0 33.3 L2.7 33.7 Q3.1 33.95 3.45 34.0 L4.5 33.85 5.5 33.45 Q7.75 32.55 10.3 33.55 12.4 34.4 13.95 36.5 L15.3 30.85 12.35 29.4 Q10.55 28.35 9.45 26.9 7.45 24.3 7.6 20.3 L7.75 18.45 7.35 16.35 6.75 12.25 6.9 9.9 Q7.0 8.05 7.65 7.45 8.25 6.95 9.7 6.95 L13.1 7.6 Q14.2 6.4 15.4 5.6 17.9 3.9 21.25 3.5 L26.55 3.9 28.45 4.7 28.95 4.45 30.8 3.35 Q31.9 2.7 32.75 2.5 L34.1 2.65 Q34.55 2.9 34.85 3.65 L35.15 4.9 35.7 6.35 36.1 7.6 37.0 11.15 37.45 14.2 Q38.3 17.6 37.2 21.15 36.65 22.95 35.5 24.95 34.35 26.85 33.05 28.0 L30.2 29.85 M24.85 22.45 L24.2 22.9 23.45 22.75 23.05 22.2 Q22.65 21.95 22.25 22.35 22.0 22.8 22.15 23.2 22.2 23.6 22.55 24.0 L23.1 24.65 23.75 24.9 Q24.85 25.15 25.8 24.5 L26.6 23.75 28.15 24.05 Q29.45 23.95 30.3 23.05 30.85 22.5 30.8 21.95 L30.55 21.45 29.95 21.35 29.4 21.95 Q28.95 22.55 28.2 22.4 L27.25 21.5 Q26.55 21.1 26.05 21.15 L25.75 21.3 25.4 21.5 24.85 22.45 M21.2 15.4 Q20.0 14.45 18.3 14.6 16.5 14.75 15.35 15.85 14.0 17.05 13.85 18.7 13.75 20.1 14.45 21.15 L15.4 20.8 17.25 20.35 18.65 20.15 22.1 20.4 22.45 20.55 22.8 19.6 Q23.05 18.55 22.8 17.65 L21.85 16.1 21.2 15.4 M33.25 12.9 L31.95 12.75 Q29.85 12.85 28.65 14.2 27.3 15.75 27.6 17.65 28.0 19.7 29.9 20.35 L31.35 20.6 33.85 20.15 Q34.95 19.65 35.55 18.55 36.15 17.45 36.05 16.3 35.95 15.15 35.15 14.2 34.4 13.25 33.25 12.9" fill="#000000" fill-rule="evenodd" stroke="none"/>
    <path d="M33.25 12.9 Q34.4 13.25 35.15 14.2 35.95 15.15 36.05 16.3 36.15 17.45 35.55 18.55 34.95 19.65 33.85 20.15 L31.35 20.6 29.9 20.35 Q28.0 19.7 27.6 17.65 27.3 15.75 28.65 14.2 29.85 12.85 31.95 12.75 L33.25 12.9 M21.2 15.4 L21.85 16.1 22.8 17.65 Q23.05 18.55 22.8 19.6 L22.45 20.55 22.1 20.4 18.65 20.15 17.25 20.35 15.4 20.8 14.45 21.15 Q13.75 20.1 13.85 18.7 14.0 17.05 15.35 15.85 16.5 14.75 18.3 14.6 20.0 14.45 21.2 15.4 M24.85 22.45 L25.4 21.5 25.75 21.3 26.05 21.15 Q26.55 21.1 27.25 21.5 L28.2 22.4 Q28.95 22.55 29.4 21.95 L29.95 21.35 30.55 21.45 30.8 21.95 Q30.85 22.5 30.3 23.05 29.45 23.95 28.15 24.05 L26.6 23.75 25.8 24.5 Q24.85 25.15 23.75 24.9 L23.1 24.65 22.55 24.0 Q22.2 23.6 22.15 23.2 22.0 22.8 22.25 22.35 22.65 21.95 23.05 22.2 L23.45 22.75 24.2 22.9 24.85 22.45" fill="#ffffff" fill-rule="evenodd" stroke="none"/>
  </g>
</svg>
