<?xml version="1.0" encoding="UTF-8" standalone="no"?>
<svg xmlns:ffdec="https://www.free-decompiler.com/flash" xmlns:xlink="http://www.w3.org/1999/xlink" ffdec:objectType="shape" height="27.9px" width="54.75px" xmlns="http://www.w3.org/2000/svg">
  <g transform="matrix(1.0, 0.0, 0.0, 1.0, -9.1, -4.2)">
    <path d="M56.5 6.05 Q59.9 6.1 63.0 7.3 63.8 7.6 63.85 8.45 63.95 9.95 62.4 9.95 L60.95 9.65 Q56.6 7.9 51.95 8.5 L50.95 8.4 50.85 8.45 50.55 8.6 50.4 8.6 50.2 8.5 50.2 8.45 50.2 8.35 50.2 8.3 50.2 8.2 50.25 8.15 Q52.0 6.85 54.1 6.35 L56.5 6.05 M53.55 13.55 Q55.3 13.75 56.95 14.3 57.5 14.5 57.7 15.05 58.55 16.95 56.3 17.15 54.8 17.3 53.95 16.2 L53.25 15.5 52.3 14.6 52.25 14.55 52.0 14.45 51.95 14.35 51.9 14.3 51.9 14.15 51.9 14.05 51.95 14.0 Q52.3 13.75 52.7 13.7 L53.55 13.55 M23.05 4.2 L24.6 4.5 25.05 4.75 25.05 4.8 25.15 4.95 25.15 5.1 25.15 5.2 25.15 5.35 24.95 5.55 Q19.85 6.15 15.3 8.5 13.1 9.6 10.8 10.3 L10.05 10.15 Q8.3 8.95 9.8 7.45 10.65 6.55 11.85 6.15 17.15 4.15 22.8 4.2 L23.05 4.2 M20.45 7.9 L20.85 8.0 21.05 8.1 21.15 8.25 21.2 8.4 21.2 8.5 21.2 8.55 21.15 8.65 21.15 8.7 21.1 8.8 Q18.75 9.65 16.7 11.25 15.3 12.3 13.65 12.4 13.2 12.45 12.9 12.05 11.85 10.55 13.65 9.8 15.6 8.95 17.7 8.4 L20.45 7.9" fill="#999999" fill-rule="evenodd" stroke="none"/>
    <path d="M42.75 28.95 Q45.75 27.5 48.9 26.5 L48.9 25.9 Q49.05 22.8 52.3 22.7 53.95 22.9 54.75 24.4 55.2 25.35 55.3 26.4 55.5 28.15 54.3 29.45 L53.55 30.05 Q53.05 30.75 51.85 31.0 L47.4 31.6 43.75 32.05 Q41.95 32.35 40.95 31.2 40.85 30.2 41.65 29.6 L42.75 28.95 M29.85 28.95 Q30.4 29.2 30.95 29.6 31.75 30.2 31.65 31.2 30.65 32.35 28.85 32.05 L25.2 31.6 20.75 31.0 Q19.55 30.75 19.05 30.05 L18.3 29.45 Q17.1 28.15 17.3 26.4 17.4 25.35 17.85 24.4 18.65 22.9 20.3 22.7 23.55 22.8 23.7 25.9 L23.7 26.5 Q26.85 27.5 29.85 28.95" fill="#000000" fill-rule="evenodd" stroke="none"/>
  </g>
</svg>
