<?xml version="1.0" encoding="UTF-8" standalone="no"?>
<svg xmlns:ffdec="https://www.free-decompiler.com/flash" xmlns:xlink="http://www.w3.org/1999/xlink" ffdec:objectType="shape" height="35.15px" width="22.7px" xmlns="http://www.w3.org/2000/svg">
  <g transform="matrix(1.0, 0.0, 0.0, 1.0, 0.0, 0.0)">
    <path d="M18.05 3.35 L19.55 5.6 19.55 14.45 19.2 14.45 19.2 14.55 18.85 14.5 18.5 14.45 4.2 14.45 3.85 14.5 3.5 14.55 3.5 14.45 3.15 14.45 3.15 3.35 18.05 3.35 M8.6 11.35 L8.45 11.3 9.8 10.3 13.3 7.95 14.6 7.2 14.8 8.0 15.0 8.5 15.0 8.6 15.0 9.25 14.95 9.8 14.9 10.15 14.55 10.7 14.25 10.9 Q12.0 12.45 9.45 11.7 L8.6 11.35 M12.4 5.75 L12.5 5.8 13.3 5.85 13.55 5.9 12.45 6.45 10.85 7.35 9.25 8.35 7.9 9.15 7.55 9.4 Q7.55 8.6 7.95 7.8 L8.75 6.95 9.45 6.4 Q10.75 5.6 12.4 5.75 M10.15 3.75 Q7.3 4.2 6.0 6.45 L5.3 8.3 Q5.0 9.65 5.45 10.8 L5.1 11.3 Q4.95 11.6 5.1 11.9 5.95 13.25 6.9 12.6 8.0 13.45 9.45 13.8 13.15 14.6 15.75 12.2 L16.25 11.55 Q17.4 9.1 16.65 6.6 L16.45 6.1 17.2 5.65 17.85 4.9 Q17.85 4.6 17.5 4.4 L17.0 4.15 15.65 4.8 Q15.0 4.25 13.95 4.35 L13.05 4.15 10.15 3.75" fill="#ffffff" fill-rule="evenodd" stroke="none"/>
    <path d="M19.55 5.6 L22.7 10.2 22.7 16.4 22.65 16.5 22.65 16.55 22.6 16.6 22.55 16.7 22.5 16.75 22.45 16.85 22.4 16.9 22.3 17.0 22.25 17.05 22.15 17.15 22.05 17.2 21.95 17.3 21.8 17.35 21.65 17.45 21.5 17.5 21.4 17.5 21.3 17.55 21.0 17.55 20.7 17.55 20.6 17.5 20.5 17.5 20.45 17.5 20.15 17.55 19.8 17.55 19.3 17.6 18.85 17.6 18.0 17.65 17.7 17.65 17.4 17.7 17.3 17.7 17.15 17.75 16.9 17.75 15.15 17.8 13.5 17.8 13.5 17.9 13.5 17.95 13.5 18.05 13.5 18.15 13.45 18.25 13.45 18.3 13.45 18.4 13.45 18.45 13.45 18.55 13.4 18.6 13.4 18.7 13.4 18.75 13.4 18.85 13.4 18.9 13.4 19.0 13.4 19.05 13.4 19.15 13.4 19.2 13.4 19.3 13.4 19.35 13.4 19.45 13.4 19.5 13.4 19.6 13.4 19.7 13.35 19.8 13.35 19.85 13.35 19.95 13.35 20.0 13.35 20.1 13.35 20.15 13.35 20.25 13.35 20.3 13.35 20.4 13.35 20.45 13.35 20.55 13.35 20.6 13.35 20.7 13.35 20.75 13.35 20.85 13.35 20.9 13.35 21.0 13.35 21.05 13.35 21.15 13.35 21.25 13.35 21.35 13.35 21.4 13.35 21.5 13.35 21.55 13.35 21.65 13.35 21.7 13.35 21.8 13.35 21.85 13.35 21.95 13.35 22.0 13.35 22.1 13.35 22.15 13.35 22.25 13.35 22.3 13.35 22.4 13.35 22.45 13.35 22.55 13.35 22.6 13.35 22.7 13.35 22.8 13.35 22.9 13.4 22.95 13.4 23.05 13.4 23.1 13.4 23.2 13.4 23.25 13.4 23.35 13.4 23.4 13.4 23.5 13.35 23.55 13.35 23.65 13.35 23.7 13.35 23.8 13.35 23.85 13.35 23.95 13.35 24.0 13.35 24.1 13.35 24.15 13.35 24.25 13.35 24.35 13.35 24.45 13.35 24.5 13.35 24.6 13.35 24.65 13.35 24.75 13.35 24.8 13.35 24.9 13.35 24.95 13.35 25.05 13.35 25.1 13.35 25.2 13.35 25.25 13.35 25.35 13.35 25.4 13.35 25.5 13.35 25.55 13.35 25.65 13.35 25.7 13.35 25.8 13.35 25.9 13.35 26.0 13.35 26.05 13.35 26.15 13.35 26.2 13.35 26.3 13.35 26.35 13.35 26.45 13.35 26.5 13.35 26.6 13.35 26.65 13.35 26.75 13.35 26.8 13.35 26.9 13.35 26.95 13.35 27.05 13.35 27.1 13.35 27.2 13.35 27.25 13.35 27.35 13.35 27.45 13.35 27.55 13.35 27.6 13.35 27.7 13.35 27.75 13.35 27.85 13.35 27.9 13.35 28.0 13.35 28.05 13.35 28.15 13.35 28.2 13.35 28.3 13.35 28.35 13.35 28.45 13.35 28.5 13.35 28.6 13.35 28.65 13.35 28.75 13.35 28.8 13.35 28.9 13.35 29.0 13.35 29.1 13.35 29.15 13.35 29.25 13.35 29.3 13.35 29.4 13.35 29.45 13.35 29.55 13.35 29.6 13.35 29.7 13.35 29.75 13.35 29.85 13.35 29.9 13.35 30.0 13.35 30.05 13.35 30.15 13.35 30.2 13.35 30.3 13.35 30.35 13.35 30.45 13.35 30.55 13.35 30.65 13.35 30.7 13.35 30.8 13.35 30.85 13.35 30.95 13.35 31.0 13.35 31.1 13.35 31.15 13.35 31.25 13.35 31.3 13.35 31.4 13.35 31.45 13.35 31.55 13.35 31.6 13.35 31.7 13.35 31.75 13.35 31.85 13.35 31.9 13.35 32.0 13.35 32.1 13.35 32.2 13.35 32.25 13.35 32.35 13.35 32.4 13.35 32.5 13.35 32.55 13.3 32.65 13.3 32.7 13.3 32.8 13.3 32.85 13.3 32.95 13.3 33.0 13.3 33.1 13.3 33.15 13.3 33.25 13.3 33.3 13.3 33.4 13.25 33.45 13.25 33.55 13.25 33.6 13.2 33.65 13.2 33.75 13.2 33.8 13.15 33.9 13.1 33.95 13.1 34.05 13.05 34.1 13.0 34.2 12.95 34.25 12.9 34.35 12.85 34.4 12.8 34.5 12.7 34.55 12.65 34.65 12.55 34.7 12.45 34.8 12.35 34.85 12.25 34.95 12.1 35.0 12.0 35.05 11.9 35.1 11.8 35.1 11.75 35.1 11.6 35.15 11.3 35.15 11.0 35.15 10.85 35.1 10.8 35.1 10.6 35.05 10.45 35.0 10.3 34.9 10.15 34.85 10.05 34.75 10.0 34.7 9.9 34.6 9.85 34.55 9.75 34.45 9.7 34.4 9.65 34.3 9.6 34.25 9.55 34.15 9.5 34.1 9.45 34.0 9.45 33.95 9.4 33.85 9.35 33.8 9.35 33.7 9.35 33.65 9.35 33.55 9.35 33.5 9.3 33.45 9.3 33.35 9.3 33.3 9.3 33.2 9.3 33.15 9.3 33.05 9.3 33.0 9.3 32.9 9.3 32.85 9.3 32.75 9.3 32.7 9.25 32.6 9.25 32.55 9.25 32.45 9.25 32.4 9.25 32.3 9.25 32.25 9.25 32.15 9.25 32.1 9.25 32.0 9.25 31.9 9.25 31.8 9.25 31.75 9.25 31.65 9.25 31.6 9.25 31.5 9.25 31.45 9.25 31.35 9.25 31.3 9.25 31.2 9.25 31.15 9.25 31.05 9.25 31.0 9.25 30.9 9.25 30.85 9.25 30.75 9.25 30.7 9.25 30.6 9.25 30.55 9.25 30.45 9.25 30.35 9.25 30.25 9.25 30.2 9.25 30.1 9.25 30.05 9.25 29.95 9.25 29.9 9.25 29.8 9.25 29.75 9.25 29.65 9.25 29.6 9.25 29.5 9.25 29.45 9.25 29.35 9.25 29.3 9.25 29.2 9.25 29.15 9.25 29.05 9.25 29.0 9.25 28.9 9.25 28.8 9.25 28.7 9.25 28.65 9.25 28.55 9.25 28.5 9.25 28.4 9.25 28.35 9.25 28.25 9.25 28.2 9.25 28.1 9.25 28.05 9.25 27.95 9.25 27.9 9.25 27.8 9.25 27.75 9.25 27.65 9.25 27.6 9.25 27.5 9.25 27.45 9.25 27.35 9.25 27.25 9.25 27.15 9.25 27.1 9.25 27.0 9.25 26.95 9.25 26.85 9.25 26.8 9.25 26.7 9.25 26.65 9.25 26.55 9.25 26.5 9.25 26.4 9.25 26.35 9.25 26.25 9.25 26.2 9.25 26.1 9.25 26.05 9.25 25.95 9.25 25.9 9.25 25.8 9.25 25.7 9.25 25.6 9.25 25.55 9.25 25.45 9.25 25.4 9.25 25.3 9.25 25.25 9.25 25.15 9.25 25.1 9.25 25.0 9.25 24.95 9.25 24.85 9.25 24.8 9.25 24.7 9.25 24.65 9.25 24.55 9.25 24.5 9.25 24.4 9.25 24.35 9.25 24.25 9.25 24.15 9.25 24.05 9.25 24.0 9.25 23.9 9.25 23.85 9.25 23.75 9.25 23.7 9.25 23.6 9.25 23.55 9.2 23.45 9.2 23.4 9.2 23.3 9.2 23.25 9.2 23.15 9.2 23.1 9.2 23.0 9.2 22.95 9.25 22.85 9.25 22.8 9.25 22.7 9.25 22.6 9.25 22.5 9.25 22.45 9.25 22.35 9.25 22.3 9.25 22.2 9.25 22.15 9.25 22.05 9.25 22.0 9.25 21.9 9.25 21.85 9.25 21.75 9.25 21.7 9.25 21.6 9.25 21.55 9.25 21.45 9.25 21.4 9.25 21.3 9.25 21.25 9.25 21.15 9.25 21.05 9.25 20.95 9.25 20.9 9.25 20.8 9.25 20.75 9.25 20.65 9.25 20.6 9.25 20.5 9.25 20.45 9.25 20.35 9.25 20.3 9.25 20.2 9.25 20.15 9.25 20.05 9.25 20.0 9.25 19.9 9.25 19.85 9.2 19.75 9.2 19.7 9.2 19.6 9.2 19.5 9.2 19.4 9.2 19.35 9.2 19.25 9.2 19.2 9.2 19.1 9.2 19.05 9.2 18.95 9.2 18.9 9.2 18.8 9.2 18.75 9.2 18.65 9.15 18.6 9.15 18.5 9.15 18.45 9.15 18.35 9.15 18.3 9.1 18.2 9.1 18.15 9.1 18.05 9.1 17.95 9.1 17.85 9.1 17.8 7.55 17.8 5.8 17.75 5.55 17.75 5.4 17.7 5.3 17.7 5.0 17.65 4.7 17.65 3.85 17.6 3.4 17.6 2.9 17.55 2.55 17.55 2.25 17.5 2.2 17.5 2.1 17.5 2.0 17.55 1.7 17.55 1.4 17.55 1.3 17.5 1.2 17.5 1.05 17.45 0.9 17.35 0.75 17.3 0.65 17.2 0.55 17.15 0.45 17.05 0.4 17.0 0.3 16.9 0.25 16.85 0.2 16.75 0.15 16.7 0.1 16.6 0.05 16.55 0.05 16.5 0.0 16.4 0.0 2.25 0.0 2.15 0.0 2.1 0.0 2.0 0.05 1.95 0.05 1.85 0.05 1.8 0.1 1.7 0.1 1.65 0.15 1.55 0.15 1.5 0.2 1.4 0.25 1.35 0.3 1.25 0.35 1.2 0.4 1.1 0.45 1.05 0.5 1.0 0.55 0.9 0.65 0.85 0.7 0.75 0.8 0.7 0.9 0.6 0.95 0.55 1.05 0.45 1.1 0.4 1.15 0.3 1.25 0.25 1.3 0.15 1.4 0.1 1.5 0.0 15.75 0.0 18.05 3.35 3.15 3.35 3.15 14.45 3.5 14.45 3.5 14.55 3.85 14.5 4.2 14.45 18.5 14.45 18.85 14.5 19.2 14.55 19.2 14.45 19.55 14.45 19.55 5.6 M10.15 3.75 L13.05 4.15 13.95 4.35 Q15.0 4.25 15.65 4.8 L17.0 4.15 17.5 4.4 Q17.85 4.6 17.85 4.9 L17.2 5.65 16.45 6.1 16.65 6.6 Q17.4 9.1 16.25 11.55 L15.75 12.2 Q13.15 14.6 9.45 13.8 8.0 13.45 6.9 12.6 5.95 13.25 5.1 11.9 4.95 11.6 5.1 11.3 L5.45 10.8 Q5.0 9.65 5.3 8.3 L6.0 6.45 Q7.3 4.2 10.15 3.75 M12.4 5.75 Q10.75 5.6 9.45 6.4 L8.75 6.95 7.95 7.8 Q7.55 8.6 7.55 9.4 L7.9 9.15 9.25 8.35 10.85 7.35 12.45 6.45 13.55 5.9 13.3 5.85 12.5 5.8 12.4 5.75 M8.6 11.35 L9.45 11.7 Q12.0 12.45 14.25 10.9 L14.55 10.7 14.9 10.15 14.95 9.8 15.0 9.25 15.0 8.6 15.0 8.5 14.8 8.0 14.6 7.2 13.3 7.95 9.8 10.3 8.45 11.3 8.6 11.35" fill="#999999" fill-rule="evenodd" stroke="none"/>
  </g>
</svg>
