<?xml version="1.0" encoding="UTF-8" standalone="no"?>
<svg xmlns:ffdec="https://www.free-decompiler.com/flash" xmlns:xlink="http://www.w3.org/1999/xlink" ffdec:objectType="shape" height="33.65px" width="26.6px" xmlns="http://www.w3.org/2000/svg">
  <g transform="matrix(1.0, 0.0, 0.0, 1.0, -22.95, -8.2)">
    <path d="M45.95 22.65 Q45.9 20.55 44.25 19.85 L44.05 19.75 Q43.55 20.95 42.45 21.75 L40.05 23.15 Q40.2 23.8 40.7 24.45 42.15 26.25 44.3 25.25 46.0 24.45 45.95 22.65 M36.4 8.4 Q39.55 8.35 42.3 9.55 44.65 8.55 47.2 8.2 49.55 8.6 49.55 11.05 49.5 14.55 48.95 17.95 L48.9 18.3 48.9 19.2 Q48.8 24.0 45.5 27.5 44.2 28.9 42.6 29.75 L43.8 35.8 43.95 37.15 44.15 39.0 Q44.2 40.8 42.65 41.6 41.35 42.25 40.4 41.15 L40.25 40.95 40.2 40.9 Q39.3 41.4 38.25 41.4 L36.35 41.4 34.25 41.4 Q33.2 41.4 32.3 40.9 L32.25 40.95 32.1 41.15 Q31.15 42.25 29.85 41.6 28.3 40.8 28.35 39.0 L28.55 37.15 28.7 35.8 29.9 29.75 Q28.3 28.9 27.0 27.5 23.7 24.0 23.6 19.2 L23.6 18.3 23.55 17.95 Q23.0 14.55 22.95 11.05 22.95 8.6 25.3 8.2 27.85 8.55 30.2 9.55 32.95 8.35 36.1 8.4 L36.25 8.45 36.4 8.4 M32.4 25.85 L33.15 25.15 33.8 23.75 33.6 23.7 Q30.85 23.1 29.8 20.6 L29.65 20.15 Q28.2 20.6 27.7 22.3 27.05 24.05 28.45 25.45 30.25 27.25 32.4 25.85" fill="#000000" fill-rule="evenodd" stroke="none"/>
    <path d="M45.95 22.65 Q46.0 24.45 44.3 25.25 42.15 26.25 40.7 24.45 40.2 23.8 40.05 23.15 L42.45 21.75 Q43.55 20.95 44.05 19.75 L44.25 19.85 Q45.9 20.55 45.95 22.65 M32.4 25.85 Q30.25 27.25 28.45 25.45 27.05 24.05 27.7 22.3 28.2 20.6 29.65 20.15 L29.8 20.6 Q30.85 23.1 33.6 23.7 L33.8 23.75 33.15 25.15 32.4 25.85" fill="#ffffff" fill-rule="evenodd" stroke="none"/>
  </g>
</svg>
