<?xml version="1.0" encoding="UTF-8" standalone="no"?>
<svg xmlns:ffdec="https://www.free-decompiler.com/flash" xmlns:xlink="http://www.w3.org/1999/xlink" ffdec:objectType="shape" height="41.6px" width="75.75px" xmlns="http://www.w3.org/2000/svg">
  <g transform="matrix(1.0, 0.0, 0.0, 1.0, 0.7, 0.8)">
    <path d="M22.9 1.2 Q18.9 8.4 14.3 10.9 12.85 11.65 9.6 12.6 6.45 13.6 4.9 14.4 1.2 16.4 -0.7 20.3 L-0.7 13.35 Q1.1 11.5 3.3 10.25 5.3 8.3 7.7 6.8 L10.8 4.9 13.55 2.6 15.3 0.3 16.05 -0.8 24.0 -0.8 22.9 1.2 M31.6 39.55 Q25.9 38.25 19.95 32.35 L17.4 29.3 Q14.05 24.25 15.35 17.6 16.15 13.65 18.35 10.25 20.6 6.75 23.9 4.5 26.85 2.55 30.3 1.75 34.4 0.8 39.2 0.65 43.95 0.5 48.9 4.75 53.8 8.9 54.75 11.85 55.65 14.75 58.1 17.3 60.05 18.75 61.9 18.75 64.65 18.9 66.55 16.5 68.1 14.55 68.5 11.55 L68.6 9.7 67.75 7.25 Q66.65 5.45 63.35 3.25 59.8 1.05 58.7 -0.55 L58.55 -0.8 69.25 -0.8 Q73.25 3.1 74.4 11.15 L74.65 15.3 Q74.6 18.1 73.45 21.1 71.55 26.45 67.35 30.5 L62.05 34.55 57.8 37.1 Q55.0 38.35 50.15 39.3 L39.15 40.35 34.75 40.0 31.6 39.55 M70.65 33.65 L72.35 33.7 74.05 33.7 75.05 33.45 75.05 36.8 73.75 37.0 69.6 37.1 Q68.4 37.4 67.1 38.45 L64.95 40.4 64.55 40.8 60.2 40.8 60.55 40.45 63.5 37.45 Q67.2 33.8 70.65 33.65 M6.6 35.85 Q8.25 36.35 9.6 37.45 10.9 38.5 11.65 39.85 L12.1 40.8 7.05 40.8 Q6.05 39.75 4.2 39.05 1.0 38.1 -0.4 37.3 L-0.7 37.15 -0.7 32.15 1.1 33.7 4.05 35.05 6.6 35.85" fill="#999999" fill-rule="evenodd" stroke="none"/>
  </g>
</svg>
