<?xml version="1.0" encoding="UTF-8" standalone="no"?>
<svg xmlns:ffdec="https://www.free-decompiler.com/flash" xmlns:xlink="http://www.w3.org/1999/xlink" ffdec:objectType="shape" height="27.15px" width="37.8px" xmlns="http://www.w3.org/2000/svg">
  <g transform="matrix(1.0, 0.0, 0.0, 1.0, -17.15, -6.25)">
    <path d="M51.3 14.65 L52.55 17.25 52.9 17.3 Q54.3 17.8 54.7 18.95 55.3 20.3 54.5 21.4 L53.05 22.4 52.75 22.5 52.3 23.7 Q51.05 26.4 49.8 27.85 47.15 31.0 42.65 32.45 35.95 34.55 29.8 32.1 26.75 30.9 24.3 28.6 21.85 26.3 20.5 23.35 L20.45 23.2 20.05 23.25 Q19.0 23.3 18.2 22.7 17.4 22.1 17.2 21.0 17.05 19.9 17.6 19.1 L19.2 18.05 20.3 17.8 20.6 17.1 Q22.25 13.85 23.6 12.2 27.4 7.65 33.45 6.55 39.2 5.55 44.7 8.1 46.9 9.05 48.15 10.25 49.3 11.35 51.3 14.65 M35.0 29.8 Q38.35 30.05 40.7 28.95 L42.2 28.1 Q45.8 25.6 46.4 21.2 47.05 16.85 44.5 13.25 43.55 11.9 42.4 11.1 39.4 8.9 35.45 9.75 L34.85 9.85 Q34.15 10.05 33.1 10.6 31.1 11.5 29.35 13.3 27.8 14.85 27.2 16.25 26.45 17.9 26.6 20.8 26.6 22.7 26.9 24.0 27.85 26.9 30.6 28.4 L30.75 28.45 32.0 29.2 Q33.2 29.7 35.0 29.8 M37.1 21.3 Q38.4 21.7 39.35 20.45 40.05 19.6 39.85 18.05 L39.5 17.0 Q38.8 15.85 37.35 15.65 35.8 15.55 34.4 16.6 33.35 17.5 32.6 19.1 31.5 21.7 32.35 23.3 32.8 24.15 34.2 25.0 36.0 26.1 37.5 25.7 L38.35 25.4 39.2 25.25 Q39.85 25.35 40.15 26.0 40.4 26.6 40.0 27.1 L39.05 27.85 Q37.45 28.55 36.45 28.65 L34.7 28.55 Q32.25 28.05 30.55 26.15 28.8 24.15 28.7 21.7 L28.7 20.7 Q28.7 20.05 29.0 19.05 29.5 17.1 30.85 15.45 32.55 13.45 34.6 12.7 36.85 11.9 39.1 12.75 41.5 13.75 42.2 16.05 42.5 17.05 42.35 18.65 42.15 20.5 41.6 21.6 40.8 23.0 39.35 23.7 37.8 24.45 36.2 24.1 35.4 23.85 34.95 23.6 34.25 23.1 33.85 22.1 33.25 20.55 33.85 19.25 34.4 17.7 35.9 17.3 L37.5 17.35 Q38.35 17.85 38.4 18.6 38.55 19.5 37.65 19.9 L37.0 20.1 Q36.6 20.2 36.55 20.5 36.35 21.05 37.1 21.3" fill="#000000" fill-rule="evenodd" stroke="none"/>
    <path d="M35.0 29.8 Q33.2 29.7 32.0 29.2 L30.75 28.45 30.6 28.4 Q27.85 26.9 26.9 24.0 26.6 22.7 26.6 20.8 26.45 17.9 27.2 16.25 27.8 14.85 29.35 13.3 31.1 11.5 33.1 10.6 34.15 10.05 34.85 9.85 L35.45 9.75 Q39.4 8.9 42.4 11.1 43.55 11.9 44.5 13.25 47.05 16.85 46.4 21.2 45.8 25.6 42.2 28.1 L40.7 28.95 Q38.35 30.05 35.0 29.8 M37.1 21.3 Q36.35 21.05 36.55 20.5 36.6 20.2 37.0 20.1 L37.65 19.9 Q38.55 19.5 38.4 18.6 38.35 17.85 37.5 17.35 L35.9 17.3 Q34.4 17.7 33.85 19.25 33.25 20.55 33.85 22.1 34.25 23.1 34.95 23.6 35.4 23.85 36.2 24.1 37.8 24.45 39.35 23.7 40.8 23.0 41.6 21.6 42.15 20.5 42.35 18.65 42.5 17.05 42.2 16.05 41.5 13.75 39.1 12.75 36.85 11.9 34.6 12.7 32.55 13.45 30.85 15.45 29.5 17.1 29.0 19.05 28.7 20.05 28.7 20.7 L28.7 21.7 Q28.8 24.15 30.55 26.15 32.25 28.05 34.7 28.55 L36.45 28.65 Q37.45 28.55 39.05 27.85 L40.0 27.1 Q40.4 26.6 40.15 26.0 39.85 25.35 39.2 25.25 L38.35 25.4 37.5 25.7 Q36.0 26.1 34.2 25.0 32.8 24.15 32.35 23.3 31.5 21.7 32.6 19.1 33.35 17.5 34.4 16.6 35.8 15.55 37.35 15.65 38.8 15.85 39.5 17.0 L39.85 18.05 Q40.05 19.6 39.35 20.45 38.4 21.7 37.1 21.3" fill="#ffffff" fill-rule="evenodd" stroke="none"/>
  </g>
</svg>
