<?xml version="1.0" encoding="UTF-8" standalone="no"?>
<svg xmlns:ffdec="https://www.free-decompiler.com/flash" xmlns:xlink="http://www.w3.org/1999/xlink" ffdec:objectType="shape" height="34.25px" width="32.4px" xmlns="http://www.w3.org/2000/svg">
  <g transform="matrix(1.0, 0.0, 0.0, 1.0, -18.9, -2.2)">
    <path d="M24.9 29.6 Q22.45 27.9 20.85 25.2 19.25 22.5 18.95 19.55 18.65 16.55 19.65 13.6 20.65 10.65 22.7 8.45 24.4 6.65 27.8 4.7 30.45 3.25 32.4 2.75 37.4 1.35 42.9 3.5 46.0 4.7 47.8 6.65 49.8 8.85 50.8 13.05 51.7 17.25 50.9 20.65 50.45 22.5 49.45 24.4 47.8 27.75 45.7 29.45 L45.75 29.75 45.75 31.8 Q45.5 33.1 44.15 34.15 L43.25 34.7 41.95 34.95 40.65 34.85 Q39.9 34.7 39.35 34.3 L38.65 35.25 37.5 36.15 35.55 36.45 Q33.2 36.45 32.2 35.9 L30.95 34.95 30.8 34.75 29.8 35.25 28.3 35.35 27.35 35.3 Q26.55 35.1 25.85 34.4 L24.85 32.9 24.7 32.4 24.65 31.75 Q24.7 30.7 25.15 29.75 L24.9 29.6 M30.95 23.25 L31.0 23.1 30.8 23.0 29.2 21.75 Q26.65 19.45 25.45 17.5 L23.65 18.65 23.15 19.2 Q22.65 19.9 22.35 21.3 L22.3 22.5 Q22.4 23.65 23.2 24.6 23.95 25.55 25.05 25.95 L26.75 26.3 Q28.25 26.3 29.4 25.45 30.55 24.7 30.95 23.25 M41.6 26.0 L43.65 26.35 44.9 25.85 Q46.25 25.15 47.05 23.95 47.9 22.5 47.6 21.15 L46.95 19.55 46.45 18.9 45.9 18.4 45.1 17.9 44.0 17.65 Q42.95 19.55 41.35 21.3 40.25 22.5 39.25 23.0 L38.8 23.2 38.9 23.9 Q39.3 24.75 40.05 25.2 L41.6 26.0" fill="#000000" fill-rule="evenodd" stroke="none"/>
    <path d="M41.6 26.0 L40.05 25.2 Q39.3 24.75 38.9 23.9 L38.8 23.2 39.25 23.0 Q40.25 22.5 41.35 21.3 42.95 19.55 44.0 17.65 L45.1 17.9 45.9 18.4 46.45 18.9 46.95 19.55 47.6 21.15 Q47.9 22.5 47.05 23.95 46.25 25.15 44.9 25.85 L43.65 26.35 41.6 26.0 M30.95 23.25 Q30.55 24.7 29.4 25.45 28.25 26.3 26.75 26.3 L25.05 25.95 Q23.95 25.55 23.2 24.6 22.4 23.65 22.3 22.5 L22.35 21.3 Q22.65 19.9 23.15 19.2 L23.65 18.65 25.45 17.5 Q26.65 19.45 29.2 21.75 L30.8 23.0 31.0 23.1 30.95 23.25" fill="#ffffff" fill-rule="evenodd" stroke="none"/>
  </g>
</svg>
