<?xml version="1.0" encoding="UTF-8" standalone="no"?>
<svg xmlns:ffdec="https://www.free-decompiler.com/flash" xmlns:xlink="http://www.w3.org/1999/xlink" ffdec:objectType="shape" height="34.7px" width="30.05px" xmlns="http://www.w3.org/2000/svg">
  <g transform="matrix(1.0, 0.0, 0.0, 1.0, -20.8, -1.35)">
    <path d="M37.1 7.35 L37.2 7.25 38.45 6.0 40.85 4.3 41.15 4.05 42.05 3.9 42.75 4.0 Q43.5 4.35 43.75 5.1 L43.85 5.5 43.95 5.85 Q44.15 6.75 43.75 7.45 L44.6 8.35 46.25 8.2 47.9 8.6 48.45 8.9 49.15 9.45 50.15 10.95 50.6 12.3 50.75 13.05 50.85 14.3 50.8 16.55 Q50.7 18.3 50.2 19.45 49.9 20.35 49.35 20.6 L48.65 20.75 48.05 20.35 Q47.8 19.95 48.15 19.05 L48.35 17.6 48.25 16.75 48.15 16.35 46.45 16.75 43.7 16.3 42.7 15.9 41.0 17.55 38.7 19.5 38.2 19.95 40.5 22.5 43.4 25.85 44.75 27.25 45.15 27.75 45.9 27.65 47.4 28.0 48.3 28.65 49.15 29.5 Q49.55 30.15 49.55 31.2 49.55 32.55 49.15 33.55 48.7 34.65 47.65 35.35 L46.45 35.85 45.6 36.05 44.6 36.0 42.95 35.35 42.4 34.85 41.6 33.85 Q41.35 33.25 41.25 32.4 L41.2 31.6 Q41.2 31.3 41.55 30.35 L41.8 29.95 40.65 28.85 37.8 25.3 36.65 24.15 35.3 22.65 34.05 23.85 33.75 24.2 28.0 30.75 Q26.25 32.7 24.95 32.8 23.7 32.9 22.85 32.1 22.0 31.35 21.85 30.15 21.75 29.15 22.1 28.4 L23.05 27.25 Q27.1 23.3 31.5 20.05 L32.5 19.45 32.55 19.4 29.05 15.7 28.55 15.25 25.45 15.6 24.15 15.4 23.15 15.1 22.35 14.5 Q21.45 13.6 21.05 12.45 20.65 11.15 20.95 10.05 21.2 9.05 21.95 8.85 22.75 8.6 23.2 9.3 L23.45 10.05 24.1 11.15 24.45 11.55 25.0 11.7 27.2 11.6 Q28.35 11.15 28.8 10.2 29.35 9.05 28.5 8.15 L27.8 7.5 Q26.95 6.75 27.4 5.6 27.8 4.55 28.95 4.45 29.95 4.4 31.0 5.45 32.45 6.9 32.7 9.0 32.85 10.95 31.85 12.65 L35.65 17.1 36.95 16.2 Q37.65 15.75 39.1 14.85 L40.75 13.75 40.65 13.25 40.7 12.3 41.1 10.8 40.9 10.5 40.65 10.0 39.45 10.4 Q38.15 10.5 37.5 9.5 37.05 8.9 37.05 8.3 L37.05 7.45 37.1 7.35 M43.95 33.15 Q44.3 33.55 44.7 33.7 L45.9 33.75 46.85 33.05 Q47.2 32.55 47.15 31.85 47.1 31.2 46.65 30.8 46.25 30.35 45.6 30.3 44.95 30.2 44.4 30.55 43.9 30.9 43.7 31.5 43.5 32.15 43.7 32.7 L43.95 33.15" fill="#000000" fill-rule="evenodd" stroke="none"/>
    <path d="M41.15 4.05 L40.85 4.3 38.45 6.0 37.2 7.25 37.1 7.35 36.8 7.55 Q36.0 7.9 35.45 7.35 34.8 6.8 35.15 6.05 L36.05 4.8 36.25 4.05 36.45 3.75 36.9 3.3 38.5 2.0 39.3 1.5 Q40.3 1.15 41.05 1.75 41.8 2.35 41.55 3.35 L41.15 4.05 M43.95 33.15 L43.7 32.7 Q43.5 32.15 43.7 31.5 43.9 30.9 44.4 30.55 44.95 30.2 45.6 30.3 46.25 30.35 46.65 30.8 47.1 31.2 47.15 31.85 47.2 32.55 46.85 33.05 L45.9 33.75 44.7 33.7 Q44.3 33.55 43.95 33.15" fill="#999999" fill-rule="evenodd" stroke="none"/>
  </g>
</svg>
