<?xml version="1.0" encoding="UTF-8" standalone="no"?>
<svg xmlns:ffdec="https://www.free-decompiler.com/flash" xmlns:xlink="http://www.w3.org/1999/xlink" ffdec:objectType="shape" height="28.2px" width="29.55px" xmlns="http://www.w3.org/2000/svg">
  <g transform="matrix(1.0, 0.0, 0.0, 1.0, -18.65, -4.45)">
    <path d="M33.8 13.65 Q34.65 11.65 36.0 9.85 36.95 8.55 37.8 8.4 38.5 8.3 39.25 8.7 39.9 9.0 40.55 9.45 L40.9 9.75 42.35 5.1 Q42.7 4.3 43.65 4.45 44.55 4.7 44.6 5.65 L44.5 6.35 43.45 9.8 44.55 9.45 45.55 9.35 Q46.5 9.5 47.25 10.75 L47.65 11.65 47.85 12.6 48.2 14.9 48.1 15.95 47.85 17.35 Q47.85 20.65 45.3 24.3 L45.25 24.35 44.8 24.2 43.15 24.1 42.5 24.15 42.2 24.3 42.15 24.7 42.5 25.05 44.15 25.8 Q40.15 30.75 35.0 31.65 L31.5 31.85 28.05 31.4 28.2 31.05 29.35 27.9 29.4 27.65 Q29.35 27.4 29.0 27.5 L26.55 30.25 26.2 30.8 25.15 30.35 24.85 30.3 Q22.15 29.3 20.25 27.5 19.2 26.45 18.8 25.5 18.35 24.1 19.25 23.2 19.75 22.65 20.8 22.5 L22.65 22.4 Q24.8 22.3 27.0 20.85 L30.55 17.75 32.9 15.15 35.65 16.05 36.1 15.9 36.15 15.5 35.9 15.2 35.1 14.8 34.6 14.35 33.8 13.65 M40.45 13.0 L39.45 15.0 38.45 16.95 37.25 18.5 34.45 21.5 Q31.4 24.3 27.2 24.75 26.55 24.8 26.25 25.05 L30.6 25.2 Q32.55 24.75 34.6 23.4 L35.75 22.55 Q37.15 21.2 38.3 19.15 39.8 16.35 40.6 13.5 40.7 13.0 40.45 13.0" fill="#000000" fill-rule="evenodd" stroke="none"/>
    <path d="M45.25 24.35 Q45.95 24.45 46.4 24.8 46.9 25.25 46.8 25.65 L46.55 26.1 Q46.05 26.4 45.05 26.1 L44.15 25.8 42.5 25.05 42.15 24.7 42.2 24.3 42.5 24.15 43.15 24.1 44.8 24.2 45.25 24.35 M28.05 31.4 L27.55 32.25 Q26.85 32.85 26.3 32.5 25.7 32.2 25.95 31.35 L26.2 30.8 26.55 30.25 29.0 27.5 Q29.35 27.4 29.4 27.65 L29.35 27.9 28.2 31.05 28.05 31.4 M32.9 15.15 L32.55 15.0 31.95 14.4 Q31.8 14.05 32.05 13.7 32.35 13.25 32.7 13.25 33.25 13.25 33.8 13.65 L34.6 14.35 35.1 14.8 35.9 15.2 36.15 15.5 36.1 15.9 35.65 16.05 32.9 15.15 M40.45 13.0 Q40.7 13.0 40.6 13.5 39.8 16.35 38.3 19.15 37.15 21.2 35.75 22.55 L34.6 23.4 Q32.55 24.75 30.6 25.2 L26.25 25.05 Q26.55 24.8 27.2 24.75 31.4 24.3 34.45 21.5 L37.25 18.5 38.45 16.95 39.45 15.0 40.45 13.0" fill="#999999" fill-rule="evenodd" stroke="none"/>
  </g>
</svg>
