<?xml version="1.0" encoding="UTF-8" standalone="no"?>
<svg xmlns:ffdec="https://www.free-decompiler.com/flash" xmlns:xlink="http://www.w3.org/1999/xlink" ffdec:objectType="shape" height="28.55px" width="36.45px" xmlns="http://www.w3.org/2000/svg">
  <g transform="matrix(1.0, 0.0, 0.0, 1.0, -19.85, -4.9)">
    <path d="M20.1 25.3 Q19.25 18.85 21.4 12.65 22.7 9.05 24.55 7.5 25.7 6.45 27.25 6.1 L27.65 6.05 Q27.8 5.85 28.05 5.75 28.9 5.25 30.85 5.05 L38.15 5.5 Q41.6 6.65 44.0 10.05 46.0 12.85 46.9 16.95 L47.1 17.65 47.4 17.7 49.8 17.75 Q50.25 16.45 51.7 15.7 L52.45 15.4 53.2 15.35 Q54.6 15.45 55.6 16.45 L55.9 16.9 56.1 17.4 56.25 18.6 55.9 20.25 55.1 21.2 55.55 21.8 55.85 22.95 55.85 23.95 Q55.8 24.5 55.35 25.1 L54.8 25.8 54.1 26.3 53.3 26.65 52.6 26.7 51.1 26.6 Q50.3 26.35 49.8 25.85 L49.5 25.35 49.05 24.3 49.0 23.7 48.95 23.7 47.1 23.75 Q46.35 26.25 44.3 28.25 42.35 30.15 39.65 31.25 36.75 32.4 31.3 32.95 L27.9 33.4 24.85 33.05 23.85 32.5 22.2 31.0 21.1 28.95 Q20.4 27.5 20.1 25.3 M52.05 17.15 Q51.5 17.45 51.15 18.1 50.85 18.75 51.0 19.4 L49.75 19.4 48.25 19.55 47.95 19.75 47.95 19.8 48.0 20.5 47.9 21.85 Q48.15 22.1 48.55 22.15 L49.25 22.15 49.9 22.25 50.6 22.35 50.5 22.45 Q50.2 23.1 50.3 23.8 50.45 24.7 51.15 25.15 L51.9 25.4 51.95 25.4 52.75 25.35 52.95 25.3 Q53.65 25.1 53.95 24.55 L54.1 24.35 54.4 23.5 Q54.55 22.15 53.6 21.25 L53.3 21.05 53.35 20.95 Q54.0 20.8 54.5 20.05 54.9 19.4 54.75 18.6 54.65 17.9 54.15 17.45 L53.8 17.25 53.05 17.0 52.05 17.15 M26.4 9.35 Q25.9 9.7 25.3 10.8 24.55 12.25 24.05 14.05 22.5 19.85 23.4 25.55 23.8 28.25 25.05 29.15 25.9 29.75 27.0 29.7 28.1 29.6 28.85 28.85 29.5 28.2 30.0 26.65 31.0 23.25 31.0 19.85 L30.95 16.95 Q30.75 13.2 30.1 11.1 29.85 10.15 29.3 9.6 28.8 9.05 27.95 8.95 27.1 8.9 26.4 9.35" fill="#000000" fill-rule="evenodd" stroke="none"/>
    <path d="M52.05 17.15 L53.05 17.0 53.8 17.25 54.15 17.45 Q54.65 17.9 54.75 18.6 54.9 19.4 54.5 20.05 54.0 20.8 53.35 20.95 L53.3 21.05 53.6 21.25 Q54.55 22.15 54.4 23.5 L54.1 24.35 53.95 24.55 Q53.65 25.1 52.95 25.3 L52.75 25.35 51.95 25.4 51.9 25.4 51.15 25.15 Q50.45 24.7 50.3 23.8 50.2 23.1 50.5 22.45 L50.6 22.35 49.9 22.25 49.25 22.15 48.55 22.15 Q48.15 22.1 47.9 21.85 L48.0 20.5 47.95 19.8 47.95 19.75 48.25 19.55 49.75 19.4 51.0 19.4 Q50.85 18.75 51.15 18.1 51.5 17.45 52.05 17.15 M24.2 20.95 L24.3 20.35 24.1 19.6 24.3 18.7 24.4 18.1 Q24.5 17.05 25.0 16.25 L25.25 15.95 25.8 15.55 26.35 15.35 Q26.75 15.35 27.3 15.9 L27.7 16.4 27.85 16.7 28.25 18.1 28.2 19.45 28.25 19.95 28.05 20.55 27.7 22.0 27.35 22.8 26.6 23.75 26.0 23.9 Q25.4 23.9 24.75 23.15 L24.45 22.75 24.35 22.15 24.2 20.95 M25.8 19.45 L26.0 20.8 26.15 21.4 26.15 21.55 Q26.15 21.8 26.3 21.65 L26.55 19.45 Q26.55 17.8 26.25 17.25 L26.0 17.55 25.8 19.45" fill="#ffffff" fill-rule="evenodd" stroke="none"/>
    <path d="M26.4 9.35 Q27.1 8.9 27.95 8.95 28.8 9.05 29.3 9.6 29.85 10.15 30.1 11.1 30.75 13.2 30.95 16.95 L31.0 19.85 Q31.0 23.25 30.0 26.65 29.5 28.2 28.85 28.85 28.1 29.6 27.0 29.7 25.9 29.75 25.05 29.15 23.8 28.25 23.4 25.55 22.5 19.85 24.05 14.05 24.55 12.25 25.3 10.8 25.9 9.7 26.4 9.35 M25.8 19.45 L26.0 17.55 26.25 17.25 Q26.55 17.8 26.55 19.45 L26.3 21.65 Q26.15 21.8 26.15 21.55 L26.15 21.4 26.0 20.8 25.8 19.45 M24.2 20.95 L24.35 22.15 24.45 22.75 24.75 23.15 Q25.4 23.9 26.0 23.9 L26.6 23.75 27.35 22.8 27.7 22.0 28.05 20.55 28.25 19.95 28.2 19.45 28.25 18.1 27.85 16.7 27.7 16.4 27.3 15.9 Q26.75 15.35 26.35 15.35 L25.8 15.55 25.25 15.95 25.0 16.25 Q24.5 17.05 24.4 18.1 L24.3 18.7 24.1 19.6 24.3 20.35 24.2 20.95" fill="#999999" fill-rule="evenodd" stroke="none"/>
  </g>
</svg>
