<?xml version="1.0" encoding="UTF-8" standalone="no"?>
<svg xmlns:ffdec="https://www.free-decompiler.com/flash" xmlns:xlink="http://www.w3.org/1999/xlink" ffdec:objectType="shape" height="32.85px" width="32.7px" xmlns="http://www.w3.org/2000/svg">
  <g transform="matrix(1.0, 0.0, 0.0, 1.0, -19.9, -3.4)">
    <path d="M38.3 14.1 Q37.4 13.25 37.55 12.05 37.65 11.35 38.15 10.85 38.65 10.3 39.3 10.15 L40.7 10.25 41.75 11.1 Q42.15 11.65 42.15 12.4 42.1 13.15 41.7 13.7 41.2 14.45 40.15 14.6 39.1 14.75 38.3 14.1 M43.0 30.1 Q44.7 29.2 45.75 28.1 L47.0 26.6 Q48.2 24.5 48.55 21.6 L48.9 18.55 Q48.85 16.35 47.9 14.2 46.85 10.95 44.4 8.85 L41.95 7.35 39.85 6.75 37.9 6.55 35.75 6.95 Q34.45 7.5 33.55 8.75 32.7 10.0 32.55 11.45 32.25 14.3 34.1 16.9 34.95 18.1 35.75 18.6 L37.65 19.45 Q39.0 19.95 39.6 20.6 L40.5 21.9 40.85 23.95 Q41.15 27.4 39.4 30.25 L38.2 31.9 Q40.85 31.35 43.0 30.1 M46.5 6.2 Q48.35 7.6 50.15 10.5 L51.75 13.75 Q53.65 19.05 51.2 25.9 L49.5 29.45 Q46.75 33.55 40.75 35.3 36.4 36.55 32.6 36.15 28.8 35.7 25.35 32.75 21.9 29.8 21.05 27.55 20.2 25.25 20.0 23.4 19.6 19.55 20.55 16.0 21.55 12.2 23.05 10.35 24.55 8.5 26.5 6.85 28.4 5.2 30.7 4.4 32.95 3.6 35.55 3.4 42.5 3.15 46.5 6.2 M33.4 24.1 Q32.1 23.5 31.0 24.45 29.95 25.45 30.35 26.8 30.85 28.2 32.3 28.35 33.05 28.4 33.75 27.9 34.4 27.45 34.6 26.7 34.85 25.95 34.45 25.2 34.1 24.45 33.4 24.1" fill="#000000" fill-rule="evenodd" stroke="none"/>
    <path d="M43.0 30.1 Q40.85 31.35 38.2 31.9 L39.4 30.25 Q41.15 27.4 40.85 23.95 L40.5 21.9 39.6 20.6 Q39.0 19.95 37.65 19.45 L35.75 18.6 Q34.95 18.1 34.1 16.9 32.25 14.3 32.55 11.45 32.7 10.0 33.55 8.75 34.45 7.5 35.75 6.95 L37.9 6.55 39.85 6.75 41.95 7.35 44.4 8.85 Q46.85 10.95 47.9 14.2 48.85 16.35 48.9 18.55 L48.55 21.6 Q48.2 24.5 47.0 26.6 L45.75 28.1 Q44.7 29.2 43.0 30.1 M38.3 14.1 Q39.1 14.75 40.15 14.6 41.2 14.45 41.7 13.7 42.1 13.15 42.15 12.4 42.15 11.65 41.75 11.1 L40.7 10.25 39.3 10.15 Q38.65 10.3 38.15 10.85 37.65 11.35 37.55 12.05 37.4 13.25 38.3 14.1 M33.4 24.1 Q34.1 24.45 34.45 25.2 34.85 25.95 34.6 26.7 34.4 27.45 33.75 27.9 33.05 28.4 32.3 28.35 30.85 28.2 30.35 26.8 29.95 25.45 31.0 24.45 32.1 23.5 33.4 24.1" fill="#ffffff" fill-rule="evenodd" stroke="none"/>
  </g>
</svg>
