<?xml version="1.0" encoding="UTF-8" standalone="no"?>
<svg xmlns:ffdec="https://www.free-decompiler.com/flash" xmlns:xlink="http://www.w3.org/1999/xlink" ffdec:objectType="shape" height="30.1px" width="30.65px" xmlns="http://www.w3.org/2000/svg">
  <g transform="matrix(1.0, 0.0, 0.0, 1.0, -20.25, -4.2)">
    <path d="M29.2 33.85 Q25.9 33.1 24.35 31.65 23.15 30.6 21.9 28.2 20.9 26.3 20.5 24.6 20.25 23.35 20.25 20.05 20.35 17.4 20.6 16.1 21.15 13.25 23.1 10.75 24.95 8.4 27.65 6.9 32.4 4.2 39.2 4.2 L42.35 4.55 Q43.8 5.0 45.3 6.1 47.85 8.05 49.3 11.0 50.85 13.95 50.9 17.1 50.95 19.25 50.2 22.75 49.55 25.5 48.7 27.0 47.35 29.55 44.55 31.35 42.05 32.95 38.85 33.65 33.9 34.85 29.2 33.85 M44.65 12.5 Q44.0 11.25 42.8 10.35 41.2 9.15 39.15 8.9 L34.75 9.15 Q33.25 9.55 31.6 10.3 L30.9 10.65 Q29.7 11.25 28.65 11.95 L26.5 13.75 25.6 14.9 25.5 15.05 Q24.15 17.0 23.9 19.25 L23.85 19.7 Q23.8 20.7 24.1 21.6 L24.7 22.8 24.85 23.0 Q25.7 24.15 27.5 24.7 L28.2 24.85 30.95 25.1 Q36.15 25.1 39.75 23.7 L41.55 22.8 43.3 21.55 43.9 20.8 Q45.3 19.05 45.4 16.15 L45.4 15.4 45.05 13.4 44.65 12.5 M34.3 10.2 Q34.65 9.9 35.25 9.9 35.75 10.0 36.05 10.2 36.65 10.6 36.8 11.45 L38.8 11.85 Q40.0 12.4 40.4 13.3 40.9 14.3 40.5 15.15 L40.05 15.7 Q39.2 16.8 37.7 16.45 L36.6 16.0 34.7 15.85 Q33.7 16.1 33.0 16.8 32.3 17.6 32.55 18.25 32.8 18.85 33.55 18.95 L34.85 18.8 37.3 18.0 38.5 17.45 39.8 17.55 40.2 17.75 40.8 18.35 Q41.15 18.95 41.05 19.65 40.95 20.35 40.5 20.85 L39.25 21.6 36.8 22.45 36.3 22.6 36.3 22.65 36.05 23.75 35.2 24.4 34.1 24.35 Q33.5 24.1 33.25 23.6 L33.05 22.85 33.05 22.65 Q30.95 22.2 29.8 20.75 L29.75 20.65 29.25 19.9 29.1 19.55 Q28.8 18.7 28.8 17.8 28.8 16.3 29.7 14.75 30.45 13.45 31.75 12.6 32.6 12.05 33.6 11.75 L33.6 11.7 33.7 11.05 33.9 10.6 34.3 10.2 M40.2 28.75 L42.3 27.55 Q44.1 26.3 44.95 24.7 43.4 26.1 41.2 27.25 L40.7 27.5 38.4 28.4 37.5 28.65 33.8 29.05 32.9 29.05 31.9 28.95 28.4 28.65 30.0 29.5 32.1 30.0 32.8 30.05 34.3 29.95 37.15 29.7 37.25 29.65 38.1 29.45 38.75 29.25 40.2 28.75" fill="#000000" fill-rule="evenodd" stroke="none"/>
    <path d="M39.75 23.7 L40.1 22.55 43.6 14.3 44.4 12.8 44.65 12.5 45.05 13.4 45.4 15.4 44.55 18.2 43.3 21.55 41.55 22.8 39.75 23.7 M34.75 9.15 L34.3 10.2 33.9 10.6 33.7 11.05 33.6 11.7 33.6 11.75 Q32.6 12.05 31.75 12.6 30.45 13.45 29.7 14.75 28.8 16.3 28.8 17.8 28.8 18.7 29.1 19.55 L29.25 19.9 29.75 20.65 28.45 24.15 28.2 24.85 27.5 24.7 Q25.7 24.15 24.85 23.0 L30.9 10.65 31.6 10.3 Q33.25 9.55 34.75 9.15 M40.7 27.5 L40.2 28.75 38.75 29.25 38.1 29.45 38.4 28.4 40.7 27.5 M37.15 29.7 L34.3 29.95 32.8 30.05 32.8 29.3 32.9 29.05 33.8 29.05 37.5 28.65 37.45 28.75 37.15 29.7 M25.5 15.05 L25.6 14.9 26.5 13.75 28.65 11.95 27.7 13.95 24.3 21.3 24.1 21.6 Q23.8 20.7 23.85 19.7 L25.15 16.25 25.5 15.05" fill="#ffffff" fill-rule="evenodd" stroke="none"/>
  </g>
</svg>
