<?xml version="1.0" encoding="UTF-8" standalone="no"?>
<svg xmlns:ffdec="https://www.free-decompiler.com/flash" xmlns:xlink="http://www.w3.org/1999/xlink" ffdec:objectType="shape" height="31.2px" width="30.55px" xmlns="http://www.w3.org/2000/svg">
  <g transform="matrix(1.0, 0.0, 0.0, 1.0, -19.9, -5.3)">
    <path d="M49.45 7.2 Q50.25 7.8 50.4 9.5 50.55 12.2 50.15 14.85 49.0 23.2 43.85 29.7 40.95 33.5 37.1 35.45 L36.2 35.85 35.9 36.05 34.3 36.5 Q33.0 36.35 31.2 35.15 26.95 32.3 25.2 30.25 L23.25 27.75 21.45 24.9 Q20.05 22.1 19.9 18.45 19.8 16.2 20.2 11.8 20.3 10.65 20.65 10.1 21.25 9.1 22.15 9.3 L23.25 9.6 24.7 9.8 Q25.85 9.9 28.25 9.1 30.6 8.3 32.4 6.75 L33.95 5.55 35.8 5.4 36.95 6.35 Q37.55 6.8 38.9 7.15 L42.45 7.9 46.0 7.65 Q47.3 7.05 47.7 7.0 L49.45 7.2 M34.85 31.85 L36.75 30.85 Q38.1 30.1 39.5 28.7 42.7 25.3 44.55 20.85 46.4 16.45 46.6 11.7 43.6 12.3 40.55 11.65 37.5 11.1 34.8 9.35 32.05 11.65 29.0 12.4 L24.65 12.55 24.05 12.35 23.85 12.35 23.1 12.1 Q22.7 16.25 24.0 20.25 25.35 24.45 28.1 27.4 30.3 29.75 34.45 32.15 L34.85 31.85 M44.55 14.25 L44.55 15.7 Q43.65 20.4 41.75 23.75 39.55 27.85 37.4 29.35 35.35 30.8 34.9 30.8 L34.3 30.85 33.65 30.55 31.25 28.8 Q29.25 27.4 27.15 23.6 25.15 20.05 24.3 15.9 24.15 14.7 24.3 14.2 L24.4 14.1 24.45 14.1 24.55 14.1 30.3 13.9 31.25 13.65 Q33.15 13.0 34.65 12.05 L34.75 13.75 35.0 22.2 34.6 26.85 Q34.5 28.4 34.8 29.15 L35.25 28.75 35.7 26.15 36.45 19.8 36.7 15.05 36.65 12.25 36.65 12.15 36.8 12.25 Q37.75 12.8 38.25 12.9 L39.3 13.2 43.35 13.8 43.45 13.8 43.85 13.8 44.3 13.9 44.4 13.9 44.55 14.25" fill="#000000" fill-rule="evenodd" stroke="none"/>
    <path d="M44.55 14.25 L44.4 13.9 44.3 13.9 43.85 13.8 43.45 13.8 43.35 13.8 39.3 13.2 38.25 12.9 Q37.75 12.8 36.8 12.25 L36.65 12.15 36.65 12.25 36.7 15.05 36.45 19.8 35.7 26.15 35.25 28.75 34.8 29.15 Q34.5 28.4 34.6 26.85 L35.0 22.2 34.75 13.75 34.65 12.05 Q33.15 13.0 31.25 13.65 L30.3 13.9 24.55 14.1 24.45 14.1 24.4 14.1 24.3 14.2 Q24.15 14.7 24.3 15.9 25.15 20.05 27.15 23.6 29.25 27.4 31.25 28.8 L33.65 30.55 34.3 30.85 34.9 30.8 Q35.35 30.8 37.4 29.35 39.55 27.85 41.75 23.75 43.65 20.4 44.55 15.7 L44.55 14.25 M34.85 31.85 L34.45 32.15 Q30.3 29.75 28.1 27.4 25.35 24.45 24.0 20.25 22.7 16.25 23.1 12.1 L23.85 12.35 24.05 12.35 24.65 12.55 29.0 12.4 Q32.05 11.65 34.8 9.35 37.5 11.1 40.55 11.65 43.6 12.3 46.6 11.7 46.4 16.45 44.55 20.85 42.7 25.3 39.5 28.7 38.1 30.1 36.75 30.85 L34.85 31.85" fill="#ffffff" fill-rule="evenodd" stroke="none"/>
  </g>
</svg>
