<?xml version="1.0" encoding="UTF-8" standalone="no"?>
<svg xmlns:ffdec="https://www.free-decompiler.com/flash" xmlns:xlink="http://www.w3.org/1999/xlink" ffdec:objectType="shape" height="30.7px" width="35.2px" xmlns="http://www.w3.org/2000/svg">
  <g transform="matrix(1.0, 0.0, 0.0, 1.0, -17.5, -5.7)">
    <path d="M50.85 18.5 Q50.25 21.65 48.65 24.35 47.25 26.65 45.15 28.65 42.65 30.9 38.7 32.75 L38.45 32.85 Q33.5 35.0 30.05 34.45 29.25 34.35 29.05 33.9 28.9 33.6 29.05 33.3 L28.9 32.9 28.55 31.3 Q27.9 28.45 23.9 25.7 L21.4 23.75 Q20.0 22.35 19.45 20.35 18.85 18.35 19.25 16.35 20.0 12.45 23.5 9.8 25.15 8.55 26.8 8.15 29.75 7.45 32.5 9.15 L34.2 10.6 35.0 11.75 36.6 10.2 Q37.05 9.75 37.6 9.4 39.9 7.9 42.5 7.5 44.8 7.15 46.5 7.9 48.3 8.7 49.75 11.0 50.65 12.55 51.0 14.1 51.4 15.95 50.85 18.5" fill="#000000" fill-rule="evenodd" stroke="none"/>
    <path d="M50.85 18.5 Q51.4 15.95 51.0 14.1 50.65 12.55 49.75 11.0 48.3 8.7 46.5 7.9 44.8 7.15 42.5 7.5 39.9 7.9 37.6 9.4 37.05 9.75 36.6 10.2 L35.0 11.75 34.2 10.6 32.5 9.15 Q29.75 7.45 26.8 8.15 25.15 8.55 23.5 9.8 20.0 12.45 19.25 16.35 18.85 18.35 19.45 20.35 20.0 22.35 21.4 23.75 L23.9 25.7 Q27.9 28.45 28.55 31.3 L28.9 32.9 29.05 33.3 Q28.9 33.6 29.05 33.9 29.25 34.35 30.05 34.45 33.5 35.0 38.45 32.85 L38.7 32.75 Q42.65 30.9 45.15 28.65 47.25 26.65 48.65 24.35 50.25 21.65 50.85 18.5 M25.45 30.45 Q24.85 28.55 22.25 26.5 L20.3 24.85 18.6 22.85 Q16.65 19.8 18.1 15.35 19.0 12.65 20.85 10.55 22.75 8.35 25.3 7.35 27.95 6.3 30.8 6.8 33.7 7.25 35.7 9.15 L35.8 9.25 38.0 7.8 Q39.8 6.7 40.8 6.3 44.0 5.05 47.25 6.4 50.45 7.75 51.9 10.95 52.85 13.3 52.7 16.65 52.45 22.2 49.45 26.55 47.55 29.3 45.0 31.0 L44.5 31.4 41.1 33.6 Q35.95 36.05 30.7 36.35 28.05 36.55 26.95 35.45 26.2 34.75 25.95 33.15 L25.45 30.45" fill="#ffffff" fill-rule="evenodd" stroke="none"/>
  </g>
</svg>
