<?xml version="1.0" encoding="UTF-8" standalone="no"?>
<svg xmlns:ffdec="https://www.free-decompiler.com/flash" xmlns:xlink="http://www.w3.org/1999/xlink" ffdec:objectType="shape" height="28.15px" width="27.05px" xmlns="http://www.w3.org/2000/svg">
  <g transform="matrix(1.0, 0.0, 0.0, 1.0, -21.75, -5.75)">
    <path d="M44.9 23.95 L45.0 23.8 Q45.85 23.15 47.05 23.5 48.2 23.8 48.6 24.8 49.15 26.15 48.05 28.15 45.65 32.2 40.55 33.45 36.35 34.5 31.25 33.05 25.25 31.25 23.05 27.2 21.95 25.2 21.8 22.25 21.4 16.65 24.5 11.85 26.35 8.9 28.9 7.5 30.65 6.5 33.5 6.05 L38.25 5.95 Q40.4 6.35 42.25 7.8 44.0 9.25 45.0 11.25 46.95 15.4 45.35 19.9 44.75 21.65 43.7 23.05 L41.85 24.8 Q40.1 26.0 37.9 26.2 35.7 26.45 33.65 25.7 31.15 24.85 30.1 23.05 29.25 21.65 29.35 19.7 29.35 17.85 30.15 16.3 31.4 13.85 33.95 13.15 36.7 12.5 38.7 14.2 40.0 15.35 39.95 16.75 39.95 17.45 39.45 18.05 38.9 18.65 38.2 18.7 L36.75 18.35 35.35 18.25 Q34.8 18.45 34.65 18.95 34.25 19.75 35.0 20.5 35.6 21.0 36.55 21.1 38.2 21.2 39.45 19.9 40.5 18.85 40.85 17.1 41.25 15.0 40.35 13.25 39.25 11.35 37.3 10.95 L34.3 11.2 Q32.15 11.7 31.1 12.35 29.25 13.6 27.95 16.85 27.0 19.5 27.0 21.2 26.9 23.65 28.25 25.4 29.75 27.35 33.3 28.2 L38.8 28.65 Q41.9 28.15 43.4 25.9 L44.15 24.8 44.9 23.95" fill="#000000" fill-rule="evenodd" stroke="none"/>
    <path d="M43.7 23.05 Q44.2 23.2 44.6 23.6 L44.9 23.95 44.15 24.8 43.4 25.9 Q41.9 28.15 38.8 28.65 L33.3 28.2 Q29.75 27.35 28.25 25.4 26.9 23.65 27.0 21.2 27.0 19.5 27.95 16.85 29.25 13.6 31.1 12.35 32.15 11.7 34.3 11.2 L37.3 10.95 Q39.25 11.35 40.35 13.25 41.25 15.0 40.85 17.1 40.5 18.85 39.45 19.9 38.2 21.2 36.55 21.1 35.6 21.0 35.0 20.5 34.25 19.75 34.65 18.95 34.8 18.45 35.35 18.25 L36.75 18.35 38.2 18.7 Q38.9 18.65 39.45 18.05 39.95 17.45 39.95 16.75 40.0 15.35 38.7 14.2 36.7 12.5 33.95 13.15 31.4 13.85 30.15 16.3 29.35 17.85 29.35 19.7 29.25 21.65 30.1 23.05 31.15 24.85 33.65 25.7 35.7 26.45 37.9 26.2 40.1 26.0 41.85 24.8 L43.7 23.05" fill="#ffffff" fill-rule="evenodd" stroke="none"/>
  </g>
</svg>
