<?xml version="1.0" encoding="UTF-8" standalone="no"?>
<svg xmlns:ffdec="https://www.free-decompiler.com/flash" xmlns:xlink="http://www.w3.org/1999/xlink" ffdec:objectType="shape" height="31.25px" width="33.65px" xmlns="http://www.w3.org/2000/svg">
  <g transform="matrix(1.0, 0.0, 0.0, 1.0, -18.4, -4.4)">
    <path d="M26.2 8.25 Q25.1 8.05 25.05 7.45 24.95 6.9 25.8 6.35 27.95 5.0 30.6 4.55 L35.65 4.7 Q38.2 5.3 40.3 6.8 42.45 8.35 43.8 10.5 44.6 11.7 45.2 13.4 L47.3 12.85 47.0 12.4 Q46.8 11.95 46.95 11.5 47.05 11.0 47.45 10.8 L48.4 10.75 49.35 11.1 51.25 11.6 Q52.05 12.0 52.05 12.9 L52.0 13.35 52.0 13.4 Q52.05 13.95 51.45 14.65 L50.55 15.75 50.0 16.7 Q49.5 17.3 49.05 17.15 48.5 17.05 48.4 16.45 48.3 16.1 48.5 15.4 L48.65 14.9 46.0 16.0 Q46.95 20.2 46.45 23.85 46.05 26.3 45.05 28.15 42.6 32.6 36.25 34.85 32.45 36.2 30.0 35.25 L29.05 34.6 Q28.65 34.15 28.8 33.65 28.95 33.15 29.85 32.75 30.55 32.45 31.6 32.1 L30.0 22.6 26.15 24.2 Q26.4 24.65 26.3 25.25 L25.6 26.65 25.1 27.8 24.2 28.55 Q23.75 28.7 23.2 28.3 L22.95 27.95 22.7 28.25 21.9 29.0 20.85 29.1 Q20.2 28.8 20.3 28.0 20.3 27.55 20.6 26.75 L21.05 25.75 Q20.4 25.55 20.1 24.85 L19.95 24.25 18.75 23.45 Q18.2 22.7 18.5 22.0 18.8 21.4 19.55 21.25 L20.75 21.25 20.7 20.7 Q20.85 19.75 21.7 19.6 L23.4 19.9 24.65 20.75 24.75 20.85 28.45 19.3 29.2 19.05 28.45 16.0 26.8 8.4 26.8 8.3 26.2 8.25 M35.2 30.85 Q38.25 29.6 39.85 27.9 42.15 25.4 42.3 21.55 42.4 19.7 41.95 17.65 L32.7 21.5 32.95 22.8 33.65 27.1 Q34.05 29.45 34.55 31.1 L35.2 30.85 M38.7 10.95 Q35.9 8.05 30.5 8.15 L28.8 8.3 30.85 14.95 31.8 18.05 38.85 15.4 41.0 14.7 Q39.9 12.15 38.7 10.95" fill="#000000" fill-rule="evenodd" stroke="none"/>
    <path d="M38.7 10.95 Q39.9 12.15 41.0 14.7 L38.85 15.4 31.8 18.05 30.85 14.95 28.8 8.3 30.5 8.15 Q35.9 8.05 38.7 10.95 M35.2 30.85 L34.55 31.1 Q34.05 29.45 33.65 27.1 L32.95 22.8 32.7 21.5 41.95 17.65 Q42.4 19.7 42.3 21.55 42.15 25.4 39.85 27.9 38.25 29.6 35.2 30.85" fill="#ffffff" fill-rule="evenodd" stroke="none"/>
  </g>
</svg>
