<?xml version="1.0" encoding="UTF-8" standalone="no"?>
<svg xmlns:ffdec="https://www.free-decompiler.com/flash" xmlns:xlink="http://www.w3.org/1999/xlink" ffdec:objectType="shape" height="41.95px" width="75.3px" xmlns="http://www.w3.org/2000/svg">
  <g transform="matrix(1.0, 0.0, 0.0, 1.0, 0.7, 0.8)">
    <path d="M74.1 -0.3 L74.1 40.65 -0.2 40.65 -0.2 -0.3 74.1 -0.3" fill="#999999" fill-rule="evenodd" stroke="none"/>
    <path d="M74.1 -0.3 L74.1 40.65 M-0.2 40.65 L-0.2 -0.3" fill="none" stroke="#999999" stroke-linecap="round" stroke-linejoin="round" stroke-width="1.0"/>
    <path d="M60.8 27.2 L60.65 28.1 Q60.4 28.55 59.95 28.55 59.4 28.55 59.1 27.6 L58.4 24.8 Q58.1 23.45 58.3 22.4 58.5 21.3 59.7 19.75 L62.5 16.55 63.95 14.45 Q64.3 13.45 64.1 12.15 63.65 10.05 61.95 8.9 60.15 7.75 58.3 8.45 57.35 8.8 56.75 9.6 56.15 10.4 56.1 11.4 L56.2 12.7 56.35 13.95 Q56.3 14.85 55.8 15.6 55.3 16.4 54.5 16.8 L52.8 17.0 Q51.85 16.95 51.15 16.35 49.7 15.2 49.8 13.1 49.8 11.65 50.7 9.5 51.75 7.25 52.8 6.15 55.25 3.55 59.05 3.4 61.0 3.4 62.45 3.95 64.7 4.8 66.25 6.9 67.7 8.85 68.2 11.3 68.75 14.6 67.45 16.9 L65.6 19.05 62.9 21.45 Q61.35 22.8 61.1 23.55 L60.9 25.1 60.8 27.2 M38.8 27.2 L38.65 28.1 37.95 28.55 Q37.4 28.55 37.1 27.6 L36.4 24.8 Q36.1 23.45 36.3 22.4 36.5 21.3 37.7 19.75 L40.5 16.55 41.95 14.45 Q42.3 13.45 42.1 12.15 41.65 10.05 39.95 8.9 38.15 7.75 36.3 8.45 35.35 8.8 34.75 9.6 34.15 10.4 34.1 11.4 L34.2 12.7 34.35 13.95 33.8 15.6 Q33.3 16.4 32.5 16.8 L30.8 17.0 Q29.85 16.95 29.15 16.35 27.7 15.2 27.8 13.1 27.8 11.65 28.7 9.5 29.75 7.25 30.8 6.15 33.25 3.55 37.05 3.4 39.0 3.4 40.45 3.95 42.7 4.8 44.25 6.9 45.7 8.85 46.2 11.3 46.75 14.6 45.45 16.9 44.9 17.85 43.6 19.05 L40.9 21.45 Q39.35 22.8 39.1 23.55 L38.9 25.1 38.8 27.2 M57.75 34.0 L57.75 33.85 Q57.75 33.2 58.05 32.65 58.4 32.05 59.05 31.7 L59.4 31.5 59.95 31.3 61.15 31.25 Q61.65 31.35 62.1 31.7 L62.65 32.5 62.8 32.85 Q63.05 33.35 62.95 34.0 L62.5 35.25 61.45 36.15 60.3 36.3 59.35 36.2 58.95 36.05 Q57.75 35.35 57.75 34.0 M35.75 34.0 L35.75 33.85 Q35.75 33.2 36.05 32.65 36.4 32.05 37.05 31.7 L37.4 31.5 37.95 31.3 39.15 31.25 40.1 31.7 40.65 32.5 40.8 32.85 Q41.05 33.35 40.95 34.0 L40.5 35.25 Q40.05 35.95 39.45 36.15 L38.3 36.3 37.35 36.2 36.95 36.05 Q35.75 35.35 35.75 34.0 M16.8 27.2 L16.65 28.1 Q16.4 28.55 15.95 28.55 15.4 28.55 15.1 27.6 L14.4 24.8 Q14.1 23.45 14.3 22.4 14.5 21.3 15.7 19.75 L18.5 16.55 19.95 14.45 Q20.3 13.45 20.1 12.15 19.65 10.05 17.95 8.9 16.15 7.75 14.3 8.45 13.35 8.8 12.75 9.6 12.15 10.4 12.1 11.4 L12.2 12.7 12.35 13.95 11.8 15.6 10.5 16.8 8.8 17.0 Q7.85 16.95 7.15 16.35 5.7 15.2 5.8 13.1 5.8 11.65 6.7 9.5 7.75 7.25 8.8 6.15 11.25 3.55 15.05 3.4 17.0 3.4 18.45 3.95 20.7 4.8 22.25 6.9 23.7 8.85 24.2 11.3 24.75 14.6 23.45 16.9 L21.6 19.05 18.9 21.45 Q17.35 22.8 17.1 23.55 L16.9 25.1 16.8 27.2 M13.75 34.0 L13.75 33.85 Q13.75 33.2 14.05 32.65 14.4 32.05 15.05 31.7 L15.4 31.5 15.95 31.3 17.15 31.25 Q17.65 31.35 18.1 31.7 L18.65 32.5 18.8 32.85 Q19.05 33.35 18.95 34.0 L18.5 35.25 17.45 36.15 16.3 36.3 15.35 36.2 14.95 36.05 Q13.75 35.35 13.75 34.0" fill="#000000" fill-rule="evenodd" stroke="none"/>
  </g>
</svg>
