<?xml version="1.0" encoding="UTF-8" standalone="no"?>
<svg xmlns:ffdec="https://www.free-decompiler.com/flash" xmlns:xlink="http://www.w3.org/1999/xlink" ffdec:objectType="shape" height="38.6px" width="43.2px" xmlns="http://www.w3.org/2000/svg">
  <g transform="matrix(1.0, 0.0, 0.0, 1.0, -7.75, -2.55)">
    <path d="M27.3 40.25 L27.3 41.15 23.05 41.15 Q22.9 36.1 23.2 30.85 L22.85 30.15 Q22.65 29.35 23.15 28.6 23.7 27.9 24.5 27.8 L25.95 27.95 26.2 27.95 26.45 27.75 27.4 26.85 Q28.5 25.65 29.05 23.2 L29.35 21.25 29.15 19.85 Q28.85 17.9 28.3 16.8 L28.1 16.45 Q27.1 16.05 26.85 15.6 26.35 14.9 26.9 14.0 L27.4 13.4 Q26.75 12.45 26.85 10.4 27.15 6.9 28.2 5.45 29.1 4.2 30.3 4.2 30.95 4.15 31.45 4.65 31.95 5.15 31.85 5.75 L31.5 6.5 31.0 7.25 30.6 8.45 Q30.4 9.55 30.7 10.8 L30.75 10.95 Q32.2 10.0 33.9 9.5 L35.05 9.2 Q35.2 7.75 35.9 6.3 36.85 4.4 38.45 3.2 39.2 2.6 39.9 2.55 L40.65 2.7 41.15 3.3 Q41.4 4.05 40.3 5.1 38.7 6.7 38.7 8.3 L38.8 9.0 39.55 9.1 Q40.9 9.3 42.2 9.85 42.45 8.8 42.95 7.9 44.1 5.95 46.15 5.25 L48.6 5.35 Q49.6 5.9 49.3 6.6 L48.4 7.25 Q47.3 7.75 46.6 8.75 45.95 9.8 45.85 10.95 L45.85 12.05 Q47.5 13.5 48.6 15.45 49.8 17.6 50.3 20.55 50.65 22.6 50.8 26.0 51.1 33.95 50.7 41.15 L46.85 41.15 46.85 40.95 46.95 39.15 Q47.25 30.4 46.75 24.5 46.25 19.0 44.25 16.35 42.15 13.6 38.6 13.2 L37.95 13.15 37.0 13.3 36.65 13.2 Q34.5 13.45 32.7 14.8 34.05 15.85 35.1 17.3 35.8 18.4 35.95 19.05 L36.15 20.85 36.15 21.35 38.0 21.25 Q39.15 21.4 40.0 22.05 41.4 23.05 41.7 24.7 42.0 25.9 41.7 27.05 41.55 27.95 41.0 28.5 40.1 29.4 38.3 29.4 35.95 29.5 34.35 28.45 L33.95 28.1 32.2 29.35 Q30.1 30.55 27.7 31.35 L27.4 31.45 Q27.2 36.05 27.3 40.25 M41.1 20.7 L40.9 19.75 41.05 18.95 Q41.25 18.3 41.95 17.95 L43.85 17.85 Q44.75 18.25 45.1 19.25 45.3 20.05 44.9 20.8 44.5 21.6 43.75 21.85 L42.2 21.75 Q41.4 21.4 41.1 20.7 M21.0 13.55 L19.4 13.4 18.3 12.9 Q17.9 12.5 17.85 11.85 17.8 11.2 18.15 10.7 18.5 10.35 19.0 10.1 19.8 9.65 20.5 9.65 21.75 9.65 23.0 10.9 L23.95 12.1 24.55 13.65 24.85 14.45 25.05 15.3 25.1 15.95 25.15 17.0 Q25.05 17.6 24.6 17.85 24.15 17.95 23.9 17.6 L23.65 16.8 23.05 15.6 22.15 14.25 21.65 13.7 21.0 13.55 M13.2 19.0 L12.05 19.4 11.2 19.85 9.95 20.4 8.85 20.3 Q8.25 20.1 8.0 19.6 7.75 19.15 7.75 18.5 L7.95 17.35 8.45 16.65 Q9.2 15.7 10.7 15.35 L13.35 15.15 14.75 15.3 16.5 15.95 17.7 16.5 Q19.85 17.7 21.0 19.9 21.35 20.55 21.3 20.95 21.1 21.6 20.5 21.6 L19.75 21.4 17.65 20.15 Q16.3 19.25 15.55 18.9 L15.05 18.75 14.4 18.85 13.2 19.0 M16.1 25.55 L17.2 25.1 19.3 24.55 20.25 24.35 21.1 24.3 Q21.8 24.35 22.45 24.85 L22.85 25.65 22.45 26.1 21.85 26.3 20.5 26.55 20.15 26.65 19.8 26.9 18.25 28.7 18.05 29.15 17.95 29.65 Q17.8 30.4 16.95 30.75 L16.1 30.9 15.15 30.65 Q14.6 30.45 14.35 30.1 14.0 29.7 14.0 28.5 L14.25 27.2 14.7 26.6 15.3 26.05 16.1 25.55 M35.7 16.95 L35.9 15.95 Q36.25 15.25 37.0 14.9 L38.5 14.75 39.75 15.6 Q40.25 16.2 40.2 17.0 40.2 17.75 39.7 18.4 L38.4 19.15 36.9 18.95 Q36.15 18.55 35.85 17.85 L35.7 16.95 M31.6 22.25 L32.5 21.1 Q32.8 20.35 31.95 19.2 L30.95 18.2 31.1 18.55 31.5 20.25 31.5 22.4 31.6 22.25 M30.8 26.15 L31.45 25.5 31.2 24.3 31.2 24.15 30.4 26.4 30.8 26.15" fill="#000000" fill-rule="evenodd" stroke="none"/>
    <path d="M46.95 39.15 Q46.25 39.85 44.35 39.85 L29.9 40.55 27.3 40.25 Q27.2 36.05 27.4 31.45 L27.7 31.35 Q30.1 30.55 32.2 29.35 L33.95 28.1 34.35 28.45 Q35.95 29.5 38.3 29.4 40.1 29.4 41.0 28.5 41.55 27.95 41.7 27.05 42.0 25.9 41.7 24.7 41.4 23.05 40.0 22.05 39.15 21.4 38.0 21.25 L36.15 21.35 36.15 20.85 35.95 19.05 Q35.8 18.4 35.1 17.3 34.05 15.85 32.7 14.8 34.5 13.45 36.65 13.2 L37.0 13.3 37.95 13.15 38.6 13.2 Q42.15 13.6 44.25 16.35 46.25 19.0 46.75 24.5 47.25 30.4 46.95 39.15 M41.1 20.7 Q41.4 21.4 42.2 21.75 L43.75 21.85 Q44.5 21.6 44.9 20.8 45.3 20.05 45.1 19.25 44.75 18.25 43.85 17.85 L41.95 17.95 Q41.25 18.3 41.05 18.95 L40.9 19.75 41.1 20.7 M30.8 26.15 L30.4 26.4 31.2 24.15 31.2 24.3 31.45 25.5 30.8 26.15 M31.6 22.25 L31.5 22.4 31.5 20.25 31.1 18.55 30.95 18.2 31.95 19.2 Q32.8 20.35 32.5 21.1 L31.6 22.25 M35.7 16.95 L35.85 17.85 Q36.15 18.55 36.9 18.95 L38.4 19.15 39.7 18.4 Q40.2 17.75 40.2 17.0 40.25 16.2 39.75 15.6 L38.5 14.75 37.0 14.9 Q36.25 15.25 35.9 15.95 L35.7 16.95" fill="#999999" fill-rule="evenodd" stroke="none"/>
  </g>
</svg>
