<?xml version="1.0" encoding="UTF-8" standalone="no"?>
<svg xmlns:ffdec="https://www.free-decompiler.com/flash" xmlns:xlink="http://www.w3.org/1999/xlink" ffdec:objectType="shape" height="24.95px" width="22.65px" xmlns="http://www.w3.org/2000/svg">
  <g transform="matrix(1.0, 0.0, 0.0, 1.0, -24.05, -7.25)">
    <path d="M39.15 7.85 Q41.55 8.6 42.95 9.9 45.0 11.75 45.95 15.25 47.2 19.35 46.4 23.0 45.8 26.15 43.7 28.65 42.35 30.25 41.0 30.9 39.85 31.45 37.85 31.85 33.3 32.6 30.65 31.7 27.2 30.5 25.4 26.95 23.85 23.85 24.1 19.85 24.45 15.7 26.45 12.6 28.8 9.15 32.35 7.8 34.0 7.25 35.65 7.25 L39.15 7.85" fill="#717171" fill-rule="evenodd" stroke="none"/>
    <path d="M33.2 13.15 L33.4 12.4 Q33.75 11.0 35.15 10.65 36.55 10.35 37.45 11.5 37.85 12.05 38.05 13.7 L38.15 18.35 38.25 23.0 38.25 23.4 39.3 23.45 Q40.05 23.65 40.55 24.3 41.05 24.95 41.1 25.75 L40.65 27.2 Q40.15 27.9 39.4 28.1 L38.2 28.3 34.0 28.35 31.9 28.25 Q30.75 28.1 30.2 27.45 29.7 26.9 29.8 26.1 29.9 25.3 30.5 24.9 L31.35 24.5 33.35 24.1 33.45 22.65 33.5 20.25 33.5 17.8 31.45 17.95 Q30.15 17.75 29.95 16.75 29.65 15.75 30.75 14.75 31.35 14.3 32.75 13.6 L33.2 13.15" fill="#000000" fill-rule="evenodd" stroke="none"/>
  </g>
</svg>
