<?xml version="1.0" encoding="UTF-8" standalone="no"?>
<svg xmlns:ffdec="https://www.free-decompiler.com/flash" xmlns:xlink="http://www.w3.org/1999/xlink" ffdec:objectType="shape" height="40.65px" width="75.95px" xmlns="http://www.w3.org/2000/svg">
  <g transform="matrix(1.0, 0.0, 0.0, 1.0, 0.8, 0.7)">
    <path d="M13.55 0.1 L12.95 0.8 11.25 1.55 Q10.0 2.1 8.9 3.45 8.2 4.3 7.15 6.1 4.95 9.9 4.05 11.9 2.55 15.25 2.2 18.15 2.05 19.5 2.15 22.3 L2.45 27.65 Q2.65 30.7 3.05 32.15 3.35 33.5 4.35 36.1 5.5 38.9 6.15 39.95 L1.35 39.95 1.15 39.55 Q-0.35 36.0 -0.75 33.95 L-0.8 33.75 -0.8 15.8 -0.15 13.25 Q1.4 8.45 6.2 2.35 7.85 0.25 8.8 -0.4 L9.25 -0.7 13.6 -0.7 13.55 0.1 M12.85 11.25 L11.85 14.9 10.7 20.65 Q10.2 23.85 10.35 26.4 10.5 29.5 11.65 32.1 12.9 34.9 15.1 36.65 L16.75 38.0 17.35 38.9 17.65 39.2 18.95 39.95 10.8 39.95 9.7 38.8 Q6.7 35.25 5.85 30.75 5.35 28.3 5.45 24.65 5.45 21.5 5.8 19.5 L6.65 15.9 8.0 11.3 Q10.0 5.95 13.25 2.95 17.25 -0.8 22.2 -0.65 23.25 -0.65 23.9 -0.25 24.8 0.45 24.45 1.25 24.15 1.85 22.6 2.2 19.3 2.8 16.6 5.4 14.05 7.8 12.85 11.25 M53.4 2.25 Q54.45 2.95 57.15 5.55 60.3 8.8 61.15 10.65 61.9 12.2 62.55 16.2 L63.15 22.15 Q63.25 25.5 62.35 28.0 61.6 30.1 59.25 33.3 56.05 37.65 53.35 39.25 L52.0 39.95 22.55 39.95 21.7 39.55 Q20.15 38.6 18.1 36.5 14.9 33.2 14.05 30.2 13.6 28.9 13.4 25.55 13.2 22.25 13.4 20.6 13.55 19.2 14.2 16.95 L15.1 13.3 15.5 11.15 Q15.7 9.9 16.05 9.05 17.05 6.6 20.25 4.3 23.95 1.7 28.45 -0.1 L30.25 -0.7 45.45 -0.7 46.95 -0.4 48.75 0.05 48.45 -0.45 48.4 -0.7 59.05 -0.7 59.2 -0.6 61.2 0.35 Q64.15 1.85 66.15 5.1 67.75 7.8 68.7 11.6 70.6 18.85 69.9 27.35 69.6 29.9 69.15 31.1 68.55 32.65 66.65 34.95 63.9 38.35 61.8 39.95 L53.35 39.95 54.0 39.25 Q54.65 38.85 56.2 38.4 58.05 37.75 59.8 36.1 L62.75 32.8 Q64.65 30.4 65.15 28.95 L65.7 26.4 Q66.4 19.3 64.15 11.5 62.6 6.3 59.8 4.6 L56.65 3.05 55.95 2.55 55.25 2.45 53.0 1.6 52.25 1.5 53.4 2.25 M66.2 39.75 Q66.9 38.8 68.7 37.25 69.9 35.95 70.6 33.85 L71.5 29.9 Q72.55 24.5 72.6 21.2 L72.2 15.3 71.75 11.65 Q71.15 8.25 69.5 5.65 67.65 2.7 64.9 1.45 63.9 1.0 63.6 0.75 62.85 0.2 63.05 -0.55 L63.1 -0.7 67.4 -0.7 Q70.4 0.7 72.55 4.15 74.1 6.65 75.15 10.75 L75.15 32.5 74.95 33.4 74.4 35.8 Q74.75 36.15 74.9 36.75 L74.85 38.45 73.95 39.95 66.1 39.95 66.2 39.75 M45.3 35.9 L44.35 36.4 48.5 35.6 Q50.95 34.85 52.4 33.5 L53.95 31.6 55.35 29.6 56.65 28.0 57.7 26.3 Q58.4 24.8 58.2 22.05 L57.55 16.75 Q57.15 13.85 56.4 12.4 55.7 11.15 53.85 9.4 51.65 7.2 50.1 6.2 48.65 5.3 46.7 4.8 48.1 5.45 49.45 6.5 52.45 8.85 53.9 12.15 56.0 17.05 54.9 23.7 54.45 26.3 53.6 28.15 51.6 32.35 45.3 35.9 M33.0 36.1 Q28.05 34.25 26.25 33.2 22.55 31.05 21.25 27.95 20.05 25.1 20.6 20.05 21.25 14.7 22.7 11.35 24.05 8.45 26.1 6.65 L22.65 8.55 Q21.05 9.45 20.5 10.15 20.0 10.9 19.7 12.35 18.15 19.05 18.1 23.55 18.0 27.35 19.15 29.5 19.85 31.0 21.8 32.65 L24.5 34.6 28.6 35.85 35.25 36.9 33.0 36.1 M34.85 3.45 L32.35 3.9 35.95 3.45 34.85 3.45" fill="#717171" fill-rule="evenodd" stroke="none"/>
  </g>
</svg>
