<?xml version="1.0" encoding="UTF-8" standalone="no"?>
<svg xmlns:ffdec="https://www.free-decompiler.com/flash" xmlns:xlink="http://www.w3.org/1999/xlink" ffdec:objectType="shape" height="35.0px" width="67.0px" xmlns="http://www.w3.org/2000/svg">
  <g transform="matrix(1.0, 0.0, 0.0, 1.0, -3.5, -4.55)">
    <path d="M63.85 9.55 L63.15 9.8 Q62.9 10.0 62.8 11.15 L62.25 12.4 Q61.75 13.0 61.1 13.2 60.4 13.45 59.7 13.2 L58.55 12.45 Q57.75 11.5 57.95 9.45 57.95 8.65 58.2 8.1 L59.05 7.05 60.95 5.45 Q62.5 4.55 64.95 4.55 L67.0 4.9 Q68.0 5.4 69.1 7.1 L70.1 8.85 Q70.4 9.6 70.5 11.2 70.5 13.4 69.65 14.6 L68.55 15.75 66.65 17.25 65.2 18.35 Q64.95 18.75 64.95 20.3 L64.55 21.55 Q64.0 22.2 63.35 22.1 L62.6 21.65 Q61.95 21.0 61.85 19.3 L61.85 17.5 Q62.15 15.7 63.8 14.45 L65.35 13.3 Q66.25 12.5 66.15 11.55 66.15 10.95 65.6 10.2 65.2 9.4 64.65 9.35 L63.85 9.55 M31.1 37.05 Q31.7 34.65 32.05 33.85 L32.4 33.15 29.9 32.1 Q27.25 30.8 25.95 29.55 24.25 27.75 23.7 25.0 23.2 22.5 23.7 19.75 L24.1 17.9 23.15 17.4 Q21.75 16.4 21.65 14.9 L21.75 13.9 Q22.0 12.5 22.4 11.55 23.05 10.25 23.9 9.65 24.95 9.05 26.2 9.05 L28.55 9.4 29.5 9.75 30.1 10.1 30.75 9.7 Q32.15 8.6 33.25 8.05 34.75 7.25 36.95 6.85 40.05 6.3 42.85 6.9 45.95 7.55 47.95 9.5 49.3 10.8 51.2 14.45 51.95 16.0 52.1 16.7 L52.3 19.3 52.05 22.65 51.85 23.6 52.1 23.6 Q53.6 23.8 54.1 25.2 L54.25 26.75 53.85 28.2 53.55 28.9 53.6 30.05 53.5 33.05 53.4 34.75 Q53.05 35.9 51.8 36.55 L49.45 37.1 45.7 36.7 45.6 36.7 45.6 37.9 45.4 39.55 31.1 39.55 Q30.75 38.75 31.1 37.05 M30.3 29.3 L31.55 30.15 33.75 30.45 38.4 30.2 42.95 30.1 45.4 29.85 Q47.1 29.3 47.7 27.45 48.25 25.8 47.4 24.1 L46.5 22.85 Q45.7 22.05 44.7 21.85 L43.05 21.8 41.4 22.0 38.6 22.15 35.8 22.35 Q32.4 22.75 30.65 24.25 28.95 25.7 29.15 27.3 29.35 28.35 30.3 29.3 M44.45 16.4 Q44.1 17.0 44.2 17.7 44.3 18.5 44.8 19.0 45.3 19.45 45.95 19.55 L47.2 19.4 48.15 18.5 48.4 17.25 Q48.35 16.55 47.85 16.05 47.4 15.55 46.75 15.4 L45.45 15.55 Q44.85 15.8 44.45 16.4 M47.1 31.25 L45.15 32.7 47.1 32.75 49.15 32.75 49.3 31.5 Q49.4 30.8 49.15 30.45 L48.6 29.9 47.1 31.25 M43.4 24.65 L44.1 24.85 Q44.8 25.15 44.9 25.8 45.1 26.2 44.85 26.5 44.65 26.8 44.2 26.9 L43.45 26.9 37.1 27.15 33.35 27.3 32.55 27.05 32.45 26.8 32.65 26.6 Q33.25 26.0 34.9 25.4 L36.0 25.0 37.25 24.85 38.7 24.75 40.25 24.65 43.4 24.65 M65.7 25.3 Q66.25 26.0 66.2 26.9 66.2 27.8 65.65 28.45 65.1 29.1 64.15 29.2 63.2 29.25 62.55 28.7 61.95 28.2 61.75 27.2 61.6 25.85 62.45 25.0 63.45 24.1 64.65 24.5 65.3 24.7 65.7 25.3 M28.2 21.7 Q28.85 22.55 29.8 22.55 L31.05 22.2 31.85 21.15 Q32.0 20.45 31.75 19.8 L30.85 18.8 29.55 18.55 Q28.9 18.7 28.4 19.2 27.95 19.7 27.9 20.4 27.85 21.15 28.2 21.7 M23.95 16.35 L24.7 16.25 Q25.45 15.9 25.35 15.05 25.2 14.2 24.35 14.05 23.8 13.95 23.45 14.3 22.95 14.7 23.05 15.5 23.25 16.2 23.95 16.35 M27.65 10.4 Q27.15 9.95 26.4 10.15 25.75 10.4 25.6 11.0 L25.7 11.8 26.3 12.4 27.15 12.45 27.8 11.95 28.0 11.2 27.65 10.4 M9.45 9.55 Q8.95 9.65 8.75 9.8 8.5 10.0 8.4 11.15 L7.85 12.4 Q7.35 13.0 6.7 13.2 6.0 13.45 5.3 13.2 L4.15 12.45 Q3.35 11.5 3.55 9.45 3.55 8.65 3.8 8.1 L4.65 7.05 6.55 5.45 Q8.1 4.55 10.55 4.55 L12.6 4.9 Q13.6 5.4 14.7 7.1 L15.7 8.85 Q16.0 9.6 16.1 11.2 16.1 13.4 15.25 14.6 L14.15 15.75 12.25 17.25 10.8 18.35 Q10.55 18.75 10.55 20.3 L10.15 21.55 Q9.6 22.2 8.95 22.1 8.5 22.05 8.2 21.65 7.55 21.0 7.45 19.3 L7.45 17.5 Q7.75 15.7 9.4 14.45 L10.95 13.3 Q11.85 12.5 11.75 11.55 11.75 10.95 11.2 10.2 10.8 9.4 10.25 9.35 L9.45 9.55 M11.3 25.3 Q11.85 26.0 11.8 26.9 11.8 27.8 11.25 28.45 10.7 29.1 9.75 29.2 8.8 29.25 8.15 28.7 7.55 28.2 7.35 27.2 7.2 25.85 8.05 25.0 9.05 24.1 10.25 24.5 10.9 24.7 11.3 25.3" fill="#000000" fill-rule="evenodd" stroke="none"/>
    <path d="M44.45 16.4 Q44.85 15.8 45.45 15.55 L46.75 15.4 Q47.4 15.55 47.85 16.05 48.35 16.55 48.4 17.25 L48.15 18.5 47.2 19.4 45.95 19.55 Q45.3 19.45 44.8 19.0 44.3 18.5 44.2 17.7 44.1 17.0 44.45 16.4 M30.3 29.3 Q29.35 28.35 29.15 27.3 28.95 25.7 30.65 24.25 32.4 22.75 35.8 22.35 L38.6 22.15 41.4 22.0 43.05 21.8 44.7 21.85 Q45.7 22.05 46.5 22.85 L47.4 24.1 Q48.25 25.8 47.7 27.45 47.1 29.3 45.4 29.85 L42.95 30.1 38.4 30.2 33.75 30.45 31.55 30.15 30.3 29.3 M43.4 24.65 L40.25 24.65 38.7 24.75 37.25 24.85 36.0 25.0 34.9 25.4 Q33.25 26.0 32.65 26.6 L32.45 26.8 32.55 27.05 33.35 27.3 37.1 27.15 43.45 26.9 44.2 26.9 Q44.65 26.8 44.85 26.5 45.1 26.2 44.9 25.8 44.8 25.15 44.1 24.85 L43.4 24.65 M27.65 10.4 L28.0 11.2 27.8 11.95 27.15 12.45 26.3 12.4 25.7 11.8 25.6 11.0 Q25.75 10.4 26.4 10.15 27.15 9.95 27.65 10.4 M23.95 16.35 Q23.25 16.2 23.05 15.5 22.95 14.7 23.45 14.3 23.8 13.95 24.35 14.05 25.2 14.2 25.35 15.05 25.45 15.9 24.7 16.25 L23.95 16.35 M28.2 21.7 Q27.85 21.15 27.9 20.4 27.95 19.7 28.4 19.2 28.9 18.7 29.55 18.55 L30.85 18.8 31.75 19.8 Q32.0 20.45 31.85 21.15 L31.05 22.2 29.8 22.55 Q28.85 22.55 28.2 21.7" fill="#ffffff" fill-rule="evenodd" stroke="none"/>
  </g>
</svg>
