<?xml version="1.0" encoding="UTF-8" standalone="no"?>
<svg xmlns:ffdec="https://www.free-decompiler.com/flash" xmlns:xlink="http://www.w3.org/1999/xlink" ffdec:objectType="shape" height="42.2px" width="76.6px" xmlns="http://www.w3.org/2000/svg">
  <g transform="matrix(1.0, 0.0, 0.0, 1.0, 1.0, 0.9)">
    <path d="M27.5 7.9 L26.35 7.0 Q25.05 6.3 23.55 6.25 22.0 6.25 20.75 7.0 19.2 7.8 18.4 9.7 17.75 11.15 17.95 12.75 18.25 14.4 19.75 15.55 L20.4 16.0 20.6 15.95 22.0 15.9 25.85 16.1 Q27.25 15.3 27.8 14.5 L28.35 13.6 28.9 11.5 Q29.05 9.4 27.5 7.9 M56.4 26.55 Q54.4 28.05 53.3 28.55 L49.0 29.85 42.95 31.1 Q30.35 33.15 18.3 28.7 L15.45 27.15 Q15.75 26.1 16.95 25.5 17.65 25.15 19.2 24.95 22.85 24.5 27.85 24.95 L36.5 26.0 45.25 26.35 Q50.0 26.1 53.6 24.4 L55.8 23.5 57.95 23.45 Q58.1 24.45 57.75 25.25 L56.4 26.55 M57.5 14.25 Q59.15 12.5 58.45 9.75 57.95 7.75 56.45 6.6 54.4 4.95 51.5 5.9 49.3 6.55 48.45 8.1 47.6 9.6 47.6 11.4 L47.85 12.65 48.5 13.85 49.55 15.05 Q50.8 16.2 52.55 16.2 54.2 16.25 55.7 15.5 L57.5 14.25 M62.85 23.25 Q62.65 21.3 60.85 19.95 58.6 18.1 55.7 18.35 L53.3 18.9 51.0 19.7 Q47.35 20.9 42.7 20.8 L34.2 19.9 25.75 18.8 17.35 19.25 Q14.05 20.0 12.25 21.55 10.4 23.15 9.7 25.6 9.2 27.5 9.65 28.9 10.1 30.35 11.65 31.6 14.05 33.65 19.2 35.05 30.6 38.2 39.9 37.2 L45.6 36.3 53.2 34.5 Q57.25 33.15 59.9 30.9 61.5 29.55 62.15 28.15 L62.8 25.45 62.85 23.25 M-0.5 -0.4 L75.1 -0.4 75.1 40.8 -0.5 40.8 -0.5 -0.4" fill="#000000" fill-rule="evenodd" stroke="none"/>
    <path d="M62.85 23.25 L62.8 25.45 62.15 28.15 Q61.5 29.55 59.9 30.9 57.25 33.15 53.2 34.5 L45.6 36.3 39.9 37.2 Q30.6 38.2 19.2 35.05 14.05 33.65 11.65 31.6 10.1 30.35 9.65 28.9 9.2 27.5 9.7 25.6 10.4 23.15 12.25 21.55 14.05 20.0 17.35 19.25 L25.75 18.8 34.2 19.9 42.7 20.8 Q47.35 20.9 51.0 19.7 L53.3 18.9 55.7 18.35 Q58.6 18.1 60.85 19.95 62.65 21.3 62.85 23.25 M57.5 14.25 L55.7 15.5 Q54.2 16.25 52.55 16.2 50.8 16.2 49.55 15.05 L48.5 13.85 47.85 12.65 47.6 11.4 Q47.6 9.6 48.45 8.1 49.3 6.55 51.5 5.9 54.4 4.95 56.45 6.6 57.95 7.75 58.45 9.75 59.15 12.5 57.5 14.25 M56.4 26.55 L57.75 25.25 Q58.1 24.45 57.95 23.45 L55.8 23.5 53.6 24.4 Q50.0 26.1 45.25 26.35 L36.5 26.0 27.85 24.95 Q22.85 24.5 19.2 24.95 17.65 25.15 16.95 25.5 15.75 26.1 15.45 27.15 L18.3 28.7 Q30.35 33.15 42.95 31.1 L49.0 29.85 53.3 28.55 Q54.4 28.05 56.4 26.55 M27.5 7.9 Q29.05 9.4 28.9 11.5 L28.35 13.6 27.8 14.5 Q27.25 15.3 25.85 16.1 L22.0 15.9 20.6 15.95 20.4 16.0 19.75 15.55 Q18.25 14.4 17.95 12.75 17.75 11.15 18.4 9.7 19.2 7.8 20.75 7.0 22.0 6.25 23.55 6.25 25.05 6.3 26.35 7.0 L27.5 7.9" fill="#ffffff" fill-rule="evenodd" stroke="none"/>
    <path d="M-0.5 -0.4 L75.1 -0.4 75.1 40.8 -0.5 40.8 -0.5 -0.4 Z" fill="none" stroke="#ffffff" stroke-linecap="round" stroke-linejoin="round" stroke-width="1.0"/>
  </g>
</svg>
