<?xml version="1.0" encoding="UTF-8" standalone="no"?>
<svg xmlns:ffdec="https://www.free-decompiler.com/flash" xmlns:xlink="http://www.w3.org/1999/xlink" ffdec:objectType="shape" height="45.2px" width="31.9px" xmlns="http://www.w3.org/2000/svg">
  <g transform="matrix(1.0, 0.0, 0.0, 1.0, 0.8, -12.2)">
    <path d="M27.2 12.5 Q29.7 13.65 30.65 17.3 31.2 19.2 31.1 21.2 31.05 24.6 29.3 28.2 L26.35 33.45 26.3 33.55 26.0 34.2 24.95 35.5 24.25 36.4 23.75 37.15 22.9 38.35 21.0 42.2 20.75 43.05 Q18.75 50.25 17.15 54.55 L17.7 54.3 Q18.6 53.95 18.95 53.45 L19.4 52.45 20.4 49.9 Q21.6 47.1 23.3 46.45 L25.0 46.2 Q26.9 46.1 27.85 46.8 29.1 47.75 29.0 49.55 29.0 50.85 28.2 51.65 27.4 52.35 26.25 52.2 25.35 52.15 24.4 51.35 24.05 51.0 23.75 51.0 23.3 51.0 23.1 51.75 L22.4 53.7 21.45 55.6 20.3 56.65 19.05 57.4 7.55 57.4 7.5 57.25 7.5 56.75 6.85 56.95 5.15 57.15 3.9 57.4 1.25 57.4 0.95 57.3 -0.3 56.5 Q-0.9 55.8 -0.75 55.05 L0.1 53.8 4.9 48.55 7.35 45.15 Q5.75 45.05 4.25 43.9 2.85 42.8 1.8 40.85 1.1 39.4 0.9 38.4 0.65 37.3 0.75 35.7 0.85 34.4 1.25 33.15 L0.95 32.5 0.6 31.85 0.4 31.25 -0.05 30.3 -0.35 30.0 -0.8 28.95 Q-0.8 28.35 -0.4 27.85 -0.1 27.5 0.6 27.3 L1.75 27.1 2.75 27.05 3.6 27.05 4.6 27.25 4.75 27.05 Q7.75 23.8 11.45 22.95 L14.25 22.8 15.85 19.85 16.2 19.25 Q16.6 18.9 17.1 18.95 17.65 19.05 17.85 19.4 L18.2 20.2 18.65 21.35 19.45 23.8 19.85 25.3 Q22.05 27.55 22.35 31.3 L22.35 33.35 23.45 31.2 24.6 28.2 Q24.95 26.65 24.7 24.45 L24.35 22.85 23.1 21.1 21.65 19.5 Q20.8 18.25 20.85 16.65 20.9 15.05 21.85 13.9 22.75 12.75 24.3 12.35 L27.2 12.5 M8.25 36.5 Q8.1 35.65 7.4 35.05 6.8 34.55 6.05 34.55 5.35 34.45 4.8 34.95 3.9 35.5 3.9 36.6 3.85 37.35 4.3 38.05 L5.55 38.9 7.0 38.75 8.05 37.7 8.25 36.5 M20.2 35.95 L20.75 35.2 20.95 34.3 20.75 32.9 Q20.2 31.95 18.6 31.95 17.6 31.95 16.5 32.45 L15.2 33.35 12.65 35.45 12.25 35.0 11.3 34.5 Q10.8 34.6 10.5 34.95 L10.35 35.2 10.4 35.55 Q10.5 36.15 10.9 36.55 L11.15 36.75 Q10.65 37.15 10.3 37.5 L8.0 39.75 7.65 40.0 7.35 40.35 7.25 40.95 7.45 41.55 Q7.8 41.95 8.5 41.85 L9.4 41.45 9.5 41.4 10.5 40.85 Q12.1 39.95 13.8 39.2 L17.2 37.9 Q19.1 37.05 20.2 35.95 M11.8 30.5 L11.45 30.05 Q11.0 29.75 10.7 30.25 L10.6 30.8 10.7 31.15 10.9 31.4 11.2 32.05 11.55 32.65 12.0 33.2 Q12.3 33.5 12.7 33.5 L13.65 32.8 15.9 30.15 16.6 29.55 18.55 28.8 19.15 28.45 19.5 27.85 Q19.5 27.3 18.85 27.0 L17.2 27.15 Q15.5 27.75 14.8 28.4 L14.15 29.1 12.65 31.15 12.3 31.25 12.1 31.05 11.8 30.5" fill="#000000" fill-rule="evenodd" stroke="none"/>
  </g>
</svg>
