<?xml version="1.0" encoding="UTF-8" standalone="no"?>
<svg xmlns:ffdec="https://www.free-decompiler.com/flash" xmlns:xlink="http://www.w3.org/1999/xlink" ffdec:objectType="shape" height="59.05px" width="65.9px" xmlns="http://www.w3.org/2000/svg">
  <g transform="matrix(1.0, 0.0, 0.0, 1.0, 1.25, -0.35)">
    <path d="M43.25 57.2 L43.25 57.15 42.95 56.45 42.9 55.35 42.95 54.1 43.3 53.3 44.2 51.9 44.85 51.25 Q45.55 50.75 46.6 50.35 L47.25 50.15 Q48.05 50.15 48.45 50.6 49.0 51.25 48.7 51.95 L48.1 52.75 47.05 54.05 Q46.5 54.95 46.55 55.4 L46.8 56.05 47.2 57.4 47.25 57.9 Q47.25 58.75 46.45 59.2 45.7 59.6 44.95 59.2 L44.3 58.6 43.25 57.2 M47.35 46.3 L47.15 46.05 46.75 45.4 46.35 44.45 46.1 43.5 46.0 42.85 46.2 41.8 46.45 41.05 47.1 40.25 47.15 40.25 47.75 39.7 48.45 39.2 49.25 39.1 Q50.05 39.1 50.55 39.6 51.1 40.1 50.95 40.85 L50.7 41.35 50.15 42.2 49.8 42.7 49.9 43.25 50.5 44.3 50.6 45.1 50.5 46.0 Q50.25 46.9 49.3 47.05 L48.5 47.0 47.85 46.7 47.35 46.3 M47.8 35.55 Q45.95 34.75 44.95 32.9 L44.5 31.9 44.35 30.6 Q44.45 29.35 45.3 28.45 L45.35 28.45 45.3 28.35 44.8 26.9 Q44.4 25.8 44.45 25.15 L44.65 24.25 44.95 23.3 45.4 22.7 45.65 22.4 46.8 21.65 Q47.75 21.3 48.45 21.85 49.0 22.25 49.0 23.0 49.05 23.6 48.55 24.2 L47.95 24.95 Q47.85 25.25 48.2 26.2 L48.4 26.65 49.2 27.45 49.9 28.25 Q50.2 28.7 50.05 29.3 L49.45 30.05 48.5 30.3 48.0 30.25 47.95 30.5 48.1 31.0 48.7 31.8 Q49.05 32.15 49.9 32.35 L50.9 32.7 51.45 33.4 Q51.9 34.35 51.35 35.1 51.0 35.75 50.05 35.95 L48.45 35.75 47.8 35.55 M43.85 19.15 Q42.6 19.2 41.75 18.75 40.8 18.2 40.2 17.0 L40.0 16.55 39.9 16.6 38.65 16.85 35.4 16.4 34.3 15.9 33.7 15.4 33.3 15.75 32.9 16.25 32.35 16.6 Q30.65 17.5 29.45 17.6 L28.2 17.4 27.7 17.45 Q27.65 19.0 25.9 20.65 L24.7 21.5 24.25 21.65 23.3 21.4 Q22.65 20.9 22.9 20.1 L23.5 19.35 Q23.35 18.85 23.55 18.4 L24.15 17.6 24.6 16.75 24.55 16.05 24.6 15.6 24.2 15.6 Q24.05 15.15 24.25 14.7 24.6 13.85 25.8 13.75 L27.45 13.65 28.2 13.3 Q28.9 13.15 29.3 13.7 L29.55 13.6 Q30.4 13.2 31.1 12.6 L32.35 11.55 32.65 11.35 32.65 11.3 Q33.0 10.4 33.85 10.3 34.55 10.3 35.1 10.95 L35.75 12.3 Q36.0 13.0 36.3 13.15 L37.1 13.35 37.45 13.5 38.85 13.5 40.3 12.5 Q40.9 12.25 41.4 12.65 41.9 13.05 41.8 13.65 42.25 13.8 42.4 14.15 L42.55 14.95 Q42.8 15.8 43.65 16.05 L45.3 16.2 Q46.15 16.55 46.15 17.45 46.25 18.3 45.45 18.8 L44.0 19.15 43.85 19.15 M24.2 22.75 L24.6 22.55 25.55 22.7 26.0 23.3 Q26.0 23.6 25.6 23.9 L24.9 24.5 24.4 24.6 Q23.95 24.7 23.6 24.35 23.1 23.95 23.35 23.4 L23.75 23.0 24.2 22.75 M23.85 30.6 L23.95 30.4 24.35 29.75 Q24.65 29.45 24.95 29.4 L25.45 29.4 25.85 29.85 25.7 30.45 25.25 30.85 24.95 31.25 24.9 31.4 24.65 31.65 Q24.25 32.0 23.8 31.65 23.4 31.25 23.65 30.8 L23.85 30.6 M25.5 31.8 L26.8 30.95 27.5 31.05 Q27.95 31.3 27.85 31.85 L27.1 32.65 26.65 32.9 26.45 33.0 25.85 33.15 Q25.35 33.15 25.15 32.8 24.9 32.3 25.35 31.85 L25.5 31.8 M27.15 40.6 L27.8 39.95 Q28.35 39.6 28.85 39.65 29.55 39.65 29.7 40.25 29.9 40.8 29.35 41.35 L27.95 42.6 27.5 43.0 Q26.9 43.5 26.4 43.2 L25.95 42.65 26.0 41.85 27.0 40.7 27.15 40.6 M26.45 47.0 L26.85 47.6 27.1 48.1 27.5 48.3 Q27.9 48.6 27.9 48.95 27.9 49.5 27.55 49.7 L27.05 49.9 Q26.1 50.1 25.45 49.5 L25.0 48.85 25.0 48.8 24.7 47.75 Q24.9 46.95 25.7 46.85 L26.45 47.0 M21.9 48.65 L21.15 49.65 19.7 50.1 19.5 50.1 19.4 50.7 19.2 51.25 18.75 51.6 Q18.4 51.6 18.15 51.25 L17.95 50.55 17.85 49.8 17.4 49.45 17.0 48.95 16.75 49.05 16.0 49.45 15.5 49.7 14.95 49.6 14.65 49.15 Q14.65 48.8 14.95 48.3 L15.4 47.7 14.95 47.35 14.65 46.9 14.55 46.45 14.5 45.65 14.55 44.2 14.75 43.8 14.7 43.25 14.5 42.8 14.05 42.5 13.55 41.9 13.5 41.9 11.8 41.75 Q11.2 41.5 10.95 40.95 L10.2 40.7 Q9.6 40.45 9.35 39.75 L9.4 39.3 9.75 39.0 Q9.95 38.8 10.2 38.75 L10.75 38.7 10.95 37.75 11.05 37.1 10.85 36.5 10.85 36.15 Q9.7 35.45 9.3 34.75 L9.25 34.65 9.0 34.75 8.7 34.85 Q8.4 34.95 8.3 34.7 8.1 34.45 8.3 33.9 L8.4 33.55 8.75 33.15 8.6 32.65 7.95 32.05 7.5 31.35 Q7.35 30.9 7.7 30.45 8.1 30.05 8.6 30.2 L8.85 30.3 Q8.85 29.65 9.0 29.3 L9.3 28.85 10.0 28.05 10.8 27.45 Q11.55 26.95 11.75 26.9 L12.55 26.7 13.0 26.6 13.05 25.9 13.25 24.95 13.65 23.9 13.6 23.85 13.3 23.6 13.2 23.3 Q13.15 23.0 13.25 22.75 13.3 22.35 13.7 22.1 L14.2 22.0 14.85 22.2 14.95 22.35 16.25 21.7 17.65 21.45 18.0 21.5 17.95 21.45 17.9 20.7 18.35 18.9 Q18.45 18.45 18.7 18.15 L18.35 17.25 18.25 16.15 18.85 15.05 19.05 14.8 19.25 14.6 19.2 14.55 Q18.95 13.3 19.35 12.1 L19.7 11.15 21.0 10.3 21.55 10.2 21.7 9.45 Q22.0 8.45 23.15 7.9 L25.05 7.6 25.25 7.25 25.55 6.75 26.55 5.6 27.25 5.1 Q27.55 4.9 27.95 4.8 L28.6 4.75 30.65 5.2 31.45 5.55 32.0 6.15 32.05 6.25 32.1 6.25 Q32.55 5.5 33.45 5.25 L34.7 4.95 35.55 4.95 36.6 5.0 Q38.3 5.25 39.7 6.2 L39.75 6.25 40.1 6.05 42.8 5.8 45.2 6.3 Q46.45 6.8 47.55 8.05 L49.0 10.45 50.25 10.4 51.35 10.45 54.3 11.2 Q55.95 11.85 56.95 14.0 L57.25 14.8 57.25 15.3 57.45 15.3 58.25 15.55 Q59.8 16.05 60.75 16.7 61.95 17.4 62.75 18.45 L63.6 20.0 63.8 21.0 63.8 22.3 63.6 22.85 63.0 23.45 61.7 23.5 61.2 23.05 Q60.7 22.35 60.55 21.75 L60.4 21.2 60.0 20.6 Q59.65 20.2 58.35 19.55 L56.75 19.1 55.8 19.15 Q55.1 19.1 54.6 18.55 54.1 18.0 54.1 17.3 L54.1 17.15 54.1 17.1 54.05 16.35 Q53.9 15.05 52.95 14.6 L51.95 14.25 50.05 13.9 48.8 14.25 Q47.7 14.5 47.05 13.5 L46.75 12.6 46.4 12.1 45.25 10.35 Q44.2 9.3 42.05 9.2 L41.6 9.25 41.15 9.5 39.65 9.75 Q38.95 9.55 38.65 8.9 L37.6 8.45 36.2 8.25 34.6 8.65 Q34.15 9.1 33.45 9.15 32.8 9.15 32.3 8.8 L31.6 8.8 30.95 8.45 Q30.4 8.1 29.6 7.95 L29.05 7.95 28.75 8.15 28.15 8.95 27.6 9.75 Q26.95 10.4 26.05 10.05 L25.75 9.95 25.7 9.95 Q24.95 10.2 24.75 10.45 L24.5 11.25 Q24.1 12.3 23.3 12.35 L22.8 12.65 Q22.25 12.9 22.1 13.1 21.9 13.4 21.8 14.05 L21.6 14.95 20.85 15.5 20.6 15.75 Q21.25 16.05 21.15 16.85 L20.75 17.95 20.8 18.25 20.75 18.35 Q20.55 19.2 20.75 19.75 L21.05 20.2 20.45 20.95 20.1 21.15 20.1 21.2 19.75 21.85 19.2 22.2 19.3 22.7 Q19.3 23.2 18.8 23.45 L17.9 23.55 17.55 23.5 16.5 23.85 16.0 24.35 15.9 24.75 15.7 26.4 15.55 27.4 15.15 28.2 Q14.85 28.6 14.3 28.6 13.75 28.6 13.5 28.25 L12.05 29.25 11.65 29.75 11.55 31.2 11.45 32.5 Q11.55 33.15 12.35 33.85 13.1 34.6 13.1 35.3 L13.1 35.5 13.3 35.75 Q13.7 36.4 13.6 37.45 L13.25 39.1 Q14.25 39.2 14.65 39.8 L14.95 40.65 15.25 40.75 15.95 41.1 16.5 41.85 16.95 42.7 Q17.25 43.35 16.9 45.0 L16.9 45.45 17.2 45.7 18.65 46.6 18.85 47.0 19.15 47.35 19.75 47.5 22.0 47.6 21.9 48.35 21.9 48.65 M9.25 20.7 L9.75 21.2 10.2 22.55 10.35 23.25 10.15 24.25 9.45 24.7 Q9.05 24.8 8.7 24.45 8.4 24.15 8.3 23.3 L8.2 21.65 Q8.2 20.95 8.4 20.75 L9.25 20.7 M5.45 38.1 L5.95 38.4 6.1 38.9 5.75 39.35 4.9 39.65 4.25 39.8 3.6 39.75 3.1 39.15 Q3.0 38.7 3.3 38.4 3.55 38.15 4.05 38.05 L5.45 38.1 M10.9 48.1 L9.65 49.5 9.25 49.8 8.95 50.0 Q8.6 50.1 8.45 49.85 8.35 49.55 8.55 49.35 8.2 48.9 8.45 48.2 L9.1 47.1 9.8 46.35 Q10.3 46.1 10.8 46.35 11.3 46.7 11.3 47.25 L10.9 48.1 M29.7 26.35 L29.5 26.75 28.95 27.5 Q28.4 27.85 27.9 27.35 27.4 26.9 27.65 26.3 27.85 25.85 28.75 25.35 L29.65 24.85 30.3 24.7 Q30.75 24.8 30.65 25.25 L30.4 25.7 29.7 26.35 M32.65 36.75 L33.1 36.95 33.35 37.4 33.35 37.75 Q33.3 38.15 32.8 38.25 L32.05 38.05 31.35 37.75 30.65 37.65 30.05 37.45 29.6 36.9 Q29.45 36.5 29.65 36.15 L30.2 35.65 Q30.55 35.5 30.9 35.65 L31.7 36.2 32.65 36.75" fill="#ffffff" fill-rule="evenodd" stroke="none"/>
    <path d="M43.25 57.2 L39.75 57.2 37.7 57.2 33.9 57.2 31.15 57.2 22.0 57.15 14.15 57.1 12.6 57.1 4.25 57.05 3.6 57.0 3.35 57.0 3.1 56.95 2.85 56.9 2.7 56.9 2.55 56.85 2.4 56.8 2.3 56.75 2.25 56.75 2.2 56.8 2.05 56.9 1.8 57.0 1.45 57.1 1.1 57.0 0.85 56.9 0.7 56.8 0.6 56.7 0.5 56.6 0.45 56.5 0.4 56.4 0.4 56.3 0.35 56.2 0.3 56.1 0.3 56.0 0.25 55.9 0.25 55.75 0.25 55.65 0.25 55.55 0.25 55.45 0.25 55.35 0.25 55.25 0.25 55.15 0.25 55.05 0.25 54.95 0.25 54.85 0.25 54.75 0.25 54.65 0.25 54.55 0.25 54.45 0.25 54.35 0.2 54.25 0.2 54.1 0.2 54.0 0.2 53.9 0.2 53.8 0.2 53.7 0.2 53.6 0.2 53.5 0.2 53.4 0.2 53.3 0.2 53.2 0.2 53.1 0.2 53.0 0.2 52.9 0.2 52.8 0.2 52.7 0.2 52.55 0.2 52.45 0.2 52.35 0.2 52.25 0.2 52.15 0.2 52.05 0.2 51.95 0.2 51.85 0.2 51.75 0.2 51.65 0.2 51.55 0.2 51.45 0.2 51.35 0.2 51.25 0.2 51.15 0.2 51.05 0.2 50.9 0.2 50.8 0.2 50.7 0.2 50.6 0.2 50.5 0.2 50.4 0.2 50.3 0.2 50.2 0.2 50.1 0.2 50.0 0.2 49.9 0.2 49.8 0.2 49.7 0.2 49.6 0.2 49.5 0.2 49.35 0.2 49.25 0.2 49.15 0.2 49.05 0.2 48.95 0.2 48.85 0.2 48.75 0.2 48.65 0.2 48.55 0.2 48.45 0.2 48.35 0.2 48.25 0.2 48.15 0.2 48.05 0.2 47.95 0.2 47.8 0.2 47.7 0.2 47.6 0.2 47.5 0.2 47.4 0.2 47.3 0.2 47.2 0.2 47.1 0.2 47.0 0.2 46.9 0.2 46.8 0.2 46.7 0.2 46.6 0.2 46.5 0.2 46.4 0.2 46.3 0.2 46.15 0.2 46.05 0.2 45.95 0.2 45.85 0.2 45.75 0.2 45.65 0.2 45.55 0.2 45.45 0.2 45.35 0.25 45.3 0.15 43.5 0.15 43.4 0.0 43.75 Q-1.1 41.4 -1.2 37.3 -1.4 32.5 -0.95 27.35 L-0.4 23.5 -0.45 22.95 Q-0.45 21.45 0.1 20.85 L0.25 20.7 0.25 20.65 0.25 20.55 0.25 20.45 0.25 20.35 0.25 20.25 0.25 20.15 0.25 20.05 0.25 19.95 0.25 19.85 0.25 19.75 0.25 19.65 0.25 19.55 0.25 19.45 0.25 19.35 0.25 19.25 0.25 19.1 0.25 19.0 0.25 18.9 0.25 18.8 0.25 18.7 0.25 18.6 0.25 18.5 0.25 18.4 0.25 18.3 0.25 18.2 0.25 18.1 0.25 18.0 0.25 17.9 0.25 17.8 0.25 17.7 0.25 17.55 0.25 17.45 0.25 17.35 0.25 17.25 0.25 17.15 0.25 17.05 0.25 16.95 0.25 16.85 0.25 16.75 0.25 16.65 0.25 16.55 0.25 16.45 0.25 16.35 0.25 16.25 0.25 16.15 0.25 16.0 0.25 15.9 0.25 15.8 0.25 15.7 0.25 15.6 0.25 15.5 0.25 15.4 0.25 15.3 0.25 15.2 0.25 15.1 0.25 15.0 0.25 14.9 0.25 14.8 0.25 14.7 0.25 14.6 0.25 14.5 0.25 14.35 0.25 14.25 0.25 14.15 0.25 14.05 0.25 13.95 0.25 13.85 0.25 13.75 0.25 13.65 0.25 13.55 0.25 13.45 0.25 13.35 0.25 13.25 0.25 13.15 0.25 13.05 0.25 12.95 0.25 12.8 0.25 12.7 0.25 12.6 0.25 12.5 0.25 12.4 0.25 12.3 0.25 12.2 0.25 12.1 0.25 12.0 0.25 11.9 0.25 11.8 0.25 11.7 0.25 11.6 0.25 11.5 0.25 11.4 0.25 11.3 0.25 11.15 0.25 11.05 0.25 10.95 0.25 10.85 0.25 10.75 0.25 10.65 0.25 10.55 0.25 10.45 0.25 10.35 0.25 10.25 0.25 10.15 0.25 10.05 0.25 9.95 0.25 9.85 0.25 9.75 0.25 9.6 0.25 9.5 0.25 9.4 0.25 9.3 0.25 9.2 0.25 9.1 0.25 9.0 0.25 8.9 0.25 8.8 0.25 8.7 0.25 8.6 0.25 8.5 0.25 8.4 0.25 8.3 0.25 8.2 0.25 8.05 0.25 7.95 0.25 7.85 0.25 7.75 0.25 7.65 0.25 7.55 0.25 7.45 0.25 7.35 0.25 7.25 0.25 7.15 0.25 7.05 0.25 6.95 0.25 6.85 0.25 6.75 0.25 6.65 0.25 6.55 0.25 6.4 0.25 6.3 0.25 6.2 0.25 6.1 0.25 6.0 0.25 5.9 0.25 5.8 0.25 5.7 0.25 5.6 0.25 5.5 0.25 5.4 0.25 5.3 0.25 5.2 0.25 5.1 0.25 5.0 0.3 4.85 0.3 4.75 0.3 4.65 0.3 4.55 0.3 4.45 0.3 4.35 0.3 4.25 0.3 4.15 0.3 4.05 0.3 3.95 0.3 3.85 0.3 3.75 0.3 3.65 0.3 3.55 0.3 3.45 0.3 3.35 0.3 3.2 0.3 3.1 0.3 3.0 0.3 2.9 0.3 2.8 0.25 2.7 0.3 2.6 0.3 2.5 0.3 2.4 0.35 2.3 0.4 2.2 0.45 2.1 0.5 2.0 0.6 1.9 0.65 1.8 0.75 1.65 0.8 1.6 0.8 1.55 0.8 1.45 0.9 1.35 0.95 1.25 1.0 1.1 1.05 1.0 1.15 0.9 1.25 0.8 1.4 0.7 1.6 0.6 1.8 0.55 2.05 0.5 3.15 0.45 4.3 0.45 4.7 0.45 21.75 0.45 34.3 0.5 35.95 0.5 36.5 0.45 36.85 0.45 38.55 0.4 40.25 0.35 47.0 0.35 47.0 0.4 49.6 0.4 57.6 0.45 58.9 0.45 59.4 0.5 59.65 0.55 59.9 0.55 60.1 0.6 60.35 0.7 60.55 0.8 61.05 0.85 61.1 0.8 61.2 0.7 61.35 0.6 61.55 0.5 61.75 0.45 62.0 0.4 62.0 0.45 62.3 0.45 62.45 0.45 62.55 0.55 62.75 0.65 62.85 0.75 63.0 0.85 63.05 0.95 63.1 1.05 63.2 1.15 63.2 1.25 63.25 1.35 63.25 1.45 63.25 1.55 63.3 1.65 63.3 1.8 63.25 1.9 63.25 2.0 63.25 2.1 63.25 2.2 63.25 2.3 63.25 2.4 63.25 2.5 63.25 2.6 63.25 2.7 63.25 2.8 63.25 2.9 63.25 3.0 63.25 3.1 63.25 3.2 63.25 3.35 63.25 3.45 63.25 3.55 63.25 3.65 63.25 3.75 63.25 3.85 63.25 3.95 63.25 4.05 63.25 4.15 63.25 4.25 63.25 4.35 63.25 4.45 63.25 4.55 63.25 4.65 63.25 4.75 63.25 4.85 63.25 5.0 63.25 5.1 63.25 5.2 63.25 5.3 63.25 5.4 63.25 5.5 63.25 5.6 63.25 5.7 63.25 5.8 63.25 5.9 63.25 6.0 63.25 6.1 63.25 6.2 63.25 6.3 63.25 6.4 63.25 6.55 63.25 6.65 63.25 6.75 63.25 6.85 63.25 6.95 63.25 7.05 63.25 7.15 63.25 7.25 63.25 7.35 63.25 7.45 63.25 7.55 63.25 7.65 63.25 7.75 63.25 7.85 63.25 7.95 63.25 8.05 63.25 8.2 63.25 8.3 63.25 8.4 63.25 8.5 63.25 8.6 63.25 8.7 63.25 8.8 63.25 8.9 63.25 9.0 63.25 9.1 63.25 9.2 63.25 9.3 63.25 9.4 63.25 9.5 63.25 9.6 63.25 9.75 63.25 9.85 63.25 9.95 63.25 10.05 63.25 10.15 63.25 10.25 63.25 10.35 63.25 10.45 63.25 10.55 63.25 10.65 63.25 10.75 63.25 10.85 63.25 10.95 63.25 11.05 63.25 11.15 63.25 11.3 63.25 11.4 63.25 11.5 63.25 11.6 63.25 11.7 63.25 11.8 63.25 11.9 63.25 12.0 63.25 12.1 63.25 12.2 63.2 12.3 63.2 12.4 63.2 12.5 63.2 12.6 63.2 12.7 63.2 12.8 63.2 12.95 63.2 13.05 63.2 13.15 63.2 13.25 63.2 13.35 63.2 13.45 63.2 13.55 63.2 13.65 63.2 13.75 63.2 13.85 63.2 13.95 63.2 14.05 63.2 14.15 63.2 14.25 63.2 14.35 63.2 14.5 63.15 14.6 63.15 14.7 63.15 14.8 63.15 14.9 63.15 15.0 63.15 15.1 63.15 15.2 63.15 15.3 63.15 15.4 63.15 15.5 63.15 15.6 63.1 15.7 63.1 15.8 63.1 15.9 63.1 16.0 63.1 16.15 63.1 16.25 63.1 16.35 63.1 16.45 63.1 16.55 63.1 16.65 63.1 16.75 63.1 16.85 63.1 16.95 63.1 17.05 63.1 17.15 63.1 17.25 63.1 17.35 63.1 17.45 63.1 17.55 63.1 17.7 63.1 17.8 63.1 17.9 63.1 18.0 63.1 18.1 63.1 18.2 63.1 18.3 63.1 18.35 63.5 18.8 Q64.7 20.2 64.65 21.25 64.65 22.0 64.1 22.5 L63.6 22.85 63.8 22.3 63.8 21.0 63.6 20.0 62.75 18.45 Q61.95 17.4 60.75 16.7 59.8 16.05 58.25 15.55 L57.45 15.3 57.25 15.3 57.25 14.8 56.95 14.0 Q55.95 11.85 54.3 11.2 L51.35 10.45 50.25 10.4 49.0 10.45 47.55 8.05 Q46.45 6.8 45.2 6.3 L42.8 5.8 40.1 6.05 39.75 6.25 39.7 6.2 Q38.3 5.25 36.6 5.0 L35.55 4.95 34.7 4.95 33.45 5.25 Q32.55 5.5 32.1 6.25 L32.0 6.15 31.45 5.55 30.65 5.2 28.6 4.75 27.95 4.8 Q27.55 4.9 27.25 5.1 L26.55 5.6 25.55 6.75 25.25 7.25 25.05 7.6 23.15 7.9 Q22.0 8.45 21.7 9.45 L21.55 10.2 21.0 10.3 19.7 11.15 19.35 12.1 Q18.95 13.3 19.2 14.55 L19.25 14.6 19.05 14.8 18.85 15.05 18.25 16.15 18.35 17.25 18.7 18.15 Q18.45 18.45 18.35 18.9 L17.9 20.7 17.95 21.45 18.0 21.5 17.65 21.45 16.25 21.7 14.95 22.35 14.85 22.2 14.2 22.0 13.7 22.1 Q13.3 22.35 13.25 22.75 13.15 23.0 13.2 23.3 L13.3 23.6 13.6 23.85 13.65 23.9 13.25 24.95 13.05 25.9 13.0 26.6 12.55 26.7 11.75 26.9 Q11.55 26.95 10.8 27.45 L10.0 28.05 9.3 28.85 9.0 29.3 Q8.85 29.65 8.85 30.3 L8.6 30.2 Q8.1 30.05 7.7 30.45 7.35 30.9 7.5 31.35 L7.95 32.05 8.6 32.65 8.75 33.15 8.4 33.55 8.3 33.9 Q8.1 34.45 8.3 34.7 8.4 34.95 8.7 34.85 L9.0 34.75 9.25 34.65 9.3 34.75 Q9.7 35.45 10.85 36.15 L10.85 36.5 11.05 37.1 10.95 37.75 10.75 38.7 10.2 38.75 Q9.95 38.8 9.75 39.0 L9.4 39.3 9.35 39.75 Q9.6 40.45 10.2 40.7 L10.95 40.95 Q11.2 41.5 11.8 41.75 L13.5 41.9 13.55 41.9 14.05 42.5 14.5 42.8 14.7 43.25 14.75 43.8 14.55 44.2 14.5 45.65 14.55 46.45 14.65 46.9 14.95 47.35 15.4 47.7 14.95 48.3 Q14.65 48.8 14.65 49.15 L14.95 49.6 15.5 49.7 16.0 49.45 16.75 49.05 17.0 48.95 17.4 49.45 17.85 49.8 17.95 50.55 18.15 51.25 Q18.4 51.6 18.75 51.6 L19.2 51.25 19.4 50.7 19.5 50.1 19.7 50.1 21.15 49.65 21.9 48.65 23.1 48.45 Q24.25 48.45 24.85 48.95 L25.0 48.8 25.0 48.85 25.45 49.5 Q26.1 50.1 27.05 49.9 L27.55 49.7 Q27.9 49.5 27.9 48.95 27.9 48.6 27.5 48.3 L27.1 48.1 26.85 47.6 26.45 47.0 27.2 45.6 27.95 42.6 29.35 41.35 Q29.9 40.8 29.7 40.25 29.55 39.65 28.85 39.65 28.35 39.6 27.8 39.95 L27.15 40.6 27.05 40.55 26.1 39.95 25.2 39.55 Q24.8 39.2 24.7 38.4 24.6 37.3 25.25 36.35 L26.35 34.95 Q26.7 34.3 26.55 33.45 L26.45 33.0 26.65 32.9 27.1 32.65 27.85 31.85 Q27.95 31.3 27.5 31.05 L26.8 30.95 25.5 31.8 24.9 31.4 24.95 31.25 25.25 30.85 25.7 30.45 25.85 29.85 25.45 29.4 24.95 29.4 Q24.65 29.45 24.35 29.75 L23.95 30.4 23.85 30.6 23.5 30.1 23.4 29.65 Q23.25 29.0 23.75 28.45 L24.5 27.85 25.15 27.15 25.45 26.35 25.55 25.6 25.55 25.05 25.45 24.95 24.9 24.5 25.6 23.9 Q26.0 23.6 26.0 23.3 L25.55 22.7 24.6 22.55 24.2 22.75 24.25 21.65 24.7 21.5 25.9 20.65 Q27.65 19.0 27.7 17.45 L28.2 17.4 29.45 17.6 Q30.65 17.5 32.35 16.6 L32.9 16.25 33.3 15.75 33.7 15.4 34.3 15.9 35.4 16.4 38.65 16.85 39.9 16.6 40.0 16.55 40.2 17.0 Q40.8 18.2 41.75 18.75 42.6 19.2 43.85 19.15 L44.45 20.6 45.65 22.4 45.4 22.7 44.95 23.3 44.65 24.25 44.45 25.15 Q44.4 25.8 44.8 26.9 L45.3 28.35 45.3 28.45 Q44.45 29.35 44.35 30.6 L44.5 31.9 44.95 32.9 Q45.95 34.75 47.8 35.55 L47.3 36.25 Q47.0 36.9 46.9 38.3 L47.1 40.1 47.15 40.25 47.1 40.25 46.45 41.05 46.2 41.8 46.0 42.85 46.1 43.5 46.35 44.45 46.75 45.4 47.15 46.05 47.35 46.3 Q47.2 47.0 47.3 47.7 46.05 48.15 45.35 49.6 L44.85 51.25 44.2 51.9 43.3 53.3 42.95 54.1 42.9 55.35 42.95 56.45 43.25 57.15 43.25 57.2 M32.65 36.75 L31.7 36.2 30.9 35.65 Q30.55 35.5 30.2 35.65 L29.65 36.15 Q29.45 36.5 29.6 36.9 L30.05 37.45 30.65 37.65 31.35 37.75 32.05 38.05 32.8 38.25 Q33.3 38.15 33.35 37.75 L33.35 37.4 33.1 36.95 32.65 36.75 M29.7 26.35 L30.4 25.7 30.65 25.25 Q30.75 24.8 30.3 24.7 L29.65 24.85 28.75 25.35 Q27.85 25.85 27.65 26.3 27.4 26.9 27.9 27.35 28.4 27.85 28.95 27.5 L29.5 26.75 29.7 26.35 M10.9 48.1 L11.3 47.25 Q11.3 46.7 10.8 46.35 10.3 46.1 9.8 46.35 L9.1 47.1 8.45 48.2 Q8.2 48.9 8.55 49.35 8.35 49.55 8.45 49.85 8.6 50.1 8.95 50.0 L9.25 49.8 9.65 49.5 10.9 48.1 M5.45 38.1 L4.05 38.05 Q3.55 38.15 3.3 38.4 3.0 38.7 3.1 39.15 L3.6 39.75 4.25 39.8 4.9 39.65 5.75 39.35 6.1 38.9 5.95 38.4 5.45 38.1 M9.25 20.7 L8.4 20.75 Q8.2 20.95 8.2 21.65 L8.3 23.3 Q8.4 24.15 8.7 24.45 9.05 24.8 9.45 24.7 L10.15 24.25 10.35 23.25 10.2 22.55 9.75 21.2 9.25 20.7" fill="#999999" fill-rule="evenodd" stroke="none"/>
    <path d="M20.8 18.25 L21.0 17.7 21.55 17.3 22.05 17.15 22.75 17.5 Q23.15 17.95 22.95 18.8 L22.7 19.85 Q22.35 20.4 21.85 20.45 21.4 20.5 21.05 20.2 L20.75 19.75 Q20.55 19.2 20.75 18.35 L20.8 18.25" fill="#000000" fill-rule="evenodd" stroke="none"/>
    <path d="M22.75 14.45 Q22.8 14.0 23.15 13.5 L24.25 11.55 24.85 10.8 Q25.5 10.25 26.15 10.65 26.9 11.0 26.8 11.75 26.8 12.25 26.2 12.95 L25.2 14.7 Q24.55 15.8 24.1 15.9 23.5 16.15 23.0 15.55 22.6 15.05 22.75 14.45 M33.2 8.1 Q33.55 8.45 33.4 9.05 L32.9 9.85 31.55 10.05 29.55 10.45 28.85 10.55 Q28.4 10.55 28.25 10.25 28.0 9.9 28.45 9.1 L29.15 8.3 Q29.75 7.8 31.15 7.7 L32.2 7.65 Q32.8 7.65 33.2 8.1 M57.05 43.8 Q57.65 43.75 58.05 44.5 L58.3 45.85 58.25 47.3 58.15 48.75 Q57.85 49.35 57.1 49.45 56.35 49.45 56.05 48.8 55.85 48.45 55.95 47.25 L56.05 45.95 56.15 44.65 Q56.35 43.8 57.05 43.8 M57.25 36.0 L57.5 36.8 57.35 38.0 Q56.9 38.6 56.35 38.6 55.85 38.6 55.4 38.2 L54.9 37.3 Q54.75 36.8 54.75 35.2 L54.7 34.1 Q54.7 33.4 55.1 33.05 55.6 32.55 56.1 32.85 L56.6 33.45 57.15 35.05 57.25 36.0 M53.85 28.45 Q53.35 28.25 52.95 27.5 L52.65 26.25 Q52.5 24.95 52.15 24.05 51.8 23.25 51.95 22.95 52.2 22.4 52.9 22.5 53.45 22.6 53.8 23.1 L54.85 24.9 55.25 25.85 Q55.75 27.2 55.4 27.85 L54.75 28.45 Q54.25 28.65 53.85 28.45 M46.05 13.8 L47.25 13.85 Q48.25 14.3 49.4 15.75 L50.0 16.75 Q50.3 17.7 49.6 18.3 L48.85 18.65 48.05 18.4 Q47.8 18.2 47.5 17.6 L46.3 15.55 45.85 14.7 Q45.65 14.1 46.05 13.8 M38.55 8.5 L41.2 8.85 Q42.55 9.25 42.85 10.05 43.1 10.7 42.7 11.25 42.3 11.8 41.6 11.8 41.0 11.75 40.0 11.15 L38.75 10.8 Q38.0 10.6 37.7 10.25 37.1 9.65 37.45 9.1 37.7 8.6 38.55 8.5 M19.3 33.25 L21.05 33.6 21.15 33.4 21.55 32.95 Q21.7 32.4 21.9 32.2 L22.25 32.15 Q22.7 32.05 22.8 32.55 L22.7 33.1 22.8 33.7 22.75 34.1 23.0 33.9 Q23.4 33.65 23.8 33.65 24.3 33.55 24.6 33.95 24.95 34.4 24.6 35.0 L23.8 35.8 23.5 36.0 Q23.8 36.85 23.5 37.65 L22.45 39.25 21.8 39.95 Q22.7 40.05 23.65 40.6 L24.45 41.45 Q24.7 42.2 24.3 42.6 L23.2 42.75 22.05 42.4 20.5 42.6 20.4 42.65 Q20.4 43.2 20.75 43.6 21.6 44.5 23.0 43.95 L24.95 42.7 Q26.2 41.75 27.1 41.75 27.55 42.85 26.85 44.05 L25.6 45.45 25.65 45.55 Q25.95 46.25 25.75 46.7 25.4 47.3 24.75 47.1 L23.8 46.55 23.8 46.5 21.15 46.95 20.1 46.75 19.7 47.0 19.05 47.35 18.75 47.75 18.35 47.85 18.0 47.6 Q17.85 47.35 18.1 46.75 L18.3 46.25 18.2 46.25 17.55 46.4 16.85 46.2 Q16.35 45.9 16.4 45.5 L16.5 45.25 Q16.85 44.6 17.45 44.4 L17.65 44.1 17.55 43.05 Q16.85 42.85 16.25 42.4 15.1 41.6 14.6 40.1 L13.2 39.85 12.75 39.4 13.0 38.9 13.45 38.35 Q13.75 37.95 14.0 37.85 L14.4 37.65 14.55 36.8 14.05 36.7 Q12.3 36.1 11.85 33.85 L11.75 32.9 11.25 32.9 Q10.7 32.8 10.55 32.4 10.4 32.0 10.95 31.55 L11.85 31.05 11.45 30.25 11.25 29.45 Q11.15 29.0 11.45 28.7 11.7 28.45 12.2 28.45 L13.0 28.8 13.25 28.95 13.6 28.5 14.15 27.95 14.25 27.5 Q14.65 25.85 15.8 24.75 L15.7 24.5 15.7 23.65 16.15 23.25 16.5 23.2 16.75 23.25 17.2 23.7 17.3 23.6 Q17.9 23.3 18.2 23.35 18.8 23.45 18.7 23.95 L18.15 24.55 17.7 24.85 17.7 25.85 Q17.35 26.3 16.85 26.15 L16.5 26.0 16.4 26.1 16.0 26.75 Q17.2 26.15 18.7 25.85 L19.95 25.55 Q20.7 25.2 20.75 24.6 L20.35 23.2 Q19.95 22.4 20.2 21.95 20.55 21.35 21.3 21.55 L22.25 22.3 Q23.15 23.6 22.85 25.05 L23.45 25.75 Q23.7 26.1 23.55 26.35 L23.05 26.75 22.35 26.6 22.3 26.6 22.35 27.2 22.3 27.8 22.4 28.05 22.35 28.5 21.95 28.65 21.45 28.25 20.95 27.85 20.75 27.55 19.0 28.0 17.2 28.7 Q17.8 29.15 18.3 30.15 L18.5 30.5 18.65 30.3 19.5 29.75 19.8 29.65 Q20.25 29.65 20.35 30.1 L20.3 30.8 19.8 31.4 19.4 31.8 19.1 32.05 19.15 32.3 19.05 33.25 19.3 33.25 M15.8 33.85 L16.25 33.75 16.7 32.6 16.4 31.7 15.35 30.25 Q14.3 31.65 14.65 33.3 L14.95 33.85 Q15.25 34.1 15.8 33.85 M18.7 39.05 L20.25 37.4 20.55 36.9 20.1 36.45 19.7 36.35 19.7 36.4 19.35 37.35 19.15 37.6 18.3 37.65 Q17.9 37.4 17.9 36.85 L18.05 36.35 17.4 36.5 17.25 36.7 Q16.6 38.0 16.85 39.05 17.0 39.7 17.45 40.1 L17.85 40.4 18.7 39.05" fill="#000000" fill-rule="evenodd" stroke="none"/>
  </g>
</svg>
