<?xml version="1.0" encoding="UTF-8" standalone="no"?>
<svg xmlns:ffdec="https://www.free-decompiler.com/flash" xmlns:xlink="http://www.w3.org/1999/xlink" ffdec:objectType="shape" height="41.05px" width="76.4px" xmlns="http://www.w3.org/2000/svg">
  <g transform="matrix(1.0, 0.0, 0.0, 1.0, 2.0, 1.15)">
    <path d="M22.5 -1.15 L22.65 -1.1 22.75 -1.05 22.85 -1.0 22.9 -0.9 22.9 -0.8 22.95 -0.75 22.95 -0.65 23.0 -0.6 23.0 -0.55 23.0 -0.45 23.0 -0.3 23.0 -0.2 23.0 -0.1 23.0 0.0 23.0 0.15 23.0 0.25 23.0 0.4 23.0 0.5 23.0 0.6 23.0 0.7 23.0 0.85 23.0 0.95 23.0 1.1 23.0 1.2 23.0 1.3 23.0 1.4 23.0 1.5 23.05 1.55 23.05 1.65 23.05 1.8 23.05 1.9 23.05 2.0 23.05 2.1 23.05 2.25 23.05 2.35 23.1 2.4 23.1 2.5 23.1 2.6 23.1 2.7 23.1 2.8 23.1 2.95 23.1 3.05 23.1 3.1 23.15 3.15 23.15 3.2 23.15 3.3 23.15 3.4 23.15 3.5 23.15 3.65 23.2 3.75 23.2 3.85 23.2 3.95 23.2 4.1 23.2 4.2 23.2 4.3 23.25 4.35 23.25 4.45 23.25 4.55 23.25 4.65 23.25 4.8 23.25 4.9 23.25 5.05 23.25 5.15 23.25 5.25 23.3 5.35 23.3 5.5 23.3 5.6 23.3 5.75 23.3 5.85 23.3 5.95 23.3 6.05 23.3 6.2 23.35 6.3 23.35 6.45 23.35 6.55 23.35 6.65 23.35 6.75 23.35 6.9 23.35 7.0 23.4 7.05 23.4 7.1 23.4 7.2 23.4 7.35 23.4 7.45 23.4 7.6 23.4 7.7 23.45 7.75 23.45 7.8 23.45 7.9 23.45 8.05 23.45 8.15 23.45 8.3 23.45 8.4 23.45 8.5 23.45 8.6 23.45 8.75 23.45 8.85 23.45 9.0 23.45 9.1 23.45 9.2 23.45 9.3 23.45 9.45 23.45 9.55 23.5 9.6 23.5 9.7 23.5 9.8 23.5 9.9 23.5 10.0 23.5 10.1 23.55 10.15 23.55 10.25 23.55 10.4 23.55 10.5 23.55 10.6 23.55 10.7 23.6 10.75 23.6 10.85 23.6 10.95 23.6 11.05 23.6 11.15 23.6 11.3 23.6 11.4 23.6 11.55 23.6 11.65 23.6 11.75 23.6 11.85 23.6 12.0 23.6 12.1 23.6 12.25 23.6 12.35 23.65 12.4 23.65 12.45 23.65 12.55 23.65 12.7 23.65 12.8 23.65 12.85 23.7 12.9 23.7 12.95 23.7 13.05 23.7 13.15 23.7 13.25 23.7 13.35 23.75 13.4 23.75 13.5 23.75 13.65 23.75 13.75 23.75 13.8 23.8 13.85 23.8 13.95 23.8 14.1 23.8 14.2 23.85 14.25 23.85 14.35 23.85 14.45 23.85 14.55 23.9 14.65 23.9 14.75 23.95 14.8 23.95 14.9 23.95 15.0 23.95 15.1 24.0 15.15 24.0 15.25 24.0 15.35 24.0 15.5 24.0 15.6 24.0 15.7 24.0 15.8 24.0 15.95 24.0 16.05 24.0 16.2 24.0 16.3 24.0 16.4 24.0 16.5 24.0 16.55 24.05 16.6 24.05 16.65 24.05 16.75 24.05 16.9 24.05 17.0 24.05 17.1 24.0 17.2 24.0 17.35 24.0 17.45 24.0 17.6 24.0 17.7 23.95 17.75 23.95 17.8 23.95 17.9 23.9 17.95 23.9 18.0 23.85 18.05 23.85 18.15 23.8 18.2 23.8 18.25 23.75 18.35 23.7 18.4 23.7 18.5 23.65 18.6 23.65 18.65 23.6 18.7 23.6 18.75 23.55 18.85 23.5 18.9 23.45 18.95 23.45 19.05 23.35 19.1 23.3 19.15 23.2 19.2 23.15 19.3 23.0 19.35 22.9 19.4 22.7 19.45 22.5 19.45 22.3 19.45 22.1 19.4 21.95 19.35 21.85 19.3 21.75 19.2 21.65 19.15 21.6 19.1 21.55 19.05 21.5 18.95 21.45 18.9 21.4 18.85 21.4 18.75 21.35 18.7 21.3 18.65 21.3 18.6 21.3 18.5 21.3 18.45 21.25 18.4 21.2 18.35 21.2 18.45 21.2 18.6 21.2 18.7 21.15 18.75 21.15 18.8 21.15 18.9 21.15 19.0 21.1 19.05 21.1 19.15 21.1 19.2 21.05 19.25 21.05 19.3 21.0 19.4 21.0 19.45 20.95 19.5 20.9 19.6 20.8 19.7 20.75 19.75 20.7 19.85 20.6 19.95 20.5 20.0 20.45 20.1 20.3 20.15 20.2 20.2 20.15 20.2 19.95 20.25 19.75 20.2 19.6 20.15 19.5 20.1 19.4 20.05 19.3 20.0 19.25 19.9 19.2 19.85 19.15 19.8 19.05 19.75 19.05 19.65 19.0 19.6 18.95 19.55 18.9 19.45 18.85 19.4 18.85 19.35 18.8 19.3 18.8 19.2 18.8 19.15 18.75 19.1 18.75 19.05 18.75 18.95 18.75 18.85 18.7 18.75 18.7 18.6 18.7 18.5 18.7 18.35 18.7 18.25 18.7 18.15 18.7 18.05 18.7 17.9 18.7 17.8 18.7 17.7 18.7 17.6 18.7 17.55 18.75 17.5 18.75 17.45 18.75 17.35 18.75 17.2 18.75 17.1 18.75 17.0 18.75 16.9 18.75 16.85 18.8 16.8 18.8 16.75 18.8 16.65 18.8 16.5 18.8 16.4 18.8 16.3 18.8 16.2 18.8 16.05 18.8 15.95 18.8 15.9 18.85 15.85 18.85 15.8 18.85 15.7 18.85 15.6 18.85 15.5 18.85 15.35 18.85 15.25 18.85 15.2 18.9 15.15 18.9 15.1 18.9 15.0 18.9 14.9 18.9 14.8 18.9 14.65 18.9 14.55 18.9 14.45 18.95 14.35 18.95 14.2 18.95 14.1 18.95 13.95 18.95 13.85 18.95 13.75 18.95 13.65 18.95 13.5 18.95 13.4 18.95 13.25 18.95 13.15 18.95 13.1 19.0 13.05 19.0 12.95 19.0 12.8 19.0 12.7 19.0 12.55 19.0 12.45 19.0 12.4 19.05 12.35 19.05 12.25 19.05 12.1 19.05 12.0 19.05 11.85 19.05 11.75 19.05 11.65 19.1 11.55 19.1 11.4 19.1 11.3 19.1 11.15 19.1 11.05 19.1 10.95 19.1 10.85 19.1 10.7 19.1 10.6 19.1 10.5 19.1 10.4 19.15 10.35 19.15 10.25 19.15 10.15 19.15 10.0 19.15 9.9 19.15 9.85 19.2 9.8 19.2 9.7 19.2 9.55 19.2 9.45 19.2 9.3 19.2 9.2 19.2 9.1 19.2 9.0 19.2 8.85 19.2 8.75 19.2 8.6 19.25 8.5 19.25 8.4 19.25 8.3 19.25 8.15 19.25 8.05 19.25 7.9 19.25 7.8 19.3 7.75 19.3 7.7 19.3 7.6 19.3 7.45 19.3 7.35 19.3 7.3 19.35 7.25 19.35 7.2 19.35 7.1 19.35 7.0 19.35 6.9 19.35 6.75 19.35 6.65 19.35 6.55 19.35 6.45 19.35 6.3 19.35 6.2 19.35 6.05 19.35 5.95 19.35 5.85 19.35 5.75 19.35 5.6 19.35 5.5 19.35 5.35 19.35 5.25 19.35 5.15 19.35 5.05 19.35 4.95 19.3 4.9 19.25 4.8 19.25 4.65 19.25 4.55 19.25 4.5 19.3 4.45 19.35 4.35 19.35 4.3 19.4 4.25 19.45 4.2 19.5 4.1 19.55 4.05 19.6 4.0 19.7 3.95 19.8 3.9 19.95 3.9 19.95 3.85 20.15 3.9 20.25 3.95 20.35 4.05 20.35 4.1 20.4 4.15 20.45 4.2 20.45 4.3 20.45 4.35 20.5 4.4 20.5 4.5 20.5 4.65 20.5 4.75 20.5 4.9 20.5 5.0 20.5 5.1 20.5 5.2 20.5 5.35 20.5 5.45 20.5 5.6 20.5 5.7 20.5 5.8 20.5 5.9 20.5 6.05 20.5 6.15 20.5 6.25 20.5 6.35 20.5 6.5 20.55 6.6 20.55 6.75 20.55 6.85 20.55 6.95 20.55 7.05 20.55 7.2 20.55 7.3 20.6 7.35 20.6 7.45 20.6 7.55 20.6 7.65 20.6 7.75 20.6 7.9 20.6 8.0 20.6 8.1 20.65 8.15 20.65 8.25 20.65 8.35 20.65 8.45 20.65 8.6 20.65 8.7 20.65 8.85 20.65 8.95 20.65 9.05 20.65 9.15 20.7 9.2 20.7 9.3 20.7 9.4 20.7 9.5 20.7 9.6 20.7 9.75 20.7 9.85 20.75 9.9 20.75 10.0 20.75 10.1 20.75 10.2 20.75 10.3 20.75 10.45 20.75 10.55 20.75 10.7 20.75 10.8 20.75 10.9 20.75 11.0 20.75 11.1 20.8 11.15 20.8 11.25 20.8 11.4 20.8 11.5 20.8 11.6 20.8 11.7 20.8 11.85 20.8 11.95 20.85 12.0 20.85 12.1 20.85 12.2 20.85 12.3 20.85 12.4 20.9 12.45 20.9 12.55 20.9 12.65 20.9 12.8 20.9 12.9 20.9 13.0 20.9 13.1 20.9 13.25 20.9 13.35 20.9 13.45 20.9 13.55 20.9 13.65 20.95 13.7 20.95 13.8 20.95 13.95 20.95 14.05 20.95 14.15 20.95 14.25 20.95 14.4 20.95 14.5 20.95 14.65 21.0 14.75 21.0 14.85 21.0 14.95 21.0 15.15 21.05 15.1 21.05 15.0 21.05 14.9 21.05 14.8 21.05 14.65 21.1 14.55 21.1 14.5 21.15 14.45 21.15 14.35 21.15 14.25 21.2 14.2 21.2 14.1 21.2 13.95 21.2 13.85 21.2 13.75 21.2 13.65 21.25 13.6 21.25 13.5 21.25 13.4 21.25 13.25 21.25 13.15 21.3 13.1 21.3 13.05 21.3 12.95 21.3 12.8 21.3 12.7 21.35 12.65 21.35 12.55 21.35 12.45 21.35 12.35 21.35 12.25 21.35 12.1 21.35 12.0 21.4 11.95 21.4 11.85 21.4 11.75 21.4 11.65 21.4 11.55 21.4 11.4 21.4 11.3 21.4 11.15 21.4 11.05 21.4 10.95 21.4 10.85 21.4 10.7 21.45 10.6 21.45 10.5 21.45 10.4 21.45 10.25 21.45 10.15 21.45 10.0 21.45 9.9 21.45 9.8 21.5 9.7 21.5 9.55 21.5 9.45 21.5 9.3 21.5 9.2 21.5 9.1 21.5 9.0 21.55 8.95 21.55 8.85 21.55 8.75 21.55 8.6 21.55 8.5 21.55 8.4 21.55 8.3 21.55 8.15 21.55 8.05 21.55 7.9 21.55 7.8 21.55 7.75 21.6 7.7 21.6 7.6 21.6 7.45 21.6 7.35 21.6 7.2 21.6 7.1 21.6 7.0 21.6 6.9 21.6 6.75 21.6 6.65 21.65 6.6 21.65 6.55 21.65 6.45 21.65 6.3 21.65 6.2 21.65 6.05 21.65 5.95 21.65 5.85 21.7 5.75 21.7 5.6 21.7 5.5 21.7 5.35 21.7 5.25 21.75 5.2 21.75 5.15 21.75 5.05 21.75 4.9 21.75 4.8 21.75 4.65 21.75 4.55 21.75 4.45 21.75 4.35 21.75 4.2 21.75 4.1 21.75 4.0 21.8 3.95 21.8 3.85 21.8 3.75 21.8 3.65 21.8 3.55 21.85 3.5 21.85 3.4 21.85 3.3 21.85 3.2 21.85 3.1 21.9 3.05 21.9 2.95 21.9 2.8 21.9 2.7 21.9 2.6 21.9 2.5 21.9 2.35 21.9 2.25 21.9 2.1 21.95 2.0 21.95 1.9 21.95 1.8 21.95 1.65 21.95 1.55 21.95 1.4 21.95 1.3 21.95 1.2 21.95 1.1 21.95 0.95 21.95 0.85 21.95 0.8 22.0 0.75 22.0 0.7 22.0 0.6 22.0 0.5 22.0 0.4 22.0 0.25 22.0 0.15 22.0 0.0 22.0 -0.1 22.0 -0.2 22.0 -0.3 22.0 -0.45 22.0 -0.55 22.0 -0.6 22.05 -0.65 22.05 -0.75 22.05 -0.85 22.1 -0.9 22.15 -1.0 22.2 -1.05 22.3 -1.1 22.5 -1.15 M56.6 1.4 L56.4 2.5 56.2 3.2 Q55.95 3.65 55.55 3.45 L55.2 2.95 54.7 1.2 54.6 0.1 Q54.8 -0.55 55.15 -0.8 L56.3 -0.9 Q56.85 -0.6 56.95 0.1 L56.6 1.4 M55.9 6.05 L55.1 5.9 Q54.7 5.65 54.7 5.2 54.7 4.8 54.95 4.45 55.35 4.05 55.9 4.25 56.45 4.4 56.55 4.95 L56.45 5.65 55.9 6.05 M58.15 31.15 L61.65 31.15 65.9 31.15 66.45 31.2 67.9 31.2 69.1 31.25 69.65 31.25 71.3 31.3 71.6 31.3 72.55 31.25 72.65 31.25 72.7 31.25 72.9 31.25 73.25 31.25 73.5 31.3 73.65 31.35 73.75 31.4 73.85 31.45 73.9 31.55 73.95 31.6 74.0 31.65 74.05 31.75 74.1 31.8 74.1 31.9 74.15 32.0 74.15 32.15 74.15 32.25 74.15 32.3 74.2 32.35 74.25 32.4 74.25 32.45 74.25 32.55 74.25 32.7 74.25 32.8 74.2 32.85 74.25 32.9 74.25 33.0 74.25 33.05 74.3 33.1 74.3 33.15 74.3 33.25 74.3 33.35 74.3 33.45 74.35 33.5 74.35 33.6 74.35 33.7 74.35 33.85 74.35 33.95 74.4 34.0 74.4 34.05 74.4 34.15 74.4 34.3 74.4 34.4 74.4 34.55 74.4 34.65 74.4 34.75 74.4 34.85 74.4 35.0 74.4 35.1 74.4 35.25 74.4 35.35 74.4 35.45 74.4 35.55 74.4 35.7 74.4 35.8 74.4 35.95 74.4 36.05 74.4 36.15 74.4 36.25 74.4 36.4 74.4 36.5 74.4 36.65 74.4 36.75 74.4 36.85 74.4 36.95 74.4 37.1 74.4 37.2 74.4 37.3 74.4 37.4 74.4 37.55 74.4 37.65 74.4 37.8 74.4 37.9 74.4 38.0 74.4 38.1 74.4 38.25 74.4 38.35 74.4 38.45 74.35 38.5 74.35 38.6 74.35 38.7 74.4 38.8 74.35 38.85 74.4 38.85 74.4 38.95 74.4 39.1 74.4 39.2 74.4 39.25 74.35 39.3 74.35 39.35 74.3 39.45 74.25 39.5 74.25 39.55 74.2 39.65 74.1 39.7 74.05 39.75 73.95 39.8 73.8 39.9 73.55 39.9 73.5 39.9 73.15 39.9 72.65 39.9 72.45 39.9 72.25 39.9 72.1 39.9 72.0 39.85 71.9 39.85 71.75 39.8 63.5 39.8 58.25 39.85 56.5 39.85 54.25 39.9 52.9 39.9 50.0 39.9 46.8 39.9 26.75 39.9 23.7 39.9 22.4 39.85 19.7 39.85 18.85 39.85 16.65 39.85 15.25 39.8 14.1 39.8 4.6 39.8 3.75 39.8 2.8 39.8 2.35 39.8 0.8 39.8 0.65 39.8 0.5 39.8 0.35 39.75 0.25 39.75 0.1 39.7 0.0 39.65 -0.15 39.6 -0.2 39.55 -0.25 39.5 -0.3 39.4 -0.35 39.35 -0.4 39.3 -0.4 39.2 -0.4 39.05 -0.4 38.95 -0.4 38.85 -0.35 38.8 -0.35 38.7 -0.25 38.65 -0.25 38.6 -0.15 38.5 -0.05 38.45 0.0 38.4 0.1 38.4 0.1 38.35 0.1 38.25 0.1 38.1 0.1 38.0 0.1 37.95 0.15 37.9 0.15 37.8 0.15 37.65 0.15 37.55 0.15 37.4 0.15 37.3 0.15 37.2 0.15 37.1 0.15 36.95 0.15 36.85 0.15 36.75 0.15 36.65 0.15 36.5 0.15 36.4 0.15 36.3 0.1 36.25 0.1 36.15 0.1 36.05 0.1 35.95 0.1 35.8 0.1 35.7 0.1 35.55 0.1 35.45 0.1 35.35 0.1 35.25 0.1 35.15 0.05 35.1 0.05 35.0 0.05 34.85 0.05 34.75 0.05 34.65 0.05 34.55 0.05 34.4 0.05 34.3 0.05 34.15 0.05 34.05 0.05 33.95 0.05 33.85 0.05 33.7 0.0 33.6 0.0 33.45 0.0 33.35 0.0 33.25 0.0 33.15 0.0 33.05 -0.05 33.0 0.0 32.9 0.0 32.8 0.0 32.7 0.0 32.65 0.05 32.65 -0.05 32.6 -0.15 32.55 -0.2 32.45 -0.25 32.4 -0.25 32.3 -0.25 32.2 -0.3 32.15 -0.25 32.1 -0.25 32.0 -0.25 31.9 -0.2 31.85 -0.15 31.75 -0.05 31.7 0.05 31.65 0.25 31.6 0.95 31.6 1.2 31.6 1.2 31.1 -0.05 31.2 Q-1.6 30.95 -1.95 29.55 -2.2 28.5 -1.2 26.65 1.4 22.2 3.85 19.6 4.5 18.95 5.05 18.65 L4.85 18.45 3.85 17.1 3.1 15.7 Q2.35 14.0 3.2 12.0 3.75 10.55 4.95 9.45 5.15 8.5 5.5 7.7 L5.6 7.4 5.75 7.2 6.5 6.0 Q6.85 5.5 7.45 5.5 7.95 5.45 8.45 5.85 L8.7 6.15 9.55 7.6 Q11.0 7.6 12.35 8.25 13.5 8.8 14.2 9.7 L14.75 9.5 16.15 9.55 Q16.65 9.65 16.9 9.9 17.35 10.25 17.25 10.8 L16.8 11.65 15.3 15.05 14.85 16.45 13.8 18.3 Q12.5 19.75 9.8 20.0 L9.35 20.05 7.55 26.9 6.2 31.3 6.15 31.5 7.6 31.5 10.95 31.5 15.75 31.5 17.45 31.5 19.4 31.45 22.3 31.45 22.75 31.45 23.25 31.4 25.65 31.4 28.6 31.35 31.3 31.35 32.6 31.3 34.95 31.3 39.15 31.3 41.45 31.3 42.85 31.3 45.05 31.3 45.95 31.35 46.65 31.35 48.65 31.35 51.7 31.35 52.6 31.3 55.15 31.3 55.65 31.3 56.0 31.25 56.4 31.25 56.7 31.2 57.0 31.2 57.4 31.15 58.15 31.15 M25.25 6.75 L25.4 6.8 25.55 6.9 25.55 6.95 25.6 7.0 25.65 7.05 25.65 7.15 25.65 7.2 25.7 7.25 25.7 7.3 25.7 7.4 25.7 7.5 25.7 7.6 25.7 7.75 25.7 7.85 25.7 8.0 25.75 8.1 25.75 8.2 25.75 8.3 25.75 8.45 25.75 8.55 25.75 8.65 25.75 8.75 25.8 8.8 25.8 8.9 25.8 9.0 25.8 9.15 25.8 9.25 25.8 9.35 25.8 9.45 25.8 9.5 25.85 9.55 25.85 9.6 25.85 9.7 25.85 9.85 25.85 9.95 25.85 10.05 25.85 10.15 25.85 10.3 25.85 10.4 25.85 10.55 25.85 10.65 25.9 10.7 25.9 10.75 25.9 10.85 25.9 11.0 25.9 11.1 25.9 11.25 25.9 11.35 25.95 11.4 25.95 11.45 25.95 11.55 25.95 11.7 25.95 11.8 25.95 11.95 25.95 12.05 25.95 12.15 25.95 12.25 25.95 12.4 25.95 12.5 25.95 12.6 25.95 12.7 25.95 12.85 25.95 12.95 25.95 13.1 25.95 13.2 25.95 13.3 25.95 13.4 25.95 13.55 25.95 13.65 26.0 13.7 26.0 13.8 26.0 13.9 26.0 14.0 26.0 14.1 26.0 14.25 26.0 14.35 26.0 14.5 26.0 14.6 26.0 14.7 26.0 14.8 26.0 14.95 26.05 15.05 26.05 15.2 26.05 15.3 26.05 15.4 26.05 15.5 26.05 15.65 26.05 15.75 26.05 15.85 26.05 15.95 26.05 16.1 26.05 16.2 26.1 16.25 26.1 16.35 26.1 16.45 26.1 16.55 26.1 16.65 26.1 16.75 26.15 16.8 26.15 16.9 26.15 17.05 26.2 17.15 26.2 17.25 26.2 17.35 26.2 17.5 26.2 17.6 26.2 17.65 26.25 17.7 26.25 17.75 26.25 17.85 26.25 17.95 26.25 18.05 26.25 18.2 26.25 18.3 26.25 18.35 26.3 18.4 26.3 18.45 26.3 18.55 26.3 18.65 26.3 18.75 26.3 18.9 26.3 19.0 26.3 19.15 26.3 19.25 26.25 19.3 26.25 19.35 26.25 19.45 26.2 19.5 26.2 19.55 26.15 19.6 26.1 19.7 26.1 19.75 26.0 19.8 25.95 19.9 25.85 19.95 25.8 20.0 25.65 20.05 25.55 20.1 25.45 20.15 25.25 20.15 25.05 20.15 24.9 20.1 24.75 20.0 24.65 19.95 24.55 19.9 24.5 19.85 24.45 19.75 24.4 19.7 24.35 19.65 24.3 19.6 24.3 19.5 24.25 19.45 24.25 19.4 24.25 19.3 24.2 19.25 24.2 19.15 24.2 19.05 24.2 18.9 24.2 18.8 24.2 18.7 24.2 18.6 24.2 18.45 24.2 18.35 24.25 18.3 24.25 18.2 24.25 18.1 24.25 18.0 24.3 17.9 24.3 17.75 24.3 17.65 24.3 17.5 24.3 17.4 24.3 17.3 24.3 17.2 24.3 17.1 24.35 17.05 24.35 16.95 24.35 16.85 24.35 16.75 24.4 16.7 24.4 16.6 24.4 16.5 24.4 16.45 24.45 16.4 24.45 16.35 24.45 16.25 24.45 16.15 24.45 16.05 24.45 15.9 24.45 15.8 24.45 15.65 24.45 15.55 24.45 15.45 24.45 15.35 24.45 15.2 24.45 15.1 24.45 15.0 24.5 14.95 24.5 14.85 24.5 14.75 24.5 14.65 24.5 14.5 24.5 14.4 24.5 14.25 24.5 14.15 24.5 14.1 24.55 14.05 24.55 13.95 24.55 13.8 24.55 13.7 24.55 13.55 24.55 13.45 24.55 13.35 24.55 13.25 24.55 13.1 24.55 13.0 24.55 12.9 24.55 12.8 24.55 12.65 24.55 12.55 24.55 12.4 24.55 12.3 24.55 12.2 24.55 12.1 24.55 11.95 24.55 11.85 24.55 11.7 24.55 11.6 24.55 11.5 24.55 11.4 24.55 11.35 24.6 11.3 24.6 11.25 24.6 11.15 24.6 11.0 24.6 10.9 24.6 10.8 24.6 10.7 24.6 10.65 24.65 10.6 24.65 10.55 24.65 10.45 24.65 10.3 24.65 10.2 24.65 10.1 24.65 10.0 24.65 9.95 24.7 9.9 24.7 9.85 24.7 9.75 24.7 9.6 24.7 9.5 24.7 9.4 24.7 9.3 24.7 9.15 24.7 9.05 24.7 8.95 24.7 8.85 24.7 8.75 24.75 8.7 24.75 8.6 24.75 8.45 24.75 8.35 24.75 8.25 24.75 8.15 24.75 8.05 24.8 8.0 24.8 7.9 24.8 7.75 24.8 7.65 24.8 7.55 24.8 7.45 24.8 7.3 24.85 7.2 24.85 7.05 24.9 6.95 24.95 6.9 25.05 6.85 25.15 6.8 25.25 6.8 25.25 6.75 M15.3 13.95 Q15.15 12.75 14.1 12.35 L13.7 12.8 13.25 13.15 12.55 13.5 11.05 13.9 Q10.95 14.25 11.0 14.65 11.15 15.45 11.75 15.95 12.35 16.45 13.2 16.45 14.0 16.4 14.6 15.9 15.5 15.2 15.3 13.95 M4.35 11.4 Q4.1 12.25 4.5 13.15 4.9 14.0 5.75 14.35 6.6 14.7 7.55 14.35 L8.75 13.4 8.7 13.35 7.95 12.85 7.6 12.45 Q7.0 11.6 7.15 10.7 L7.15 10.35 7.3 9.75 7.0 9.7 Q6.15 9.6 5.4 10.1 4.6 10.6 4.35 11.4" fill="#999999" fill-rule="evenodd" stroke="none"/>
    <path d="M4.35 11.4 Q4.6 10.6 5.4 10.1 6.15 9.6 7.0 9.7 L7.3 9.75 7.15 10.35 7.15 10.7 Q7.0 11.6 7.6 12.45 L7.95 12.85 8.7 13.35 8.75 13.4 7.55 14.35 Q6.6 14.7 5.75 14.35 4.9 14.0 4.5 13.15 4.1 12.25 4.35 11.4 M15.3 13.95 Q15.5 15.2 14.6 15.9 14.0 16.4 13.2 16.45 12.35 16.45 11.75 15.95 11.15 15.45 11.0 14.65 10.95 14.25 11.05 13.9 L12.55 13.5 13.25 13.15 13.7 12.8 14.1 12.35 Q15.15 12.75 15.3 13.95" fill="#ffffff" fill-rule="evenodd" stroke="none"/>
    <path d="M54.9 7.5 L56.3 7.7 56.55 7.4 Q57.85 6.2 58.95 5.9 61.0 5.4 63.1 6.75 L63.8 7.35 64.25 8.1 Q65.5 10.65 64.3 12.7 L63.35 13.95 62.35 14.7 61.85 14.95 61.8 16.7 Q61.5 20.05 59.15 22.3 57.1 24.3 54.55 24.5 55.1 26.6 54.4 29.4 L53.95 30.9 Q53.4 32.25 52.25 33.45 L50.35 35.15 Q48.55 36.3 44.85 36.75 40.9 37.15 38.95 36.7 37.35 36.35 36.2 35.6 L35.45 35.6 34.45 35.6 34.4 35.6 34.05 35.6 32.85 35.6 32.55 35.55 32.3 35.55 32.1 35.55 32.0 35.5 31.9 35.5 31.85 35.45 31.75 35.45 31.6 35.4 31.4 35.35 31.1 35.3 30.95 35.25 30.8 35.25 30.55 35.25 30.25 35.25 22.5 35.15 21.0 34.85 Q20.55 34.5 20.35 33.75 L20.05 32.45 Q19.8 31.55 19.25 31.15 18.55 30.65 17.85 30.95 L16.85 31.9 Q15.65 33.15 14.1 32.75 13.0 32.6 12.55 31.7 12.0 30.75 12.8 29.95 L13.7 29.75 Q14.25 29.8 14.45 30.25 L15.15 29.8 15.7 29.0 Q16.35 28.3 18.0 28.2 L19.9 28.4 Q20.8 28.75 21.45 29.7 L21.45 29.6 21.45 29.45 21.45 29.35 21.45 29.2 21.45 29.1 21.45 29.0 21.45 28.9 21.45 28.75 21.4 28.65 21.4 28.5 21.4 28.4 21.35 28.35 21.35 28.3 21.35 28.2 21.35 28.1 21.3 28.05 21.3 27.95 21.3 27.8 21.25 27.7 21.25 27.6 21.25 27.5 21.2 27.45 21.2 27.35 21.2 27.25 21.2 27.15 21.15 27.1 21.15 27.0 21.15 26.9 21.1 26.8 21.1 26.65 21.1 26.55 21.05 26.5 21.05 26.45 21.05 26.35 21.05 26.2 21.05 26.1 21.05 25.95 21.05 25.85 21.05 25.75 21.05 25.65 21.05 25.5 21.05 25.4 21.05 25.25 21.05 25.15 21.05 25.05 21.0 24.95 21.0 24.8 21.0 24.7 21.0 24.6 20.95 24.55 20.95 24.45 20.95 24.35 20.95 24.25 20.95 24.15 20.9 24.1 20.9 24.0 20.9 23.85 20.9 23.75 20.9 23.65 20.9 23.55 20.9 23.4 20.9 23.3 20.9 23.2 20.9 23.1 20.9 22.95 20.9 22.85 20.9 22.7 20.9 22.6 20.9 22.5 20.9 22.4 20.9 22.25 20.9 22.15 20.9 22.0 20.9 21.9 20.9 21.8 20.9 21.7 20.9 21.55 20.9 21.45 20.9 21.3 20.9 21.2 20.9 21.05 20.8 21.05 20.3 21.05 19.7 21.05 19.35 21.1 19.2 21.1 18.95 21.15 18.85 21.15 18.8 21.15 18.5 21.1 18.4 21.1 18.35 21.05 18.2 21.0 18.0 20.95 17.9 20.9 17.8 20.85 17.7 20.75 17.6 20.7 17.55 20.65 17.5 20.6 17.4 20.5 17.35 20.45 17.3 20.4 17.25 20.3 17.15 20.2 17.15 20.15 17.1 20.05 17.1 20.0 17.0 19.9 17.0 19.8 17.0 19.75 16.95 19.7 16.95 19.6 16.95 19.45 16.95 19.35 16.95 19.3 16.9 19.25 16.95 19.15 16.95 19.0 16.95 18.9 16.95 18.8 17.0 18.75 17.0 18.65 17.0 18.6 17.05 18.55 17.1 18.45 17.1 18.4 17.15 18.35 17.15 18.3 17.2 18.2 17.25 18.15 17.35 18.05 17.4 17.95 17.5 17.9 17.55 17.85 17.6 17.75 17.7 17.7 17.8 17.65 17.9 17.6 18.0 17.5 18.2 17.45 18.35 17.4 18.4 17.4 18.5 17.35 18.8 17.35 18.85 17.35 18.95 17.35 19.2 17.35 19.35 17.4 19.7 17.4 20.3 17.4 20.8 17.4 21.0 17.4 21.25 17.4 21.35 17.35 21.5 17.35 21.7 17.35 21.8 17.3 21.9 17.3 22.15 17.25 22.4 17.25 23.2 17.2 23.4 17.2 23.65 17.2 24.05 17.2 24.7 17.2 25.0 17.2 25.25 17.25 25.7 17.25 25.9 17.25 26.1 17.25 26.4 17.3 26.5 17.3 26.6 17.35 26.65 17.35 26.8 17.4 26.95 17.45 27.05 17.5 27.15 17.6 27.25 17.65 27.35 17.7 27.4 17.75 27.5 17.85 27.55 17.9 27.6 17.95 27.65 18.05 27.75 18.15 27.8 18.2 27.8 18.3 27.85 18.35 27.85 18.4 27.9 18.45 27.95 18.55 27.95 18.65 28.0 18.75 28.0 18.8 28.05 18.85 28.05 18.9 28.05 19.0 28.05 19.15 28.05 19.25 28.05 19.35 28.05 19.45 28.05 19.6 28.0 19.7 28.0 19.75 27.95 19.8 27.95 19.9 27.95 19.95 27.9 20.0 27.85 20.05 27.85 20.15 27.8 20.2 27.8 20.25 27.75 20.3 27.7 20.4 27.65 20.45 27.6 20.5 27.55 20.6 27.5 20.65 27.4 20.7 27.35 20.75 27.25 20.85 27.15 20.9 27.05 20.95 26.95 21.0 26.8 21.1 26.65 21.15 26.6 21.15 26.5 21.15 26.4 21.2 26.1 21.2 25.9 21.2 25.7 21.2 25.25 21.25 25.0 21.25 24.7 21.3 24.05 21.3 24.05 21.4 24.05 21.55 24.05 21.65 24.05 21.75 24.05 21.85 24.05 21.9 24.1 21.95 24.1 22.0 24.1 22.1 24.1 22.2 24.1 22.3 24.1 22.45 24.1 22.55 24.1 22.7 24.1 22.8 24.05 22.85 24.05 22.9 24.05 23.0 24.05 23.15 24.05 23.25 24.05 23.4 24.05 23.5 24.05 23.6 24.05 23.7 24.05 23.85 24.05 23.95 24.05 24.1 24.05 24.2 24.05 24.3 24.0 24.4 24.0 24.55 24.0 24.65 24.0 24.8 24.0 24.9 24.0 24.95 23.95 25.0 23.95 25.1 23.95 25.25 23.95 25.35 23.95 25.5 23.95 25.6 23.95 25.7 23.95 25.8 23.95 25.95 23.95 26.05 23.95 26.1 23.9 26.15 23.9 26.25 23.9 26.4 23.9 26.5 23.9 26.65 23.85 26.75 23.85 26.85 23.85 26.95 23.85 27.05 23.8 27.1 23.8 27.2 23.8 27.3 23.75 27.35 23.75 27.45 23.75 27.55 23.7 27.65 23.7 27.8 23.7 27.9 23.65 27.95 23.65 28.05 23.65 28.15 23.6 28.2 23.6 28.25 23.6 28.35 23.6 28.5 23.6 28.6 23.6 28.65 23.55 28.7 23.55 28.75 23.55 28.85 23.55 28.95 23.5 29.05 23.5 29.2 23.5 29.3 23.5 29.4 23.5 29.5 23.5 29.65 23.5 29.75 23.5 29.9 23.5 30.0 23.5 30.1 23.5 30.2 23.5 30.3 23.45 30.35 23.45 30.45 23.45 30.6 23.45 30.7 23.45 30.8 23.45 30.9 23.4 30.95 23.4 31.05 23.4 31.15 23.4 31.2 23.35 31.25 23.35 31.3 23.35 31.4 23.35 31.45 23.3 31.5 23.3 31.6 23.3 31.75 23.3 31.85 23.3 31.9 23.25 31.95 23.25 32.0 23.25 32.1 23.25 32.2 23.25 32.3 23.2 32.35 23.2 32.45 23.2 32.55 23.2 32.7 28.7 32.45 30.6 32.2 31.9 32.2 32.0 32.2 32.1 32.15 32.3 32.15 32.55 32.15 32.85 32.1 33.7 32.1 Q33.45 31.15 33.55 30.1 33.6 28.6 34.3 26.8 35.4 24.05 37.2 21.95 L38.35 20.75 39.6 19.7 Q41.75 17.95 43.2 17.45 L43.7 17.3 Q43.5 16.1 43.65 14.7 L43.95 12.95 44.0 12.9 42.85 11.75 Q42.35 11.0 42.2 9.9 42.0 8.35 42.6 6.85 43.2 5.3 44.4 4.35 45.6 3.35 47.2 3.05 L50.25 3.25 Q51.05 3.5 52.0 4.1 54.15 5.6 54.2 7.45 L54.9 7.5 M54.9 16.45 L55.15 16.85 55.6 16.6 59.0 16.7 59.6 16.95 59.9 16.4 60.05 15.9 60.1 15.55 Q60.25 14.3 59.4 13.45 L59.05 13.15 58.65 12.8 57.3 12.5 Q56.7 12.55 55.95 12.9 L55.3 13.4 54.95 13.9 Q54.4 15.05 54.7 15.95 L54.9 16.45 M53.2 20.25 L53.8 20.3 54.75 20.5 55.6 20.65 Q56.05 20.45 55.85 19.95 L55.4 19.2 55.1 18.95 54.8 18.65 54.1 18.05 53.7 17.8 53.65 16.75 53.4 16.15 Q53.15 15.8 52.7 15.8 52.25 15.7 52.05 16.15 51.9 16.3 51.9 16.55 L51.65 17.8 51.65 18.0 Q51.25 18.15 50.9 18.5 L50.0 19.85 49.85 20.45 Q50.0 20.75 50.4 20.75 L51.0 20.6 52.25 20.35 52.85 20.15 53.2 20.25 M50.65 15.85 L50.85 15.45 51.2 14.15 51.15 13.75 Q51.1 12.9 50.55 12.15 50.0 11.4 49.2 11.1 L48.6 10.95 46.25 11.25 Q45.0 11.9 44.85 13.1 L44.8 14.0 44.85 14.5 45.25 15.4 Q45.8 16.45 46.85 16.9 L48.05 17.15 48.95 17.1 50.2 16.35 50.65 15.85 M27.1 27.4 Q27.85 27.5 28.05 28.3 28.2 29.05 27.55 29.45 L26.4 29.8 24.9 30.55 24.4 30.7 Q24.25 30.65 24.25 30.35 L24.35 30.0 25.3 28.2 Q25.7 27.85 26.2 27.6 L27.1 27.4" fill="#000000" fill-rule="evenodd" stroke="none"/>
    <path d="M49.6 15.0 Q50.0 13.95 49.35 13.05 48.95 12.4 48.15 12.1 47.35 11.85 46.6 12.1 45.9 12.35 45.45 13.1 45.0 13.8 45.1 14.6 45.2 15.35 45.8 15.95 46.4 16.55 47.2 16.6 48.0 16.7 48.7 16.2 L49.6 15.0 M50.65 15.85 L50.2 16.35 48.95 17.1 48.05 17.15 46.85 16.9 Q45.8 16.45 45.25 15.4 L44.85 14.5 44.8 14.0 44.85 13.1 Q45.0 11.9 46.25 11.25 L48.6 10.95 49.2 11.1 Q50.0 11.4 50.55 12.15 51.1 12.9 51.15 13.75 L51.2 14.15 50.85 15.45 50.65 15.85 M53.2 20.25 L52.85 20.15 52.25 20.35 51.0 20.6 50.4 20.75 Q50.0 20.75 49.85 20.45 L50.0 19.85 50.9 18.5 Q51.25 18.15 51.65 18.0 L51.65 17.8 51.9 16.55 Q51.9 16.3 52.05 16.15 52.25 15.7 52.7 15.8 53.15 15.8 53.4 16.15 L53.65 16.75 53.7 17.8 54.1 18.05 54.8 18.65 55.1 18.95 55.4 19.2 55.85 19.95 Q56.05 20.45 55.6 20.65 L54.75 20.5 53.8 20.3 53.2 20.25 M54.9 16.45 L54.7 15.95 Q54.4 15.05 54.95 13.9 L55.3 13.4 55.95 12.9 Q56.7 12.55 57.3 12.5 L58.65 12.8 59.05 13.15 59.4 13.45 Q60.25 14.3 60.1 15.55 L60.05 15.9 59.9 16.4 59.6 16.95 59.0 16.7 55.6 16.6 55.15 16.85 54.9 16.45" fill="#ffffff" fill-rule="evenodd" stroke="none"/>
    <path d="M49.6 15.0 L48.7 16.2 Q48.0 16.7 47.2 16.6 46.4 16.55 45.8 15.95 45.2 15.35 45.1 14.6 45.0 13.8 45.45 13.1 45.9 12.35 46.6 12.1 47.35 11.85 48.15 12.1 48.95 12.4 49.35 13.05 50.0 13.95 49.6 15.0" fill="#999999" fill-rule="evenodd" stroke="none"/>
  </g>
</svg>
